<?xml version="1.0" standalone="no"?>
<!DOCTYPE svg PUBLIC "-//W3C//DTD SVG 20010904//EN"
 "http://www.w3.org/TR/2001/REC-SVG-20010904/DTD/svg10.dtd">
<svg version="1.0" xmlns="http://www.w3.org/2000/svg"
 width="302.000000pt" height="298.000000pt" viewBox="0 0 302.000000 298.000000"
 preserveAspectRatio="xMidYMid meet">

<g transform="translate(0.000000,298.000000) scale(0.100000,-0.100000)"
fill="#000000" stroke="none">
<path d="M1340 2764 c-201 -199 -218 -214 -259 -220 -25 -4 -158 -4 -297 0
-170 5 -254 4 -258 -3 -4 -6 -8 -143 -9 -306 l-2 -295 -215 -215 c-118 -118
-212 -216 -210 -219 3 -3 97 -97 208 -210 157 -157 205 -212 211 -238 5 -19 7
-158 6 -310 l-1 -276 45 -5 c25 -3 143 -3 261 0 325 9 278 28 521 -214 114
-113 212 -204 218 -202 5 2 102 95 215 206 129 128 214 205 232 209 15 4 144
4 286 1 146 -4 268 -3 281 2 l24 9 -1 292 c-1 237 2 297 13 314 27 40 394 405
403 400 4 -3 8 6 8 20 0 14 -3 25 -7 24 -5 -2 -100 91 -213 206 l-205 208 0
293 c0 161 -2 295 -5 298 -7 7 -271 17 -450 17 l-155 1 -215 213 -216 213
-214 -213z m395 -259 l162 -165 236 0 c223 0 237 -1 247 -19 6 -12 10 -108 10
-243 l0 -224 170 -174 c94 -95 170 -174 170 -175 0 -2 -77 -79 -170 -171
l-170 -169 0 -236 c0 -169 -3 -238 -12 -247 -9 -9 -78 -12 -247 -12 l-235 0
-166 -165 c-91 -91 -170 -165 -175 -165 -5 0 -84 74 -175 165 l-166 165 -231
0 c-127 0 -238 3 -247 6 -14 5 -16 37 -16 248 l0 241 -165 165 c-91 91 -165
172 -165 181 0 9 73 87 163 175 l162 159 5 245 5 245 241 3 241 2 164 165 c94
95 172 165 182 165 11 0 88 -70 182 -165z"/>
</g>
</svg>
