<?xml version="1.0" standalone="no"?>
<!DOCTYPE svg PUBLIC "-//W3C//DTD SVG 20010904//EN"
 "http://www.w3.org/TR/2001/REC-SVG-20010904/DTD/svg10.dtd">
<svg version="1.0" xmlns="http://www.w3.org/2000/svg"
 width="431.000000pt" height="318.000000pt" viewBox="0 0 431.000000 318.000000"
 preserveAspectRatio="xMidYMid meet">

<g transform="translate(0.000000,318.000000) scale(0.100000,-0.100000)"
fill="#000000" stroke="none">
<path d="M1260 2630 c0 -5 -30 -11 -67 -13 -42 -2 -21 -4 55 -5 73 -1 122 -6
122 -12 0 -6 35 -10 85 -10 47 0 85 4 85 9 0 5 8 11 17 13 10 2 -32 4 -92 6
-61 2 -111 7 -113 12 -5 13 -92 13 -92 0z"/>
<path d="M3410 2621 c-43 -5 -23 -8 97 -14 90 -5 160 -4 169 1 13 7 10 9 -12
8 -16 0 -67 2 -114 5 -47 3 -110 3 -140 0z"/>
<path d="M3821 2526 c-1 -33 -8 -45 -48 -82 -105 -96 -123 -116 -123 -137 0
-16 6 -10 20 20 14 32 32 49 72 72 64 37 105 101 89 142 -9 22 -10 21 -10 -15z"/>
<path d="M3110 2498 c0 -32 -9 -42 -58 -67 -48 -24 -127 -93 -144 -124 -6 -11
6 -4 25 15 40 41 84 74 141 108 l39 24 -5 -35 c-3 -19 -2 -45 3 -59 4 -16 7
10 8 68 1 50 -1 92 -4 92 -3 0 -5 -10 -5 -22z"/>
<path d="M3395 2481 c-12 -5 18 -8 72 -7 50 1 86 4 80 8 -16 10 -126 9 -152
-1z"/>
<path d="M3840 2479 c0 -20 38 -55 117 -108 38 -25 72 -58 87 -83 14 -24 26
-38 26 -32 0 27 -64 95 -131 140 -41 27 -79 60 -86 74 -8 15 -13 19 -13 9z"/>
<path d="M3238 2473 c18 -2 45 -2 60 0 15 2 0 4 -33 4 -33 0 -45 -2 -27 -4z"/>
<path d="M1190 2421 c0 -5 -10 -11 -22 -13 -13 -2 31 -4 98 -3 96 0 118 3 108
13 -15 14 -184 17 -184 3z"/>
<path d="M963 2403 c20 -2 54 -2 75 0 20 2 3 4 -38 4 -41 0 -58 -2 -37 -4z"/>
<path d="M3248 2393 c12 -2 32 -2 45 0 12 2 2 4 -23 4 -25 0 -35 -2 -22 -4z"/>
<path d="M3910 2370 c6 -11 13 -20 16 -20 2 0 0 9 -6 20 -6 11 -13 20 -16 20
-2 0 0 -9 6 -20z"/>
<path d="M3021 2339 c-83 -53 -157 -109 -143 -109 6 0 26 9 44 20 18 11 44 20
58 20 36 0 100 19 100 30 0 5 -16 2 -36 -6 -20 -8 -48 -14 -63 -12 -24 3 -21
6 34 40 88 55 91 57 80 57 -5 1 -39 -17 -74 -40z"/>
<path d="M3735 2362 c-5 -4 -17 -16 -25 -27 -11 -15 -7 -14 13 4 24 22 32 31
25 31 -2 0 -7 -4 -13 -8z"/>
<path d="M3795 2349 c-4 -6 -5 -12 -2 -15 2 -3 7 2 10 11 7 17 1 20 -8 4z"/>
<path d="M3644 2238 c1 -42 2 -43 31 -40 17 2 84 7 150 11 l120 7 -105 2 c-58
1 -124 -3 -147 -7 l-42 -8 -4 39 c-4 37 -4 37 -3 -4z"/>
<path d="M3105 2250 c-3 -5 -37 -26 -75 -45 -37 -20 -77 -46 -87 -58 -20 -23
-16 -21 64 30 29 18 56 33 60 33 4 0 21 11 37 25 16 14 24 25 18 25 -6 0 -14
-4 -17 -10z"/>
<path d="M3277 2243 c-14 -14 -6 -23 33 -34 60 -18 64 -29 30 -80 -16 -24 -39
-55 -50 -69 l-20 -25 0 67 c0 37 -4 70 -10 73 -6 4 -10 -24 -10 -77 0 -67 -6
-100 -28 -162 l-29 -78 -13 46 c-7 26 -15 45 -17 43 -2 -3 5 -38 16 -78 11
-41 22 -85 24 -99 3 -14 4 2 4 35 -1 97 30 172 118 286 67 87 71 120 18 148
-24 12 -56 15 -66 4z"/>
<path d="M3978 2223 c18 -2 45 -2 60 0 15 2 0 4 -33 4 -33 0 -45 -2 -27 -4z"/>
<path d="M2919 2163 c-59 -56 -74 -81 -41 -68 9 3 38 10 64 15 42 8 128 52
128 66 0 2 -21 -7 -46 -22 -25 -15 -64 -28 -87 -30 l-42 -3 52 50 c28 27 47
49 42 49 -6 0 -37 -25 -70 -57z"/>
<path d="M2553 2108 c-14 -86 -50 -177 -88 -226 -18 -22 -54 -46 -101 -68 -40
-18 -99 -51 -131 -73 -32 -21 -82 -49 -110 -60 -29 -11 -79 -34 -110 -50 -177
-89 -757 -297 -913 -327 -47 -9 41 34 106 51 l61 17 22 77 c13 42 24 101 27
131 l3 55 -13 -60 c-23 -105 -50 -177 -71 -191 -12 -8 -57 -23 -101 -34 -60
-15 -84 -27 -101 -47 -38 -47 -44 -23 -50 198 -3 112 -7 206 -10 209 -2 3 -3
-85 -2 -195 2 -154 5 -205 17 -224 12 -19 12 -31 2 -67 -7 -24 -15 -44 -19
-44 -3 0 -28 49 -55 110 -43 96 -47 112 -35 126 12 15 12 17 -1 12 -9 -3 -17
-23 -21 -54 -3 -27 -22 -81 -42 -120 -21 -42 -31 -71 -24 -71 7 -1 27 -4 46
-9 25 -5 32 -4 27 4 -4 7 -20 12 -37 12 -16 0 -29 2 -29 4 0 3 17 40 38 84
l39 79 41 -96 c23 -53 42 -102 42 -108 0 -6 -27 -44 -60 -85 -63 -77 -83 -116
-27 -56 17 20 47 41 66 47 43 14 166 14 192 1 15 -8 19 -8 17 2 -2 7 -7 16
-12 19 -4 4 32 4 81 2 56 -4 93 -2 96 5 9 14 -298 26 -340 13 -38 -11 -40 -6
-14 29 18 23 24 24 128 24 96 0 102 1 53 8 -30 5 -78 8 -107 6 -59 -3 -59 1 4
69 37 40 103 70 193 88 19 4 67 20 105 36 39 15 106 39 150 52 44 14 89 28
100 32 16 5 15 2 -5 -12 -13 -10 -56 -46 -95 -80 -38 -35 -88 -69 -110 -77
-32 -12 -35 -15 -15 -15 35 -1 55 12 156 103 94 83 116 96 314 176 69 28 151
65 182 81 31 16 80 38 109 49 28 12 82 40 119 64 37 24 78 49 90 56 21 11 22
11 14 -6 -5 -11 -9 -57 -9 -104 l0 -85 -33 -3 c-45 -4 -62 12 -62 60 0 24 -4
37 -10 33 -15 -9 -13 -85 3 -86 28 -3 -82 -18 -138 -18 -96 -2 -128 -15 -209
-91 -41 -38 -101 -86 -133 -106 -32 -21 -73 -47 -90 -58 -18 -12 -33 -24 -33
-28 0 -16 167 101 239 167 43 40 94 77 112 83 50 15 182 23 474 27 143 2 280
8 305 14 46 9 -42 8 -281 -4 -108 -6 -109 -5 -109 77 0 94 17 132 100 217 86
88 110 98 148 58 12 -13 22 -27 22 -33 0 -5 -21 -22 -47 -37 -25 -15 -43 -30
-40 -33 3 -3 24 7 47 22 l43 28 33 -38 c32 -37 34 -44 34 -110 0 -67 16 -116
39 -116 11 0 0 183 -11 198 -15 18 2 14 47 -11 50 -28 61 -52 68 -144 l6 -73
-27 -1 c-19 -1 -22 -3 -8 -6 38 -10 -53 -50 -129 -58 -164 -15 -251 -47 -305
-113 -16 -20 -48 -51 -71 -69 -23 -18 -38 -33 -33 -33 16 0 56 31 131 100 69
65 74 67 135 73 141 14 205 26 248 46 25 11 56 21 70 21 14 0 48 9 75 20 59
22 47 27 -15 5 -23 -8 -52 -15 -64 -15 -19 1 -19 2 -3 11 14 8 17 25 17 95 0
81 1 85 25 94 14 5 28 17 32 26 5 13 9 11 20 -12 7 -16 10 -20 7 -9 -18 57
-16 103 4 123 26 26 12 33 -48 25 -32 -5 -38 -8 -26 -15 9 -5 24 -7 34 -4 15
5 17 1 14 -28 -9 -76 -67 -88 -174 -37 -59 28 -72 40 -99 87 -17 31 -34 53
-37 49 -3 -3 0 -11 6 -17 7 -7 12 -17 12 -22 0 -6 -7 0 -16 12 -8 12 -13 26
-10 31 4 5 -3 31 -15 58 -11 26 -26 72 -32 101 l-12 52 -12 -72z m7 -102 c-29
-49 -35 -45 -10 5 12 23 24 38 27 35 3 -2 -5 -21 -17 -40z m109 -116 c11 -24
11 -24 -3 -6 -9 11 -16 24 -16 30 0 12 5 7 19 -24z m-312 -252 c-2 -18 -4 -4
-4 32 0 36 2 50 4 33 2 -18 2 -48 0 -65z"/>
<path d="M3141 2104 c0 -38 4 -87 9 -109 5 -26 6 -3 3 65 -7 121 -13 146 -12
44z"/>
<path d="M3872 2154 c-17 -12 -22 -25 -22 -60 0 -51 15 -59 25 -11 4 17 13 42
21 54 17 28 4 37 -24 17z"/>
<path d="M4093 2085 c0 -49 3 -121 7 -160 l7 -70 0 75 c1 41 -2 113 -6 160
l-8 85 0 -90z"/>
<path d="M3682 2090 c-1 -46 4 -90 14 -115 l15 -40 -7 50 c-3 28 -9 79 -14
115 l-7 65 -1 -75z"/>
<path d="M3734 2148 c-10 -16 -6 -77 6 -97 7 -12 9 -7 10 20 0 21 9 47 21 63
l20 26 -25 0 c-14 0 -28 -5 -32 -12z"/>
<path d="M3977 2153 c-11 -10 -8 -123 3 -123 6 0 10 10 10 23 0 12 9 37 20 55
11 18 20 37 20 42 0 11 -43 14 -53 3z"/>
<path d="M1275 2096 c-9 -13 -18 -41 -21 -62 l-6 -39 35 48 c20 27 33 55 30
63 -8 20 -20 17 -38 -10z"/>
<path d="M1765 2071 c7 -66 17 -86 53 -108 15 -9 49 -35 77 -58 72 -59 32 -8
-47 60 -61 51 -68 61 -68 94 0 20 -5 43 -11 51 -8 11 -9 0 -4 -39z"/>
<path d="M3782 2095 c0 -16 2 -22 5 -12 2 9 2 23 0 30 -3 6 -5 -1 -5 -18z"/>
<path d="M2872 2047 c-1 -16 -14 -41 -31 -58 -23 -23 -26 -29 -12 -29 37 0 53
23 48 70 -2 25 -4 32 -5 17z"/>
<path d="M4042 2050 c0 -14 2 -19 5 -12 2 6 2 18 0 25 -3 6 -5 1 -5 -13z"/>
<path d="M3792 2030 c0 -19 2 -27 5 -17 2 9 2 25 0 35 -3 9 -5 1 -5 -18z"/>
<path d="M3922 2010 c0 -19 2 -27 5 -17 2 9 2 25 0 35 -3 9 -5 1 -5 -18z"/>
<path d="M501 1978 c-1 -64 -3 -67 -78 -109 -29 -16 -53 -35 -53 -41 0 -7 7
-5 18 4 9 9 45 30 80 47 l62 31 -6 43 c-12 75 -23 87 -23 25z"/>
<path d="M2260 2002 c0 -28 -14 -56 -46 -95 -15 -18 -24 -41 -23 -60 l1 -32
13 30 c7 17 27 43 44 59 32 31 41 75 21 106 -8 12 -10 10 -10 -8z"/>
<path d="M833 1966 c7 -46 25 -92 33 -83 3 2 0 16 -6 31 -5 15 -10 40 -10 56
0 16 -5 32 -12 36 -8 5 -9 -6 -5 -40z"/>
<path d="M2733 1960 c0 -25 2 -35 4 -22 2 12 2 32 0 45 -2 12 -4 2 -4 -23z"/>
<path d="M102 1938 c-6 -25 -28 -67 -47 -92 -44 -58 -44 -63 -1 -20 41 41 74
43 106 9 13 -14 26 -22 29 -19 3 3 -10 18 -29 34 -29 24 -35 36 -40 81 l-5 54
-13 -47z"/>
<path d="M1712 1949 c-22 -35 -17 -80 13 -120 14 -20 16 -20 10 -4 -35 91 -34
88 -13 123 11 17 17 32 15 32 -3 0 -14 -14 -25 -31z"/>
<path d="M1251 1955 c0 -11 6 -49 14 -84 19 -78 16 -89 -67 -243 -65 -122 -89
-178 -87 -212 0 -11 7 0 14 25 7 26 19 59 27 75 107 204 138 270 138 288 -1
29 -38 176 -39 151z"/>
<path d="M3636 1944 c-14 -37 -6 -64 24 -79 21 -11 28 -12 25 -3 -2 7 -9 32
-15 56 -11 44 -24 53 -34 26z"/>
<path d="M3090 1928 c0 -42 -18 -77 -44 -89 -14 -7 -27 -18 -30 -25 -4 -11 2
-11 31 1 46 19 43 16 54 65 6 26 6 47 -1 58 -8 14 -9 13 -10 -10z"/>
<path d="M2790 1905 c14 -15 34 -32 45 -37 16 -9 16 -6 -5 17 -14 15 -34 32
-45 37 -16 9 -16 6 5 -17z"/>
<path d="M3713 1885 c0 -27 2 -38 4 -22 2 15 2 37 0 50 -2 12 -4 0 -4 -28z"/>
<path d="M2319 1887 c-19 -17 -50 -40 -69 -50 -18 -10 -30 -20 -27 -23 3 -3
16 1 29 10 12 9 30 16 39 16 10 0 32 18 49 40 38 48 28 51 -21 7z"/>
<path d="M3805 1913 c-22 -3 -43 -8 -47 -12 -7 -6 135 3 187 13 27 5 -90 4
-140 -1z"/>
<path d="M1320 1887 c-1 -79 50 -127 215 -207 94 -45 102 -52 130 -102 20 -37
30 -48 33 -35 2 9 -5 32 -15 50 -14 25 -45 46 -143 94 -142 71 -175 100 -201
174 -14 42 -18 48 -19 26z"/>
<path d="M1864 1872 c11 -21 17 -61 18 -124 l1 -93 6 88 c5 72 10 91 25 103
16 11 17 14 4 14 -8 0 -28 10 -43 22 l-27 21 16 -31z"/>
<path d="M600 1870 c14 -12 39 -33 55 -46 l30 -24 -70 -1 c-66 -1 -68 -2 -25
-9 25 -4 106 -4 180 0 146 9 171 3 190 -43 5 -12 9 -17 9 -11 1 6 8 11 16 11
10 0 14 -6 10 -16 -5 -12 -3 -13 6 -4 15 15 -26 90 -61 111 -18 10 -21 10 -10
1 24 -22 60 -71 60 -82 0 -6 -15 7 -33 28 l-33 38 -52 -12 c-29 -6 -79 -11
-112 -11 -52 0 -63 4 -107 38 -55 43 -91 65 -53 32z"/>
<path d="M2487 1863 l-37 -26 0 -93 c0 -94 5 -124 21 -124 5 0 9 49 9 110 0
106 1 110 27 135 36 32 28 32 -20 -2z m-20 -135 c-2 -24 -4 -7 -4 37 0 44 2
63 4 43 2 -21 2 -57 0 -80z"/>
<path d="M880 1876 c0 -2 8 -10 18 -17 15 -13 16 -12 3 4 -13 16 -21 21 -21
13z"/>
<path d="M765 1840 c-39 -26 -25 -26 17 0 18 11 29 20 23 20 -5 0 -23 -9 -40
-20z"/>
<path d="M1769 1823 c0 -16 -2 -59 -4 -98 -2 -38 0 -88 5 -110 5 -28 8 0 9 98
0 75 -1 137 -4 137 -3 0 -5 -12 -6 -27z"/>
<path d="M3120 1845 c0 -5 5 -17 10 -25 5 -8 10 -10 10 -5 0 6 -5 17 -10 25
-5 8 -10 11 -10 5z"/>
<path d="M4117 1790 c3 -36 7 -67 9 -69 7 -8 2 84 -6 109 -5 15 -6 -1 -3 -40z"/>
<path d="M413 1803 c26 -2 67 -2 90 0 23 2 2 3 -48 3 -49 0 -68 -1 -42 -3z"/>
<path d="M91 1789 c-30 -5 -57 -12 -60 -15 -6 -5 94 5 154 16 l40 8 -40 0
c-22 0 -64 -4 -94 -9z"/>
<path d="M3130 1790 c0 -5 -24 -10 -52 -11 -46 0 -50 -2 -28 -10 14 -6 37 -9
51 -7 25 4 26 2 27 -46 3 -76 -13 -98 -78 -113 l-55 -12 63 6 c35 3 76 9 90
13 l27 8 -25 1 c-14 1 -20 5 -14 9 12 8 14 172 2 172 -5 0 -8 -4 -8 -10z"/>
<path d="M3780 1761 c0 -18 10 -41 26 -58 25 -27 25 -27 18 -4 -10 36 -34 91
-39 91 -3 0 -5 -13 -5 -29z"/>
<path d="M3896 1766 c-9 -36 11 -79 44 -98 17 -9 30 -13 30 -7 0 11 -58 129
-64 129 -2 0 -7 -11 -10 -24z"/>
<path d="M805 1760 c-13 -5 -14 -9 -5 -9 8 0 24 4 35 9 13 5 14 9 5 9 -8 0
-24 -4 -35 -9z"/>
<path d="M3727 1665 c3 -60 7 -112 9 -114 7 -8 2 123 -6 174 -5 33 -6 12 -3
-60z"/>
<path d="M4017 1763 c-3 -5 -7 -44 -11 -88 l-6 -80 20 40 c11 22 20 32 20 23
0 -10 5 -18 10 -18 13 0 13 35 0 82 -11 38 -25 55 -33 41z"/>
<path d="M600 1750 c47 -4 94 -10 105 -13 11 -4 34 -3 50 1 24 7 10 10 -64 15
-52 4 -113 6 -135 6 -23 -1 -3 -5 44 -9z"/>
<path d="M1157 1671 c-48 -49 -87 -95 -87 -102 0 -7 7 -2 16 11 9 14 51 60 93
103 41 42 73 77 70 77 -3 0 -44 -40 -92 -89z"/>
<path d="M818 1733 c6 -2 18 -2 25 0 6 3 1 5 -13 5 -14 0 -19 -2 -12 -5z"/>
<path d="M2970 1734 c0 -7 17 -29 38 -51 20 -21 28 -28 16 -14 -11 14 -28 37
-37 51 -10 13 -17 20 -17 14z"/>
<path d="M3210 1676 l0 -67 -65 -84 c-89 -113 -237 -263 -269 -271 -20 -5 -37
1 -64 20 -39 27 -85 33 -112 16 -11 -7 -1 -10 35 -10 37 0 60 -7 87 -25 20
-14 45 -25 55 -25 34 0 243 216 314 324 37 57 38 62 32 120 -8 83 -13 83 -13
2z"/>
<path d="M158 1719 c-59 -4 -115 -12 -125 -19 -16 -10 -15 -11 7 -5 14 3 92
10 175 16 82 6 152 12 154 15 6 5 -79 3 -211 -7z"/>
<path d="M878 1723 c12 -2 30 -2 40 0 9 3 -1 5 -23 4 -22 0 -30 -2 -17 -4z"/>
<path d="M3031 1714 c0 -11 3 -14 6 -6 3 7 2 16 -1 19 -3 4 -6 -2 -5 -13z"/>
<path d="M761 1707 c9 -7 19 -21 22 -32 5 -19 5 -19 6 1 1 21 -16 44 -33 44
-6 0 -4 -6 5 -13z"/>
<path d="M644 1575 c0 -77 2 -107 3 -67 2 40 2 103 0 140 -2 37 -3 4 -3 -73z"/>
<path d="M1370 1682 c23 -47 30 -130 15 -180 -12 -41 -12 -45 0 -28 8 11 17
34 21 52 7 40 -12 135 -32 160 -14 18 -14 18 -4 -4z"/>
<path d="M1430 1695 c0 -30 59 -89 113 -113 40 -17 33 -6 -15 24 -24 15 -48
34 -55 43 -32 44 -42 55 -43 46z"/>
<path d="M821 1674 c0 -11 3 -14 6 -6 3 7 2 16 -1 19 -3 4 -6 -2 -5 -13z"/>
<path d="M1322 1660 c0 -14 2 -19 5 -12 2 6 2 18 0 25 -3 6 -5 1 -5 -13z"/>
<path d="M508 1650 c-82 -6 -99 -19 -78 -58 19 -33 68 -51 135 -50 l50 0 -41
8 c-22 5 -58 16 -79 24 -30 13 -35 19 -26 30 6 7 30 16 52 19 37 5 70 22 58
29 -2 2 -34 1 -71 -2z"/>
<path d="M48 1630 c16 -13 27 -40 37 -85 18 -89 29 -96 22 -15 -8 86 -13 97
-50 109 l-32 11 23 -20z"/>
<path d="M798 1511 l4 -139 -41 -93 c-22 -51 -39 -94 -37 -96 1 -2 22 37 44
86 l42 89 -1 129 c0 70 -4 136 -7 146 -4 10 -6 -45 -4 -122z"/>
<path d="M840 1631 c-5 -11 -9 -41 -8 -68 l1 -48 4 43 c3 31 10 46 29 58 13 9
24 20 24 25 0 17 -39 9 -50 -10z"/>
<path d="M1892 1625 c0 -16 2 -22 5 -12 2 9 2 23 0 30 -3 6 -5 -1 -5 -18z"/>
<path d="M119 1618 c5 -13 23 -49 40 -82 17 -33 31 -74 32 -95 0 -20 4 -54 9
-76 9 -42 6 43 -6 182 -6 65 -25 93 -66 93 -14 0 -16 -4 -9 -22z"/>
<path d="M14 1623 c4 -7 2 -41 -4 -75 -7 -43 -7 -117 -1 -228 l9 -165 -2 160
c-2 128 0 165 12 183 17 26 12 107 -8 125 -10 9 -11 9 -6 0z"/>
<path d="M3230 1599 c0 -7 8 -18 18 -26 16 -13 16 -14 -4 -8 -16 4 -24 -1 -33
-22 -17 -37 -171 -293 -189 -315 -8 -10 -33 -18 -61 -21 -44 -3 -44 -3 12 -5
70 -2 84 9 136 116 20 42 56 112 80 155 50 89 35 95 134 -53 57 -86 124 -152
165 -162 12 -4 113 1 225 9 111 9 234 17 272 18 54 2 71 6 73 18 2 8 -2 18 -7
22 -6 3 -8 0 -5 -8 4 -12 -3 -14 -40 -10 -25 3 -80 0 -123 -6 -115 -17 -363
-29 -400 -19 -24 6 -40 21 -59 53 -29 51 -34 55 -27 23 3 -13 -20 13 -51 57
-56 80 -61 95 -36 103 7 3 10 0 7 -5 -4 -6 27 -31 67 -57 41 -25 81 -58 91
-72 32 -50 69 -56 274 -48 102 3 193 10 201 15 21 12 -175 11 -278 -1 -88 -10
-134 -3 -110 17 7 6 29 14 48 16 19 2 12 3 -15 2 -33 -2 -62 3 -85 15 -34 18
-34 18 -10 23 22 4 22 4 -5 6 -19 0 -60 22 -110 56 -75 53 -103 67 -90 45 9
-15 -11 -12 -23 3 -9 10 25 13 171 14 159 2 186 0 216 -16 l34 -18 -89 -7
c-96 -8 -179 -23 -134 -25 13 -1 72 4 130 11 l106 12 112 -58 c62 -31 112 -55
112 -52 0 7 -203 120 -255 142 -42 17 -79 22 -219 26 -151 5 -171 8 -197 27
-17 13 -29 17 -29 10z m115 -99 c3 -6 -1 -7 -9 -4 -18 7 -21 14 -7 14 6 0 13
-4 16 -10z"/>
<path d="M4137 1540 c2 -30 8 -116 13 -190 11 -163 14 -192 25 -210 5 -8 11
-138 15 -289 l7 -276 1 295 c0 238 -2 305 -15 349 -9 34 -13 71 -9 98 4 28 -1
76 -13 131 -11 48 -22 101 -24 117 -2 17 -2 5 0 -25z m30 -182 c-3 -8 -6 -5
-6 6 -1 11 2 17 5 13 3 -3 4 -12 1 -19z"/>
<path d="M3965 1556 c-33 -7 -69 -18 -80 -25 -17 -11 -18 -12 -1 -7 10 4 49
11 87 18 38 6 69 15 69 19 0 5 -3 8 -7 8 -5 -1 -35 -7 -68 -13z"/>
<path d="M2023 1473 c-15 -20 -53 -64 -83 -96 -47 -52 -50 -58 -23 -42 27 16
122 121 147 163 17 28 -15 9 -41 -25z"/>
<path d="M2290 1470 c-17 -22 -29 -40 -27 -40 3 0 20 18 37 40 17 22 29 40 27
40 -3 0 -20 -18 -37 -40z"/>
<path d="M1785 1483 c-16 -8 -43 -27 -60 -42 -41 -37 -103 -83 -139 -103 -17
-9 -25 -17 -18 -18 30 -1 88 34 144 85 33 30 73 62 89 70 28 15 37 25 22 25
-5 -1 -21 -8 -38 -17z"/>
<path d="M383 1425 c0 -38 2 -53 4 -32 2 20 2 52 0 70 -2 17 -4 1 -4 -38z"/>
<path d="M2918 1473 c-9 -10 -23 -34 -32 -53 l-17 -35 21 25 c21 26 53 80 47
80 -2 0 -11 -8 -19 -17z"/>
<path d="M2130 1433 c-25 -34 -47 -51 -78 -61 -53 -17 -51 -26 2 -11 40 11 78
45 102 92 20 39 14 34 -26 -20z"/>
<path d="M2705 1444 c-23 -25 -29 -38 -26 -56 2 -15 -11 -8 -45 22 -41 36 -71
44 -104 31 -22 -9 -19 -10 22 -10 40 -1 54 -7 85 -35 46 -40 75 -56 103 -56
26 0 68 27 82 54 9 17 6 16 -21 -7 -49 -41 -101 -48 -101 -13 0 7 11 27 25 46
14 19 25 38 25 42 0 16 -22 7 -45 -18z"/>
<path d="M3615 1440 l-50 -7 45 0 c25 -1 56 3 70 7 31 10 8 10 -65 0z"/>
<path d="M908 1433 c6 -2 18 -2 25 0 6 3 1 5 -13 5 -14 0 -19 -2 -12 -5z"/>
<path d="M2345 1426 c-11 -7 -33 -17 -50 -21 -20 -6 -25 -9 -13 -12 18 -4 73
20 83 37 8 13 3 13 -20 -4z"/>
<path d="M650 1404 c0 -16 5 -36 10 -44 6 -10 7 -2 3 25 -7 49 -13 58 -13 19z"/>
<path d="M2937 1360 c-34 -33 -57 -60 -52 -60 6 0 37 27 70 60 77 78 62 78
-18 0z"/>
<path d="M3700 1400 c-41 -6 -42 -7 -10 -8 19 0 58 3 85 8 47 7 48 7 10 7 -22
0 -60 -3 -85 -7z"/>
<path d="M2175 1390 c-27 -7 -25 -8 18 -9 30 -1 46 3 42 9 -7 11 -16 11 -60 0z"/>
<path d="M2469 1344 c-39 -42 -72 -53 -181 -65 -208 -21 -240 -28 -98 -22 74
4 149 7 167 7 18 0 35 5 37 13 3 7 12 13 20 13 8 0 36 18 61 40 25 22 40 40
32 40 -7 0 -24 -12 -38 -26z"/>
<path d="M532 1325 c-15 -12 -48 -16 -119 -17 -79 0 -104 -4 -131 -20 -18 -11
-52 -22 -75 -24 -67 -6 -104 -23 -137 -60 -42 -49 -37 -51 10 -5 36 35 46 39
103 43 47 3 72 11 105 32 41 28 43 28 62 11 11 -10 20 -13 20 -7 0 6 29 12 70
14 39 2 70 2 70 0 0 -9 -36 -71 -57 -99 -25 -35 -47 -40 -125 -27 l-36 6 19
32 c30 49 22 55 -9 6 l-28 -45 35 -7 c20 -4 55 -7 78 -7 47 -1 69 20 127 119
l32 55 79 -2 c56 -1 71 1 50 7 -51 13 -119 11 -143 -5z"/>
<path d="M1720 1315 c-47 -34 -12 -34 38 0 28 19 32 25 17 25 -11 -1 -36 -12
-55 -25z"/>
<path d="M545 1268 c-14 -29 -25 -58 -25 -65 0 -7 -8 -17 -17 -22 -13 -8 6
-10 72 -11 82 0 88 1 68 15 -12 8 -24 30 -28 48 -9 47 -26 87 -37 87 -5 0 -20
-24 -33 -52z m51 -10 c9 -29 21 -59 27 -65 7 -10 -3 -13 -47 -13 l-56 0 21 53
c12 28 23 58 26 65 8 19 10 16 29 -40z"/>
<path d="M2445 1280 c-29 -5 -12 -7 60 -8 55 0 111 4 125 8 32 10 -128 10
-185 0z"/>
<path d="M370 1255 c0 -5 5 -17 10 -25 5 -8 10 -10 10 -5 0 6 -5 17 -10 25 -5
8 -10 11 -10 5z"/>
<path d="M1675 1253 c-22 -1 -64 -8 -93 -14 -45 -9 -56 -16 -78 -50 l-24 -39
-88 5 -87 4 85 -14 c65 -11 95 -11 128 -3 29 7 142 9 325 7 155 -3 250 -2 212
1 -39 3 -75 9 -80 12 -6 3 -114 3 -240 -1 -127 -4 -232 -5 -234 -4 -3 2 9 17
26 34 26 27 42 32 109 41 44 6 88 14 99 18 l20 9 -20 -1 c-11 -1 -38 -3 -60
-5z"/>
<path d="M1838 1253 c34 -2 90 -2 125 0 34 2 6 3 -63 3 -69 0 -97 -1 -62 -3z"/>
<path d="M2675 1230 c-59 -6 -58 -7 30 -9 56 -1 99 -7 115 -16 14 -8 41 -14
60 -13 l35 0 -35 7 c-19 4 -49 15 -67 24 -33 18 -39 18 -138 7z"/>
<path d="M195 1151 c33 -36 68 -77 77 -91 9 -14 19 -22 22 -19 4 3 -31 44 -76
91 -46 47 -56 55 -23 19z"/>
<path d="M1050 1214 c35 -7 349 -10 338 -2 -7 4 -89 7 -183 7 -93 -1 -163 -3
-155 -5z"/>
<path d="M2435 1210 l-70 -6 65 -1 c36 -1 92 3 125 7 l60 7 -55 0 c-30 0 -86
-3 -125 -7z"/>
<path d="M3809 1206 c-3 -3 -74 -7 -159 -11 -279 -10 -375 -15 -405 -21 -35
-7 -71 -37 -92 -78 -17 -34 -20 -134 -4 -181 7 -23 8 -10 4 51 -6 86 11 144
47 164 24 13 171 30 258 30 l74 0 -6 -32 c-4 -18 -9 -87 -13 -152 -6 -119 3
-218 33 -356 l14 -65 -5 77 c-5 77 -5 78 15 58 22 -22 63 -35 85 -26 8 3 15 1
15 -4 0 -6 6 -10 14 -10 7 0 25 -9 40 -21 14 -11 26 -16 26 -10 0 17 -32 42
-84 65 -62 28 -87 55 -116 123 -20 47 -22 66 -19 181 3 83 8 134 16 144 16 18
92 35 198 43 158 11 202 18 175 26 -28 8 -104 11 -111 5z m-476 -43 c-13 -2
-33 -2 -45 0 -13 2 -3 4 22 4 25 0 35 -2 23 -4z"/>
<path d="M4125 1205 c-5 -1 -38 -11 -72 -20 -49 -14 -64 -23 -72 -44 -20 -51
-23 -101 -11 -208 8 -75 8 -140 2 -213 -6 -58 -6 -112 -2 -120 16 -29 21 34
14 205 -11 291 -11 281 12 311 34 46 67 65 116 67 36 2 44 5 36 14 -6 7 -11
13 -12 12 0 0 -5 -2 -11 -4z"/>
<path d="M96 1127 c-25 -50 -26 -60 -20 -138 10 -128 23 -139 17 -14 -5 101
-4 114 16 154 12 23 20 45 18 48 -3 2 -17 -20 -31 -50z"/>
<path d="M2050 1170 c-14 -5 26 -6 94 -4 65 2 121 6 124 9 8 8 -190 4 -218 -5z"/>
<path d="M523 1143 c15 -2 37 -2 50 0 12 2 0 4 -28 4 -27 0 -38 -2 -22 -4z"/>
<path d="M1223 1143 c15 -2 37 -2 50 0 12 2 0 4 -28 4 -27 0 -38 -2 -22 -4z"/>
<path d="M2908 1141 c-43 -4 -79 -9 -82 -11 -7 -8 257 1 294 10 43 10 -95 10
-212 1z"/>
<path d="M2621 1129 c-24 -5 -47 -11 -50 -15 -6 -6 13 -4 135 12 l46 7 -17
-26 c-26 -40 -32 -168 -10 -216 20 -45 41 -51 181 -56 60 -2 92 -9 125 -25 30
-16 40 -18 31 -7 -20 24 -76 47 -115 47 -47 0 -195 36 -214 52 -23 19 -13 154
15 202 l21 36 -52 -1 c-29 -1 -72 -5 -96 -10z m234 -279 c25 -11 -1 -11 -35 0
-20 6 -21 8 -5 8 11 0 29 -3 40 -8z"/>
<path d="M2260 1115 c-61 -8 -80 -13 -53 -14 77 -2 132 -71 134 -168 1 -26 5
-61 9 -78 7 -26 8 -24 9 20 2 102 -10 152 -45 193 l-33 39 61 7 c33 3 79 6
101 6 38 0 39 -1 24 -17 -8 -10 -25 -42 -36 -71 -20 -51 -21 -57 -7 -155 8
-56 17 -158 21 -227 4 -69 11 -130 16 -136 6 -8 -30 -14 -129 -23 -75 -7 -169
-19 -209 -27 -40 -8 -74 -14 -76 -14 -2 0 3 31 11 70 10 51 11 90 5 147 l-9
78 0 -115 c0 -81 -4 -124 -15 -145 -14 -29 -17 -30 -124 -42 -61 -7 -139 -11
-175 -8 -45 4 -73 1 -92 -9 l-26 -14 -7 102 c-4 55 -7 203 -8 327 -1 126 -6
225 -11 222 -5 -3 -5 -127 0 -287 5 -154 8 -341 6 -413 -1 -83 2 -133 8 -133
6 0 10 27 10 61 0 59 11 96 34 111 6 4 38 8 70 8 68 0 344 29 579 61 46 7 121
12 167 13 l84 1 17 -85 c18 -83 18 -84 16 -28 -1 31 1 54 6 51 4 -2 7 -16 8
-31 0 -15 4 -36 9 -47 12 -26 2 58 -11 99 -5 16 -10 41 -10 55 -1 25 -2 25 -8
-4 l-6 -30 -12 30 c-11 28 -29 137 -36 215 -2 19 -4 -3 -5 -50 -1 -47 2 -102
7 -122 9 -37 8 -38 -18 -32 -14 4 -30 9 -34 11 -5 3 -8 67 -6 142 1 75 -4 183
-11 241 -12 102 -11 108 10 158 12 29 26 52 31 52 20 0 58 -68 62 -110 l4 -45
1 47 c2 42 -2 53 -34 88 -36 40 -36 40 -108 39 -39 -1 -114 -7 -166 -14z m184
-165 c4 -25 3 -31 -4 -20 -5 8 -10 26 -10 39 0 32 6 24 14 -19z"/>
<path d="M506 1111 l-110 -6 -19 -35 -19 -35 23 28 c22 26 29 28 84 25 52 -3
61 -6 72 -28 7 -14 13 -19 13 -12 0 7 -5 22 -10 33 -10 18 -7 19 50 19 l61 0
-15 -22 c-26 -36 -18 -42 10 -9 24 29 30 31 85 29 32 -1 61 1 65 5 4 4 -13 7
-37 7 -24 0 -66 2 -94 4 -27 2 -99 0 -159 -3z"/>
<path d="M1990 1111 c-25 -4 -106 -5 -180 -3 -75 2 -184 -2 -245 -9 -60 -7
-137 -12 -171 -11 -55 1 -63 -1 -88 -27 -15 -15 -34 -52 -42 -82 -20 -75 -30
-269 -15 -297 11 -21 10 -21 -21 -15 -58 10 -59 14 -53 142 4 67 2 135 -4 161
-10 41 -10 37 -6 -35 2 -44 1 -122 -2 -173 -6 -89 -7 -92 -27 -85 -12 4 -37 8
-57 8 l-36 0 4 45 c4 53 0 46 -17 -31 -11 -48 -10 -60 4 -87 9 -18 26 -34 39
-36 74 -14 137 -22 130 -15 -11 10 -120 40 -134 37 -7 -2 -19 10 -27 25 -12
26 -12 30 5 43 11 9 30 12 48 9 17 -3 61 -10 98 -15 37 -6 86 -18 109 -26 22
-8 61 -14 87 -13 46 0 45 0 -29 20 -41 10 -81 25 -88 33 -34 34 -12 299 30
362 12 19 34 37 47 41 29 7 87 -22 103 -51 7 -13 10 -122 9 -317 -1 -234 2
-312 14 -370 21 -97 35 -111 18 -17 -10 52 -14 158 -13 370 1 242 -2 303 -14
332 -8 20 -21 36 -28 37 -7 0 -3 4 8 9 34 14 141 20 399 25 132 3 258 9 280
14 38 8 36 9 -25 8 -36 0 -85 -3 -110 -6z"/>
<path d="M2967 1099 c28 -31 43 -71 43 -119 0 -49 7 -68 32 -81 18 -10 18 -9
5 18 -8 15 -17 52 -20 82 -7 59 -25 94 -59 112 l-23 12 22 -24z"/>
<path d="M126 1064 c-10 -75 -6 -157 9 -189 l14 -30 -7 30 c-4 17 -6 76 -5
133 1 56 0 102 -1 102 -2 0 -6 -21 -10 -46z"/>
<path d="M3320 1090 c0 -5 9 -14 20 -20 28 -15 38 -65 45 -241 4 -86 11 -163
16 -170 11 -18 11 -4 -1 205 -11 170 -22 217 -55 230 -22 8 -25 8 -25 -4z"/>
<path d="M774 1074 c3 -9 6 -28 7 -42 0 -27 0 -27 10 -4 6 15 5 30 -1 43 -13
23 -25 25 -16 3z"/>
<path d="M3753 1035 c0 -33 2 -45 4 -27 2 18 2 45 0 60 -2 15 -4 0 -4 -33z"/>
<path d="M691 1044 c0 -11 3 -14 6 -6 3 7 2 16 -1 19 -3 4 -6 -2 -5 -13z"/>
<path d="M2077 1049 c-42 -25 -59 -134 -37 -249 6 -32 7 -17 3 50 -6 117 7
174 45 194 15 9 23 15 17 15 -5 0 -18 -4 -28 -10z"/>
<path d="M2581 1055 c0 -5 6 -21 14 -35 8 -14 14 -20 14 -15 0 6 -6 21 -14 35
-8 14 -14 21 -14 15z"/>
<path d="M3802 1035 c0 -16 2 -22 5 -12 2 9 2 23 0 30 -3 6 -5 -1 -5 -18z"/>
<path d="M433 995 c0 -33 2 -45 4 -27 2 18 2 45 0 60 -2 15 -4 0 -4 -33z"/>
<path d="M1678 1043 c12 -2 30 -2 40 0 9 3 -1 5 -23 4 -22 0 -30 -2 -17 -4z"/>
<path d="M1855 990 c33 -33 62 -60 64 -60 3 0 -21 27 -54 60 -33 33 -62 60
-64 60 -3 0 21 -27 54 -60z"/>
<path d="M182 1020 c0 -14 2 -19 5 -12 2 6 2 18 0 25 -3 6 -5 1 -5 -13z"/>
<path d="M2766 1027 c3 -10 9 -15 12 -12 3 3 0 11 -7 18 -10 9 -11 8 -5 -6z"/>
<path d="M551 1004 c0 -11 3 -14 6 -6 3 7 2 16 -1 19 -3 4 -6 -2 -5 -13z"/>
<path d="M2506 950 c4 -41 8 -77 10 -79 8 -9 2 115 -6 134 -6 13 -7 -8 -4 -55z"/>
<path d="M895 999 c-4 -6 -5 -12 -2 -15 2 -3 7 2 10 11 7 17 1 20 -8 4z"/>
<path d="M1042 990 c0 -14 2 -19 5 -12 2 6 2 18 0 25 -3 6 -5 1 -5 -13z"/>
<path d="M341 984 c0 -11 3 -14 6 -6 3 7 2 16 -1 19 -3 4 -6 -2 -5 -13z"/>
<path d="M603 940 c0 -36 2 -50 4 -32 2 17 2 47 0 65 -2 17 -4 3 -4 -33z"/>
<path d="M2615 958 c4 -23 0 -51 -11 -75 -14 -34 -17 -36 -24 -18 -6 14 -9 6
-9 -30 0 -44 2 -47 11 -25 6 14 19 41 29 61 21 40 23 72 8 104 -7 15 -8 11 -4
-17z"/>
<path d="M563 935 c0 -27 2 -38 4 -22 2 15 2 37 0 50 -2 12 -4 0 -4 -28z"/>
<path d="M273 925 c0 -27 2 -38 4 -22 2 15 2 37 0 50 -2 12 -4 0 -4 -28z"/>
<path d="M881 954 c0 -11 3 -14 6 -6 3 7 2 16 -1 19 -3 4 -6 -2 -5 -13z"/>
<path d="M1626 962 c-2 -4 12 -6 32 -4 56 5 62 10 15 11 -23 1 -44 -3 -47 -7z"/>
<path d="M1823 935 c0 -22 2 -30 4 -17 2 12 2 30 0 40 -3 9 -5 -1 -4 -23z"/>
<path d="M2115 960 c-14 -6 3 -9 53 -9 46 -1 71 3 67 9 -7 12 -92 12 -120 0z"/>
<path d="M3240 923 c0 -36 5 -55 18 -66 27 -25 35 -21 16 8 -10 15 -14 37 -12
55 3 18 -1 35 -9 41 -10 9 -13 2 -13 -38z"/>
<path d="M192 930 c0 -19 2 -27 5 -17 2 9 2 25 0 35 -3 9 -5 1 -5 -18z"/>
<path d="M793 900 c0 -36 2 -50 4 -32 2 17 2 47 0 65 -2 17 -4 3 -4 -33z"/>
<path d="M953 885 c0 -44 2 -61 4 -37 2 23 2 59 0 80 -2 20 -4 1 -4 -43z"/>
<path d="M4068 953 c6 -2 18 -2 25 0 6 3 1 5 -13 5 -14 0 -19 -2 -12 -5z"/>
<path d="M2572 920 c0 -19 2 -27 5 -17 2 9 2 25 0 35 -3 9 -5 1 -5 -18z"/>
<path d="M331 924 c0 -11 3 -14 6 -6 3 7 2 16 -1 19 -3 4 -6 -2 -5 -13z"/>
<path d="M1033 860 c0 -47 2 -66 4 -42 2 23 2 61 0 85 -2 23 -4 4 -4 -43z"/>
<path d="M1712 850 c-1 -70 -6 -102 -19 -119 -11 -16 -17 -49 -19 -100 -1 -42
0 -60 3 -41 7 48 16 57 81 72 46 10 51 13 29 16 -16 2 -46 -5 -68 -16 -35 -17
-39 -18 -39 -3 0 9 9 33 20 54 18 33 20 53 17 135 l-3 97 -2 -95z"/>
<path d="M4068 933 c6 -2 18 -2 25 0 6 3 1 5 -13 5 -14 0 -19 -2 -12 -5z"/>
<path d="M41 909 c0 -13 4 -33 9 -44 7 -14 8 -8 3 20 -7 46 -13 59 -12 24z"/>
<path d="M872 910 c0 -14 2 -19 5 -12 2 6 2 18 0 25 -3 6 -5 1 -5 -13z"/>
<path d="M1366 874 c-4 -20 -5 -38 -3 -40 3 -3 8 11 11 32 4 20 5 38 3 40 -3
3 -8 -11 -11 -32z"/>
<path d="M3792 890 c0 -14 2 -19 5 -12 2 6 2 18 0 25 -3 6 -5 1 -5 -13z"/>
<path d="M702 875 c0 -16 2 -22 5 -12 2 9 2 23 0 30 -3 6 -5 -1 -5 -18z"/>
<path d="M1403 850 c0 -30 2 -43 4 -27 2 15 2 39 0 55 -2 15 -4 2 -4 -28z"/>
<path d="M337 859 c4 -13 8 -18 11 -10 2 7 -1 18 -6 23 -8 8 -9 4 -5 -13z"/>
<path d="M432 850 c0 -19 2 -27 5 -17 2 9 2 25 0 35 -3 9 -5 1 -5 -18z"/>
<path d="M3161 845 c0 -22 3 -67 8 -100 5 -33 12 -90 16 -127 l7 -68 -116 0
c-158 0 -299 -31 -310 -69 -3 -9 -4 -56 -3 -106 l2 -90 64 -3 c36 -2 69 2 74
7 12 12 8 13 -68 15 l-50 1 -3 72 c-3 66 -1 73 21 87 13 9 62 23 109 31 47 8
99 20 115 26 15 6 55 10 88 9 235 -8 1107 2 975 11 -58 4 -275 7 -483 7 -233
0 -382 3 -388 9 -6 6 -21 82 -33 169 -13 87 -24 141 -25 119z m-141 -309 c0
-2 -7 -7 -16 -10 -8 -3 -12 -2 -9 4 6 10 25 14 25 6z m263 -3 c-13 -2 -33 -2
-45 0 -13 2 -3 4 22 4 25 0 35 -2 23 -4z"/>
<path d="M551 854 c0 -11 3 -14 6 -6 3 7 2 16 -1 19 -3 4 -6 -2 -5 -13z"/>
<path d="M612 850 c0 -14 2 -19 5 -12 2 6 2 18 0 25 -3 6 -5 1 -5 -13z"/>
<path d="M863 800 c0 -41 2 -58 4 -37 2 20 2 54 0 75 -2 20 -4 3 -4 -38z"/>
<path d="M2081 835 c0 -16 7 -48 15 -70 8 -22 19 -77 24 -122 6 -45 15 -92 20
-105 l11 -23 -6 25 c-3 14 -10 67 -16 118 -11 99 -48 233 -48 177z"/>
<path d="M3417 828 c9 -51 22 -69 23 -31 0 37 -8 63 -21 63 -5 0 -6 -15 -2
-32z"/>
<path d="M1503 747 c0 -59 2 -109 6 -111 10 -6 12 155 2 189 -5 21 -8 -2 -8
-78z"/>
<path d="M1937 832 c-35 -38 -52 -131 -42 -228 11 -96 20 -68 17 49 -3 93 -1
106 22 150 27 51 28 57 3 29z"/>
<path d="M4022 820 c0 -14 2 -19 5 -12 2 6 2 18 0 25 -3 6 -5 1 -5 -13z"/>
<path d="M274 815 c11 -8 25 -15 30 -15 6 0 2 7 -8 15 -11 8 -25 15 -30 15 -6
0 -2 -7 8 -15z"/>
<path d="M350 824 c0 -6 17 -26 37 -45 l38 -34 -30 35 c-16 19 -33 39 -37 45
-5 5 -8 5 -8 -1z"/>
<path d="M535 808 c-13 -29 -51 -35 -76 -12 -10 9 -19 12 -19 6 0 -15 33 -32
64 -32 25 0 51 30 44 51 -2 5 -8 -1 -13 -13z"/>
<path d="M801 814 c0 -11 3 -14 6 -6 3 7 2 16 -1 19 -3 4 -6 -2 -5 -13z"/>
<path d="M2711 805 c0 -16 7 -82 14 -145 l14 -115 -3 126 c-1 69 -8 134 -14
145 -10 17 -11 16 -11 -11z"/>
<path d="M3212 807 c4 -13 104 -66 126 -67 29 0 7 17 -59 47 -40 19 -69 27
-67 20z"/>
<path d="M1828 700 c-5 -78 -3 -133 5 -170 12 -50 13 -42 9 100 -4 199 -7 211
-14 70z"/>
<path d="M2213 770 c0 -25 2 -35 4 -22 2 12 2 32 0 45 -2 12 -4 2 -4 -23z"/>
<path d="M2791 773 c-1 -35 5 -49 39 -87 21 -26 42 -62 46 -81 10 -53 21 -42
28 26 7 56 9 60 23 47 8 -9 19 -31 23 -49 7 -30 8 -27 9 24 1 32 -3 67 -9 77
-10 18 -113 80 -134 80 -6 0 5 -8 24 -19 45 -24 64 -74 51 -139 -5 -26 -9 -40
-10 -30 0 9 -17 35 -36 58 -34 40 -39 54 -48 110 -3 15 -5 8 -6 -17z m132 -25
c9 -7 20 -29 23 -48 7 -35 7 -35 -14 -17 -22 20 -47 77 -33 77 4 0 15 -6 24
-12z"/>
<path d="M622 780 c0 -14 2 -19 5 -12 2 6 2 18 0 25 -3 6 -5 1 -5 -13z"/>
<path d="M710 790 c8 -6 24 -16 35 -22 18 -9 17 -8 -2 11 -12 11 -28 21 -35
21 -9 0 -9 -3 2 -10z"/>
<path d="M963 760 c0 -25 2 -35 4 -22 2 12 2 32 0 45 -2 12 -4 2 -4 -23z"/>
<path d="M1352 765 c0 -16 2 -22 5 -12 2 9 2 23 0 30 -3 6 -5 -1 -5 -18z"/>
<path d="M2511 764 c0 -11 3 -14 6 -6 3 7 2 16 -1 19 -3 4 -6 -2 -5 -13z"/>
<path d="M1423 710 c0 -36 2 -50 4 -32 2 17 2 47 0 65 -2 17 -4 3 -4 -33z"/>
<path d="M250 750 c14 -4 34 -8 45 -8 l20 -1 -20 9 c-11 5 -31 8 -45 8 l-25 0
25 -8z"/>
<path d="M632 735 c0 -11 4 -31 8 -45 6 -20 8 -21 8 -5 0 11 -4 31 -8 45 -6
20 -8 21 -8 5z"/>
<path d="M3042 720 c0 -19 2 -27 5 -17 2 9 2 25 0 35 -3 9 -5 1 -5 -18z"/>
<path d="M330 730 c8 -5 20 -10 25 -10 6 0 3 5 -5 10 -8 5 -19 10 -25 10 -5 0
-3 -5 5 -10z"/>
<path d="M1391 724 c0 -11 3 -14 6 -6 3 7 2 16 -1 19 -3 4 -6 -2 -5 -13z"/>
<path d="M2570 720 c-13 -9 -13 -10 0 -9 8 0 24 4 35 9 l20 9 -20 0 c-11 0
-27 -4 -35 -9z"/>
<path d="M385 711 c11 -4 36 -11 55 -15 24 -4 29 -3 15 3 -11 4 -36 11 -55 15
-24 4 -29 3 -15 -3z"/>
<path d="M872 700 c0 -14 2 -19 5 -12 2 6 2 18 0 25 -3 6 -5 1 -5 -13z"/>
<path d="M295 685 c87 -39 208 -85 212 -81 2 2 -11 9 -29 16 -18 7 -67 28
-108 46 -41 18 -88 35 -105 39 -16 3 -3 -6 30 -20z"/>
<path d="M952 685 c0 -16 2 -22 5 -12 2 9 2 23 0 30 -3 6 -5 -1 -5 -18z"/>
<path d="M3802 690 c0 -14 2 -19 5 -12 2 6 2 18 0 25 -3 6 -5 1 -5 -13z"/>
<path d="M702 680 c0 -14 2 -19 5 -12 2 6 2 18 0 25 -3 6 -5 1 -5 -13z"/>
<path d="M790 676 c0 -14 12 -38 26 -53 l25 -28 -22 32 c-13 19 -20 40 -16 52
3 12 1 21 -4 21 -5 0 -9 -11 -9 -24z"/>
<path d="M554 661 c10 -16 158 -68 211 -75 34 -4 43 -3 30 3 -11 5 -35 10 -53
10 -23 1 -43 10 -63 31 -23 23 -29 25 -24 10 6 -18 3 -18 -50 5 -31 14 -54 21
-51 16z"/>
<path d="M880 665 c0 -5 5 -17 10 -25 5 -8 10 -10 10 -5 0 6 -5 17 -10 25 -5
8 -10 11 -10 5z"/>
<path d="M2593 635 c0 -22 2 -30 4 -17 2 12 2 30 0 40 -3 9 -5 -1 -4 -23z"/>
<path d="M2272 635 c0 -16 2 -22 5 -12 2 9 2 23 0 30 -3 6 -5 -1 -5 -18z"/>
<path d="M944 589 l3 -46 -26 13 c-14 7 -44 15 -66 18 l-40 6 35 -10 c19 -6
51 -17 70 -25 149 -59 203 -77 170 -55 -22 15 51 4 200 -31 113 -26 143 -29
128 -13 -10 10 -292 64 -334 64 -35 0 -108 21 -123 36 -3 3 -8 23 -12 47 l-8
42 3 -46z"/>
<path d="M2980 610 c-8 -5 -10 -10 -5 -10 6 0 17 5 25 10 8 5 11 10 5 10 -5 0
-17 -5 -25 -10z"/>
<path d="M2362 570 c0 -19 2 -27 5 -17 2 9 2 25 0 35 -3 9 -5 1 -5 -18z"/>
<path d="M456 550 c-22 -17 -35 -30 -30 -30 6 0 25 11 44 25 19 14 42 25 52
25 10 0 73 -27 140 -60 67 -33 153 -70 191 -81 82 -24 239 -92 278 -119 45
-32 180 -82 244 -90 71 -9 230 -1 200 10 -11 4 -61 5 -112 2 -61 -3 -108 0
-140 8 -55 16 -166 64 -203 89 -34 23 -157 75 -260 110 -47 16 -136 54 -199
85 -63 31 -126 56 -140 56 -14 0 -44 -14 -65 -30z"/>
<path d="M2282 560 c0 -14 2 -19 5 -12 2 6 2 18 0 25 -3 6 -5 1 -5 -13z"/>
<path d="M3680 489 c-25 -4 -79 -8 -120 -9 -41 -1 -97 -5 -125 -10 l-50 -7 46
-2 c75 -2 313 20 324 30 11 11 -9 10 -75 -2z"/>
<path d="M3761 476 c13 -11 109 -54 105 -47 -6 9 -90 51 -103 51 -3 0 -4 -2
-2 -4z"/>
<path d="M2972 454 c-28 -12 -51 -48 -38 -61 3 -4 6 1 6 10 0 38 42 49 200 52
83 1 153 5 156 7 11 11 -297 4 -324 -8z"/>
<path d="M3612 428 c-30 -5 -51 -12 -49 -14 5 -6 137 16 137 22 0 6 -26 3 -88
-8z"/>
<path d="M3508 413 c7 -3 16 -2 19 1 4 3 -2 6 -13 5 -11 0 -14 -3 -6 -6z"/>
<path d="M2990 394 c-19 -8 -43 -17 -52 -20 -13 -4 -18 -17 -18 -41 0 -31 2
-34 23 -27 12 4 49 10 82 14 l60 7 -52 2 c-28 0 -64 -4 -78 -9 -24 -9 -26 -8
-23 12 4 30 61 56 125 60 26 1 95 -1 153 -4 l105 -6 -105 13 c-135 17 -177 17
-220 -1z"/>
<path d="M3874 400 c9 -32 39 -101 43 -97 2 3 -8 29 -22 58 -14 30 -23 47 -21
39z"/>
<path d="M3335 380 c3 -5 8 -10 11 -10 2 0 4 5 4 10 0 6 -5 10 -11 10 -5 0 -7
-4 -4 -10z"/>
<path d="M3620 359 c-166 -29 -172 -30 -168 -34 5 -6 289 42 296 50 8 7 -9 5
-128 -16z"/>
<path d="M3353 295 c0 -27 2 -38 4 -22 2 15 2 37 0 50 -2 12 -4 0 -4 -28z"/>
<path d="M3293 323 c9 -2 25 -2 35 0 9 3 1 5 -18 5 -19 0 -27 -2 -17 -5z"/>
<path d="M2625 305 c-38 -6 -88 -17 -110 -22 -22 -6 -139 -16 -260 -22 -121
-7 -258 -14 -305 -16 -47 -3 -138 -8 -203 -12 -65 -3 -120 -10 -124 -16 -4 -7
37 -8 123 -3 71 4 206 11 299 15 434 23 603 34 635 42 26 6 13 8 -50 5 -97 -5
-75 9 32 19 37 4 70 11 73 16 8 11 -20 10 -110 -6z"/>
<path d="M3138 313 c17 -2 47 -2 65 0 17 2 3 4 -33 4 -36 0 -50 -2 -32 -4z"/>
<path d="M3695 264 c-38 -8 -94 -20 -123 -25 -30 -6 -52 -13 -50 -15 5 -5 259
43 266 51 8 7 -14 5 -93 -11z"/>
<path d="M2998 253 c6 -2 18 -2 25 0 6 3 1 5 -13 5 -14 0 -19 -2 -12 -5z"/>
<path d="M3103 253 c9 -2 23 -2 30 0 6 3 -1 5 -18 5 -16 0 -22 -2 -12 -5z"/>
<path d="M3168 243 c6 -2 18 -2 25 0 6 3 1 5 -13 5 -14 0 -19 -2 -12 -5z"/>
<path d="M3230 225 c14 -8 30 -14 35 -14 6 0 -1 6 -15 14 -14 8 -29 14 -35 14
-5 0 1 -6 15 -14z"/>
<path d="M2187 214 c-59 -7 -113 -15 -120 -18 -25 -10 81 -5 212 9 75 8 168
16 206 18 39 2 12 3 -60 4 -71 0 -179 -5 -238 -13z"/>
<path d="M3188 153 c7 -3 16 -2 19 1 4 3 -2 6 -13 5 -11 0 -14 -3 -6 -6z"/>
</g>
</svg>
