<?xml version="1.0" standalone="no"?>
<!DOCTYPE svg PUBLIC "-//W3C//DTD SVG 20010904//EN"
 "http://www.w3.org/TR/2001/REC-SVG-20010904/DTD/svg10.dtd">
<svg version="1.0" xmlns="http://www.w3.org/2000/svg"
 width="4167.000000pt" height="1447.000000pt" viewBox="0 0 4167.000000 1447.000000"
 preserveAspectRatio="xMidYMid meet">

<g transform="translate(0.000000,1447.000000) scale(0.100000,-0.100000)"
fill="#000000" stroke="none">
<path d="M8910 10316 l0 -65 87 -26 c111 -34 195 -76 216 -109 16 -23 17 -214
17 -2516 l0 -2490 -579 0 -579 0 -32 26 c-39 33 -69 92 -108 214 -30 94 -30
97 -36 380 -10 461 -44 961 -78 1125 -59 289 -190 609 -346 845 -71 106 -236
278 -341 353 -194 140 -538 278 -829 333 -112 21 -562 15 -717 -10 -229 -37
-437 -102 -640 -200 -246 -120 -387 -234 -448 -365 -113 -240 29 -526 297
-597 134 -36 285 3 396 103 42 37 62 69 111 172 142 295 310 476 498 535 249
78 554 73 906 -15 185 -47 445 -246 595 -457 115 -162 210 -386 260 -617 42
-198 98 -804 107 -1170 5 -219 -9 -602 -23 -640 -5 -12 -202 -15 -1387 -17
l-1382 -3 -73 -23 c-164 -50 -298 -145 -355 -250 -39 -71 -248 -604 -243 -618
4 -12 96 -47 103 -40 3 2 18 37 34 78 42 103 76 156 112 179 31 18 68 19 1673
19 l1641 0 23 88 c31 120 32 120 63 73 28 -43 113 -115 147 -126 11 -4 20 -13
20 -21 0 -13 105 -14 798 -12 l797 3 50 27 c98 52 159 137 202 283 17 57 18
207 23 2670 4 1954 2 2628 -7 2682 -20 126 -76 218 -150 249 -25 11 -117 14
-428 14 l-395 0 0 -64z"/>
<path d="M25785 10346 c-80 -18 -130 -42 -489 -236 l-306 -165 0 -67 c0 -38 3
-68 6 -68 3 0 64 32 136 70 159 86 227 110 311 110 77 0 119 -24 151 -85 l21
-40 5 -2565 c4 -1848 8 -2573 16 -2595 55 -150 162 -241 311 -265 32 -6 192
-10 356 -10 l297 0 0 63 0 63 -77 24 c-105 32 -207 84 -229 118 -18 26 -19
120 -24 2752 -5 2531 -6 2727 -22 2756 -26 48 -90 100 -154 124 -74 28 -222
36 -309 16z"/>
<path d="M36923 10145 c-29 -8 -67 -21 -85 -28 -39 -17 -670 -356 -681 -366
-4 -5 -7 -38 -5 -74 l3 -66 120 66 c157 86 223 113 300 120 83 8 141 -18 176
-80 l24 -42 5 -2476 5 -2476 40 -79 c47 -91 109 -148 202 -185 56 -23 70 -24
396 -27 l337 -3 0 64 0 64 -62 17 c-99 27 -221 88 -243 122 -20 29 -20 60 -25
2654 l-5 2625 -25 45 c-30 52 -84 93 -162 120 -69 24 -234 27 -315 5z"/>
<path d="M32628 8423 l-28 -4 0 -382 c0 -533 -18 -2285 -30 -2987 -12 -706
-26 -1054 -45 -1177 -58 -361 -266 -671 -513 -763 -124 -47 -280 -47 -373 0
-61 32 -138 99 -186 163 -99 134 -130 253 -142 557 -6 137 -13 219 -23 247
-88 244 -364 359 -603 249 -79 -36 -169 -125 -207 -205 -27 -57 -32 -80 -36
-167 -5 -123 13 -219 63 -323 91 -190 249 -327 556 -485 178 -91 297 -139 448
-179 108 -28 128 -30 301 -31 119 -1 206 4 245 12 186 41 399 127 526 212 324
219 510 616 603 1290 9 63 19 130 22 148 l5 33 29 -39 c16 -22 49 -57 74 -78
25 -21 46 -46 46 -55 0 -26 114 -29 1225 -29 659 0 1043 -4 1066 -10 87 -24
174 -126 187 -217 l7 -48 61 -3 61 -3 7 1543 c7 1573 5 1715 -30 1918 -47 274
-126 469 -241 590 -95 102 -205 150 -338 150 -174 -1 -329 -99 -406 -256 -32
-65 -34 -74 -34 -179 0 -108 1 -113 37 -186 48 -98 114 -160 243 -228 236
-125 391 -251 453 -368 65 -124 73 -178 82 -578 5 -198 11 -607 13 -910 l5
-550 -1152 -3 -1152 -3 -49 33 c-59 39 -98 109 -114 203 -7 41 -11 462 -12
1281 0 1363 -5 1579 -38 1665 -25 66 -80 124 -130 140 -36 11 -432 21 -483 12z"/>
<path d="M11725 8385 c-282 -40 -524 -131 -704 -265 -249 -186 -450 -522 -533
-892 -21 -93 -23 -127 -22 -348 0 -135 6 -292 13 -349 35 -287 136 -523 319
-741 181 -217 395 -365 647 -449 182 -60 302 -75 580 -68 304 7 512 37 663 98
29 12 55 19 58 17 11 -11 -26 -1022 -47 -1293 -18 -235 -55 -392 -129 -544
-148 -305 -347 -453 -610 -455 -87 -1 -101 2 -164 32 -91 43 -197 149 -250
250 -55 107 -75 216 -85 467 -9 221 -16 255 -66 341 -33 56 -118 132 -182 161
-116 54 -260 53 -378 -1 -78 -36 -168 -125 -208 -205 -31 -65 -32 -68 -32
-206 1 -132 2 -144 32 -223 77 -202 232 -357 508 -509 183 -101 365 -171 545
-210 121 -26 416 -25 555 1 217 40 441 136 577 245 73 58 152 147 215 241 120
178 270 610 344 988 l22 113 26 -24 c48 -44 92 -70 153 -88 56 -18 103 -19
699 -19 376 0 639 4 639 9 0 5 26 17 57 27 124 39 269 165 355 307 22 37 42
67 44 67 2 0 52 -36 110 -79 184 -137 406 -250 625 -320 453 -143 995 -110
1421 87 570 264 957 757 1096 1397 24 110 26 140 26 355 0 203 -3 253 -23 365
-72 403 -241 738 -521 1028 -352 366 -758 568 -1240 618 -138 14 -395 7 -530
-16 -633 -105 -1273 -554 -1535 -1075 -164 -326 -218 -748 -160 -1245 30 -254
116 -585 220 -847 7 -17 -27 -18 -629 -18 l-635 0 -35 30 c-35 32 -77 119
-112 235 -17 56 -18 127 -19 1150 l0 1090 -22 78 c-32 113 -86 208 -167 294
-219 235 -458 331 -966 388 -203 23 -427 27 -545 10z m424 -126 c256 -24 409
-92 490 -217 44 -69 60 -120 87 -282 l24 -144 0 -1063 0 -1062 -52 -17 c-139
-43 -336 -25 -673 61 -441 112 -696 291 -918 643 -105 166 -164 330 -198 547
-19 121 -16 437 5 575 74 491 192 686 523 867 165 90 404 121 712 92z m5266
-233 c293 -100 524 -406 616 -814 20 -89 39 -318 39 -467 0 -592 -190 -1078
-583 -1492 -334 -351 -903 -624 -1303 -624 -374 0 -636 206 -799 631 -74 190
-105 398 -105 700 0 264 33 466 115 716 74 227 194 441 356 641 296 363 731
625 1199 724 66 14 119 18 235 15 132 -2 159 -6 230 -30z"/>
<path d="M22357 8364 c-375 -46 -855 -247 -1043 -439 -38 -39 -75 -89 -95
-131 -32 -65 -34 -74 -34 -179 0 -103 2 -114 32 -178 83 -175 286 -282 471
-248 86 16 159 51 222 108 43 39 63 70 129 207 185 381 345 542 591 593 118
24 363 24 484 0 127 -26 386 -102 462 -137 93 -42 205 -123 280 -202 190 -202
358 -560 433 -927 44 -209 98 -1258 82 -1586 l-6 -130 -190 -6 c-104 -4 -451
-7 -770 -9 -319 -1 -850 -6 -1180 -10 -662 -8 -647 -7 -791 -76 -96 -45 -162
-99 -209 -170 -23 -35 -86 -177 -156 -354 l-117 -295 37 -16 c79 -36 74 -39
116 67 27 69 50 109 80 140 l42 44 644 0 c354 0 1086 3 1626 7 l983 6 20 55
c12 30 32 97 45 148 88 338 97 1085 24 1944 -24 293 -94 546 -228 825 -116
241 -224 396 -388 557 -244 239 -513 357 -912 397 -144 15 -541 12 -684 -5z"/>
<path d="M28269 8366 c-464 -67 -781 -252 -994 -581 -174 -266 -274 -588 -275
-880 0 -173 32 -487 62 -600 62 -234 173 -426 358 -619 201 -210 441 -344 729
-409 84 -19 127 -21 351 -22 332 0 550 27 719 91 35 13 66 24 69 24 6 0 -5
-517 -18 -840 -26 -627 -53 -788 -165 -1015 -118 -237 -274 -380 -465 -426
-76 -18 -215 -16 -269 5 -64 24 -163 98 -211 158 -112 141 -144 265 -158 613
-8 184 -9 193 -39 256 -80 172 -275 273 -463 241 -183 -31 -327 -168 -360
-342 -29 -155 17 -345 122 -497 150 -220 589 -469 968 -550 118 -25 415 -25
550 0 110 21 268 72 375 121 159 73 308 203 410 356 170 256 356 869 395 1305
14 160 15 2784 1 2855 -32 157 -89 268 -196 376 -137 138 -265 218 -437 273
-271 86 -817 141 -1059 107z m436 -127 c216 -22 346 -71 434 -164 69 -73 98
-140 129 -298 l25 -132 4 -1086 4 -1086 -63 -18 c-147 -42 -318 -27 -662 60
-339 85 -532 190 -731 396 -204 212 -329 453 -381 734 -29 156 -27 524 5 700
70 391 159 560 380 719 149 107 266 154 441 176 87 12 297 11 415 -1z"/>
<path d="M22395 4026 c-80 -20 -146 -59 -208 -125 -130 -136 -161 -325 -81
-490 39 -78 127 -164 211 -204 64 -30 74 -32 183 -32 109 0 118 2 180 32 82
40 180 139 218 220 24 53 27 69 27 174 0 113 -1 116 -38 191 -40 82 -116 162
-188 199 -91 46 -205 59 -304 35z"/>
<path d="M34480 4024 c-119 -32 -228 -125 -283 -243 -59 -126 -46 -302 33
-415 87 -128 215 -196 366 -196 176 0 326 97 402 260 38 79 43 219 12 309 -75
222 -304 345 -530 285z"/>
<path d="M35473 4025 c-126 -35 -222 -115 -280 -233 -37 -75 -38 -78 -38 -191
0 -110 2 -119 32 -182 43 -87 147 -187 230 -220 48 -20 77 -23 169 -24 107 0
112 1 186 38 330 163 326 624 -8 784 -87 41 -205 53 -291 28z"/>
</g>
</svg>
