<?xml version="1.0" encoding="UTF-8"?>
<svg width="30px" height="32px" version="1.1" viewBox="0 0 30 31" xmlns="http://www.w3.org/2000/svg">
<path d="m10.477 29.074v-4.7305c0.003907-1.2109 1.0117-2.1914 2.2461-2.1875h4.5391c0.59766 0 1.168 0.23047 1.5898 0.64062 0.42188 0.41016 0.66016 0.96484 0.66016 1.5469v4.7305c-0.003907 0.50391 0.19922 0.98438 0.5625 1.3398 0.36328 0.35938 0.85938 0.55859 1.375 0.55859h3.0938c1.4453 0.003906 2.832-0.55078 3.8594-1.5469 1.0234-0.98828 1.5977-2.3398 1.5977-3.75v-13.477c0-1.1367-0.51953-2.2148-1.4141-2.9414l-10.531-8.1836c-1.8359-1.4375-4.4531-1.3906-6.2344 0.10938l-10.293 8.0742c-0.9375 0.70313-1.5 1.7852-1.5273 2.9414v13.465c0.011719 2.9414 2.4531 5.3203 5.457 5.3086h3.0273c1.0664 0.003906 1.9375-0.83984 1.9492-1.8867z"/>
</svg>
