<?xml version="1.0" encoding="UTF-8"?><svg version="1.1" viewBox="0 0 32 32" xmlns="http://www.w3.org/2000/svg"><g><path d="m7.3008 14.605c-4.043 0-7.3008-3.2578-7.3008-7.3047s3.2539-7.3008 7.3008-7.3008 7.3047 3.2539 7.3047 7.3008-3.2578 7.3047-7.3047 7.3047z"/><path d="m24.699 14.605c-4.0469 0-7.3047-3.2578-7.3047-7.3047s3.2578-7.3008 7.3047-7.3008c4.043 0 7.3008 3.2539 7.3008 7.3008s-3.2578 7.3047-7.3008 7.3047z"/><path d="m7.3008 32c-4.043 0-7.3008-3.2539-7.3008-7.3008s3.2539-7.3047 7.3008-7.3047 7.3047 3.2578 7.3047 7.3047c0 4-3.2578 7.3008-7.3047 7.3008z"/><path d="m24.699 32c-4.0469 0-7.3047-3.2539-7.3047-7.3008s3.2578-7.3047 7.3047-7.3047c4.043 0 7.3008 3.2578 7.3008 7.3047 0 4-3.2578 7.3008-7.3008 7.3008z"/></g></svg>