<?xml version="1.0" encoding="UTF-8"?>
<svg version="1.1" viewBox="0 0 32 32" xmlns="http://www.w3.org/2000/svg">
<path d="m15.656 0.70312-1.832 0.69531-1.832-0.16016c-1.0039-0.089843-1.9141-0.16797-2.0117-0.16797l-0.17578-0.003906-1.1055 1.2422c-0.60938 0.68359-1.2031 1.3477-1.3203 1.4766l-0.21875 0.23828-1.8086 0.74219c-0.99609 0.41016-1.8242 0.75391-1.8359 0.76953-0.023437 0.027344-0.70703 2.75-0.90625 3.6094-0.042969 0.19141-0.15234 0.33594-1.3281 1.7383l-1.2812 1.5312 0.47656 1.9219 0.47266 1.9219-0.41406 1.9375-0.41797 1.9375 0.12891 0.14453c0.074218 0.078125 0.66406 0.74609 1.3203 1.4805l1.1875 1.3359 0.51562 1.8438c0.28516 1.0156 0.51953 1.8633 0.51953 1.8906s0.03125 0.066406 0.070313 0.085937c0.035156 0.019532 0.87891 0.34375 1.8789 0.71875l1.8125 0.68359 0.23438 0.25c0.12891 0.14062 0.73047 0.78516 1.3438 1.4375 0.87109 0.92188 1.1289 1.1758 1.207 1.1758 0.054687 0 0.94922-0.097657 1.9883-0.22656l1.8906-0.23047 1.8594 0.63672c1.0195 0.35547 1.875 0.64062 1.8984 0.64062 0.023438 0 0.77344-0.50391 1.668-1.1172l1.6289-1.1172 1.5-0.22656c1.707-0.25391 2.4258-0.36328 2.4375-0.37891 0.003907-0.007812 0.41797-0.79297 0.91797-1.75l0.91406-1.7383 1.6055-1.168 1.6055-1.1719 0.003906-1.9844v-1.9844l0.87109-1.7773 0.875-1.7812-0.22656-0.42578c-0.12109-0.23438-0.53906-1.0273-0.92578-1.7656l-0.70312-1.3359-0.042969-1.707c-0.023437-0.9375-0.054687-1.832-0.066406-1.9805l-0.019531-0.26953-3.2578-2.2344-0.96875-1.707c-0.52734-0.93359-0.98047-1.7148-1.0039-1.7305-0.019531-0.011719-0.91797-0.13281-1.9922-0.25781l-1.9531-0.24219-1.668-1.0742c-0.91406-0.58984-1.6719-1.0742-1.6758-1.0742-0.003906 0.0039062-0.82812 0.31641-1.8398 0.70312z"/>
</svg>
