<?xml version="1.0" standalone="no"?>
<!DOCTYPE svg PUBLIC "-//W3C//DTD SVG 20010904//EN"
 "http://www.w3.org/TR/2001/REC-SVG-20010904/DTD/svg10.dtd">
<svg version="1.0" xmlns="http://www.w3.org/2000/svg"
 width="553.000000pt" height="451.000000pt" viewBox="0 0 553.000000 451.000000"
 preserveAspectRatio="xMidYMid meet">

<g transform="translate(0.000000,451.000000) scale(0.100000,-0.100000)"
fill="#000000" stroke="none">
<path d="M3320 4220 c-13 -13 -20 -33 -20 -59 0 -32 6 -44 31 -65 34 -29 55
-32 94 -14 34 15 32 23 -7 24 -47 2 -82 46 -75 96 6 44 4 45 -23 18z"/>
<path d="M3315 3995 c-56 -55 -16 -145 63 -145 52 0 82 32 82 87 0 33 -6 46
-26 62 -37 29 -89 27 -119 -4z"/>
<path d="M3288 3797 c-116 -37 -184 -139 -195 -290 -6 -90 16 -771 25 -762 7
7 31 521 32 690 0 150 13 200 63 253 82 88 236 91 319 5 78 -81 72 19 80
-1273 8 -1262 15 -1458 36 -1045 10 184 13 512 10 1235 l-3 985 -28 57 c-62
126 -205 187 -339 145z"/>
<path d="M2456 3048 c-25 -35 -20 -90 9 -118 30 -28 87 -32 111 -9 14 14 12
16 -18 17 -47 1 -81 42 -76 94 4 43 -4 48 -26 16z"/>
<path d="M2495 2843 c-98 -23 -81 -173 20 -173 50 0 85 36 85 88 0 56 -51 98
-105 85z"/>
<path d="M2376 2640 c-303 -48 -549 -206 -713 -457 -106 -162 -152 -308 -160
-508 -8 -199 29 -377 117 -549 22 -44 38 -82 35 -84 -2 -3 -207 82 -454 188
l-449 192 -20 -20 c-12 -12 -60 -33 -108 -48 l-88 -26 130 -53 c71 -28 529
-213 1019 -410 490 -196 931 -374 982 -395 l91 -38 1094 439 c601 241 1102
443 1113 448 16 6 2 14 -68 35 -48 15 -97 36 -108 47 l-21 21 -526 -225 c-764
-327 -1024 -432 -1213 -490 -145 -45 -193 -87 -245 -216 l-23 -56 -15 38 c-9
20 -22 52 -29 69 -35 83 -97 126 -251 173 -94 29 -388 143 -633 246 -144 61
-144 61 -169 110 -68 135 -114 337 -114 501 0 197 55 379 161 537 135 202 329
342 559 403 112 29 319 31 425 4 84 -22 196 -72 262 -117 214 -147 353 -405
353 -656 0 -112 -23 -205 -76 -311 -37 -76 -61 -109 -127 -175 -94 -94 -167
-141 -282 -179 -89 -31 -83 -36 15 -12 243 57 442 249 522 504 33 108 33 319
0 435 -71 245 -238 448 -458 555 -44 22 -116 49 -160 60 -91 24 -278 34 -368
20z"/>
<path d="M206 1364 c-4 -9 -5 -18 -3 -20 3 -3 298 -124 1882 -768 l680 -276
800 325 c440 179 1017 414 1283 522 265 108 482 199 482 202 0 3 -4 13 -9 20
-11 17 120 68 -1471 -579 -569 -232 -1047 -426 -1061 -431 -26 -10 -118 27
-2152 855 -225 91 -412 166 -417 166 -4 0 -11 -7 -14 -16z"/>
</g>
</svg>
