<?xml version="1.0" standalone="no"?>
<!DOCTYPE svg PUBLIC "-//W3C//DTD SVG 20010904//EN"
 "http://www.w3.org/TR/2001/REC-SVG-20010904/DTD/svg10.dtd">
<svg version="1.0" xmlns="http://www.w3.org/2000/svg"
 width="2084.000000pt" height="2084.000000pt" viewBox="0 0 2084.000000 2084.000000"
 preserveAspectRatio="xMidYMid meet">

<g transform="translate(0.000000,2084.000000) scale(0.100000,-0.100000)"
fill="#000000" stroke="none">
<path d="M14500 16310 c0 -43 3 -50 20 -50 20 0 20 -7 20 -300 0 -293 0 -300
-20 -300 -18 0 -20 -7 -20 -85 0 -69 -3 -85 -15 -85 -12 0 -15 -16 -15 -85 0
-69 -3 -85 -15 -85 -11 0 -15 -12 -15 -50 0 -43 -3 -50 -20 -50 -17 0 -20 -7
-20 -50 0 -38 -4 -50 -15 -50 -11 0 -15 -12 -15 -50 0 -43 -3 -50 -20 -50 -16
0 -20 -7 -20 -30 0 -20 -5 -30 -15 -30 -10 0 -15 -11 -15 -35 0 -24 -5 -35
-15 -35 -11 0 -15 -12 -15 -50 0 -43 -3 -50 -20 -50 -16 0 -20 -7 -20 -35 0
-24 -5 -35 -15 -35 -8 0 -15 -7 -15 -15 0 -8 -7 -15 -15 -15 -10 0 -15 -11
-15 -35 0 -28 -4 -35 -20 -35 -16 0 -20 -7 -20 -35 0 -24 -5 -35 -15 -35 -10
0 -15 -10 -15 -30 0 -20 -5 -30 -15 -30 -8 0 -15 -9 -15 -20 0 -13 -7 -20 -20
-20 -16 0 -20 -7 -20 -30 0 -20 -5 -30 -15 -30 -8 0 -15 -9 -15 -20 0 -11 -7
-20 -15 -20 -10 0 -15 -10 -15 -30 0 -23 -4 -30 -20 -30 -13 0 -20 -7 -20 -20
0 -11 -7 -20 -15 -20 -8 0 -15 -7 -15 -15 0 -8 -7 -15 -15 -15 -8 0 -15 -9
-15 -20 0 -13 -7 -20 -20 -20 -16 0 -20 -7 -20 -30 0 -20 -5 -30 -15 -30 -8 0
-15 -9 -15 -20 0 -11 -7 -20 -15 -20 -8 0 -15 -7 -15 -15 0 -8 -9 -15 -20 -15
-11 0 -20 -7 -20 -15 0 -8 -7 -15 -15 -15 -8 0 -15 -9 -15 -20 0 -13 -7 -20
-20 -20 -11 0 -20 -7 -20 -15 0 -8 -7 -15 -15 -15 -8 0 -15 -7 -15 -15 0 -8
-7 -15 -15 -15 -8 0 -15 -9 -15 -20 0 -13 -7 -20 -20 -20 -11 0 -20 -7 -20
-15 0 -8 -7 -15 -15 -15 -8 0 -15 -7 -15 -15 0 -8 -7 -15 -15 -15 -8 0 -15 -9
-15 -20 0 -13 -7 -20 -20 -20 -11 0 -20 -7 -20 -15 0 -8 -7 -15 -15 -15 -8 0
-15 -7 -15 -15 0 -8 -7 -15 -15 -15 -8 0 -15 -9 -15 -20 0 -13 -7 -20 -20 -20
-11 0 -20 -7 -20 -15 0 -8 -7 -15 -15 -15 -8 0 -15 -7 -15 -15 0 -8 -7 -15
-15 -15 -8 0 -15 -9 -15 -20 0 -13 -7 -20 -20 -20 -11 0 -20 -7 -20 -15 0 -8
-7 -15 -15 -15 -8 0 -15 -9 -15 -20 0 -16 -7 -20 -35 -20 -24 0 -35 -5 -35
-15 0 -8 -7 -15 -15 -15 -8 0 -15 -7 -15 -15 0 -8 -9 -15 -20 -15 -13 0 -20
-7 -20 -20 0 -11 -7 -20 -15 -20 -8 0 -15 -7 -15 -15 0 -8 -7 -15 -15 -15 -8
0 -15 -7 -15 -15 0 -8 -9 -15 -20 -15 -13 0 -20 -7 -20 -20 0 -16 -7 -20 -30
-20 -20 0 -30 -5 -30 -15 0 -8 -9 -15 -20 -15 -11 0 -20 -7 -20 -15 0 -8 -7
-15 -15 -15 -8 0 -15 -9 -15 -20 0 -11 -7 -20 -15 -20 -8 0 -15 -7 -15 -15 0
-8 -9 -15 -20 -15 -11 0 -20 -7 -20 -15 0 -8 -7 -15 -15 -15 -8 0 -15 -9 -15
-20 0 -16 -7 -20 -35 -20 -24 0 -35 -5 -35 -15 0 -8 -7 -15 -15 -15 -8 0 -15
-7 -15 -15 0 -8 -7 -15 -15 -15 -8 0 -15 -9 -15 -20 0 -13 -7 -20 -20 -20 -11
0 -20 -7 -20 -15 0 -8 -7 -15 -15 -15 -8 0 -15 -9 -15 -20 0 -11 -7 -20 -15
-20 -8 0 -15 -7 -15 -15 0 -8 -9 -15 -20 -15 -11 0 -20 -7 -20 -15 0 -8 -7
-15 -15 -15 -8 0 -15 -9 -15 -20 0 -13 -7 -20 -20 -20 -11 0 -20 -7 -20 -15 0
-10 -10 -15 -30 -15 -20 0 -30 -5 -30 -15 0 -8 -9 -15 -20 -15 -13 0 -20 -7
-20 -20 0 -11 -7 -20 -15 -20 -8 0 -15 -7 -15 -15 0 -8 -7 -15 -15 -15 -8 0
-15 -7 -15 -15 0 -8 -9 -15 -20 -15 -13 0 -20 -7 -20 -20 0 -11 -7 -20 -15
-20 -8 0 -15 -7 -15 -15 0 -8 -7 -15 -15 -15 -8 0 -15 -7 -15 -15 0 -8 -9 -15
-20 -15 -13 0 -20 -7 -20 -20 0 -11 -7 -20 -15 -20 -8 0 -15 -7 -15 -15 0 -8
-7 -15 -15 -15 -8 0 -15 -7 -15 -15 0 -8 -9 -15 -20 -15 -13 0 -20 -7 -20 -20
0 -11 -7 -20 -15 -20 -8 0 -15 -7 -15 -15 0 -8 -7 -15 -15 -15 -8 0 -15 -7
-15 -15 0 -8 -9 -15 -20 -15 -13 0 -20 -7 -20 -20 0 -11 -7 -20 -15 -20 -8 0
-15 -7 -15 -15 0 -8 -7 -15 -15 -15 -8 0 -15 -9 -15 -20 0 -13 -7 -20 -20 -20
-11 0 -20 -7 -20 -15 0 -8 -7 -15 -15 -15 -8 0 -15 -7 -15 -15 0 -8 -9 -15
-20 -15 -13 0 -20 -7 -20 -20 0 -11 -7 -20 -15 -20 -8 0 -15 -7 -15 -15 0 -8
-7 -15 -15 -15 -8 0 -15 -7 -15 -15 0 -8 -9 -15 -20 -15 -13 0 -20 -7 -20 -20
0 -11 -7 -20 -15 -20 -8 0 -15 -7 -15 -15 0 -8 -7 -15 -15 -15 -8 0 -15 -7
-15 -15 0 -8 -9 -15 -20 -15 -13 0 -20 -7 -20 -20 0 -11 -7 -20 -15 -20 -10 0
-15 -10 -15 -30 0 -20 -5 -30 -15 -30 -8 0 -15 -9 -15 -20 0 -13 -7 -20 -20
-20 -11 0 -20 -7 -20 -15 0 -8 -7 -15 -15 -15 -8 0 -15 -7 -15 -15 0 -8 -7
-15 -15 -15 -8 0 -15 -9 -15 -20 0 -13 -7 -20 -20 -20 -11 0 -20 -7 -20 -15 0
-8 -7 -15 -15 -15 -10 0 -15 -11 -15 -35 0 -24 -5 -35 -15 -35 -8 0 -15 -7
-15 -15 0 -8 -9 -15 -20 -15 -13 0 -20 -7 -20 -20 0 -11 -7 -20 -15 -20 -10 0
-15 -10 -15 -30 0 -23 -4 -30 -20 -30 -13 0 -20 -7 -20 -20 0 -11 -7 -20 -15
-20 -8 0 -15 -7 -15 -15 0 -8 -7 -15 -15 -15 -10 0 -15 -11 -15 -35 0 -28 -4
-35 -20 -35 -11 0 -20 -7 -20 -15 0 -8 -7 -15 -15 -15 -10 0 -15 -11 -15 -35
0 -24 -5 -35 -15 -35 -8 0 -15 -7 -15 -15 0 -8 -9 -15 -20 -15 -16 0 -20 -7
-20 -35 0 -24 -5 -35 -15 -35 -8 0 -15 -7 -15 -15 0 -8 -7 -15 -15 -15 -10 0
-15 -11 -15 -35 0 -28 -4 -35 -20 -35 -16 0 -20 -7 -20 -35 0 -24 -5 -35 -15
-35 -10 0 -15 -10 -15 -30 0 -20 -5 -30 -15 -30 -8 0 -15 -9 -15 -20 0 -13 -7
-20 -20 -20 -16 0 -20 -7 -20 -30 0 -20 -5 -30 -15 -30 -10 0 -15 -11 -15 -35
0 -24 -5 -35 -15 -35 -10 0 -15 -11 -15 -35 0 -28 -4 -35 -20 -35 -17 0 -20
-7 -20 -50 0 -38 -4 -50 -15 -50 -10 0 -15 -10 -15 -30 0 -20 -5 -30 -15 -30
-11 0 -15 -12 -15 -50 0 -43 -3 -50 -20 -50 -16 0 -20 -7 -20 -35 0 -24 -5
-35 -15 -35 -11 0 -15 -12 -15 -50 0 -43 -3 -50 -20 -50 -18 0 -20 -7 -20 -70
0 -56 -3 -70 -15 -70 -12 0 -15 -14 -15 -65 0 -51 -3 -65 -15 -65 -12 0 -15
-18 -15 -100 0 -93 -1 -100 -20 -100 -20 0 -20 -7 -20 -370 0 -363 0 -370 20
-370 19 0 20 -7 20 -100 0 -82 3 -100 15 -100 12 0 15 -16 15 -85 0 -69 3 -85
15 -85 12 0 15 -14 15 -65 0 -58 2 -65 20 -65 18 0 20 -7 20 -70 0 -56 3 -70
15 -70 11 0 15 -12 15 -50 0 -43 3 -50 20 -50 17 0 20 -7 20 -50 0 -38 4 -50
15 -50 11 0 15 -12 15 -50 0 -38 4 -50 15 -50 10 0 15 -10 15 -30 0 -23 4 -30
20 -30 17 0 20 -7 20 -50 0 -38 4 -50 15 -50 10 0 15 -11 15 -35 0 -24 5 -35
15 -35 10 0 15 -11 15 -35 0 -28 4 -35 20 -35 16 0 20 -7 20 -35 0 -24 5 -35
15 -35 11 0 15 -12 15 -50 0 -38 4 -50 15 -50 10 0 15 -10 15 -30 0 -23 4 -30
20 -30 16 0 20 -7 20 -35 0 -24 5 -35 15 -35 10 0 15 -11 15 -35 0 -24 5 -35
15 -35 10 0 15 -10 15 -30 0 -23 4 -30 20 -30 13 0 20 -7 20 -20 0 -11 7 -20
15 -20 10 0 15 -10 15 -30 0 -20 5 -30 15 -30 10 0 15 -11 15 -35 0 -28 4 -35
20 -35 16 0 20 -7 20 -35 0 -24 5 -35 15 -35 10 0 15 -11 15 -35 0 -24 5 -35
15 -35 10 0 15 11 15 35 0 24 -5 35 -15 35 -12 0 -15 18 -15 100 0 82 -3 100
-15 100 -13 0 -15 52 -15 405 0 353 2 405 15 405 12 0 15 18 15 100 0 82 3
100 15 100 12 0 15 14 15 65 0 58 2 65 20 65 18 0 20 7 20 70 0 56 3 70 15 70
11 0 15 12 15 50 0 43 3 50 20 50 17 0 20 7 20 50 0 38 4 50 15 50 10 0 15 10
15 30 0 20 5 30 15 30 11 0 15 12 15 50 0 43 3 50 20 50 16 0 20 7 20 35 0 24
5 35 15 35 10 0 15 11 15 35 0 24 5 35 15 35 10 0 15 11 15 35 0 28 4 35 20
35 16 0 20 7 20 30 0 20 5 30 15 30 10 0 15 11 15 35 0 24 5 35 15 35 10 0 15
11 15 35 0 28 4 35 20 35 16 0 20 7 20 30 0 20 5 30 15 30 8 0 15 9 15 20 0
11 7 20 15 20 10 0 15 10 15 30 0 23 4 30 20 30 16 0 20 7 20 35 0 24 5 35 15
35 8 0 15 7 15 15 0 8 7 15 15 15 10 0 15 11 15 35 0 28 4 35 20 35 13 0 20 7
20 20 0 11 7 20 15 20 10 0 15 10 15 30 0 23 4 30 20 30 13 0 20 7 20 20 0 11
7 20 15 20 10 0 15 10 15 30 0 20 5 30 15 30 8 0 15 9 15 20 0 13 7 20 20 20
16 0 20 7 20 30 0 20 5 30 15 30 8 0 15 9 15 20 0 11 7 20 15 20 8 0 15 7 15
15 0 8 9 15 20 15 16 0 20 7 20 35 0 24 5 35 15 35 8 0 15 7 15 15 0 8 7 15
15 15 8 0 15 7 15 15 0 8 9 15 20 15 16 0 20 7 20 35 0 24 5 35 15 35 8 0 15
7 15 15 0 8 7 15 15 15 8 0 15 9 15 20 0 13 7 20 20 20 11 0 20 7 20 15 0 8 7
15 15 15 10 0 15 11 15 35 0 24 5 35 15 35 8 0 15 7 15 15 0 8 9 15 20 15 13
0 20 7 20 20 0 11 7 20 15 20 8 0 15 7 15 15 0 8 7 15 15 15 10 0 15 11 15 35
0 28 4 35 20 35 11 0 20 7 20 15 0 8 7 15 15 15 8 0 15 7 15 15 0 8 9 15 20
15 13 0 20 7 20 20 0 11 7 20 15 20 8 0 15 7 15 15 0 8 7 15 15 15 8 0 15 7
15 15 0 8 9 15 20 15 16 0 20 7 20 35 0 24 5 35 15 35 8 0 15 7 15 15 0 8 7
15 15 15 8 0 15 9 15 20 0 13 7 20 20 20 11 0 20 7 20 15 0 8 7 15 15 15 8 0
15 7 15 15 0 8 7 15 15 15 8 0 15 9 15 20 0 13 7 20 20 20 11 0 20 7 20 15 0
8 7 15 15 15 8 0 15 9 15 20 0 11 7 20 15 20 8 0 15 7 15 15 0 8 9 15 20 15
11 0 20 7 20 15 0 8 7 15 15 15 8 0 15 9 15 20 0 11 7 20 15 20 8 0 15 7 15
15 0 8 9 15 20 15 11 0 20 7 20 15 0 8 7 15 15 15 8 0 15 9 15 20 0 11 7 20
15 20 8 0 15 7 15 15 0 8 9 15 20 15 11 0 20 7 20 15 0 8 7 15 15 15 8 0 15 9
15 20 0 13 7 20 20 20 11 0 20 7 20 15 0 8 7 15 15 15 8 0 15 7 15 15 0 8 7
15 15 15 8 0 15 9 15 20 0 13 7 20 20 20 11 0 20 7 20 15 0 8 7 15 15 15 8 0
15 7 15 15 0 8 7 15 15 15 8 0 15 9 15 20 0 13 7 20 20 20 11 0 20 7 20 15 0
8 7 15 15 15 8 0 15 9 15 20 0 11 7 20 15 20 8 0 15 7 15 15 0 8 9 15 20 15
11 0 20 7 20 15 0 8 7 15 15 15 8 0 15 9 15 20 0 11 7 20 15 20 8 0 15 7 15
15 0 8 9 15 20 15 11 0 20 7 20 15 0 8 7 15 15 15 8 0 15 9 15 20 0 11 7 20
15 20 8 0 15 7 15 15 0 8 9 15 20 15 11 0 20 7 20 15 0 8 7 15 15 15 8 0 15 9
15 20 0 13 7 20 20 20 11 0 20 7 20 15 0 8 7 15 15 15 8 0 15 7 15 15 0 8 7
15 15 15 8 0 15 9 15 20 0 13 7 20 20 20 11 0 20 7 20 15 0 10 10 15 30 15 28
0 30 3 30 35 0 28 4 35 20 35 11 0 20 7 20 15 0 8 7 15 15 15 8 0 15 7 15 15
0 8 7 15 15 15 8 0 15 9 15 20 0 13 7 20 20 20 11 0 20 7 20 15 0 8 7 15 15
15 8 0 15 9 15 20 0 11 7 20 15 20 8 0 15 7 15 15 0 8 9 15 20 15 11 0 20 7
20 15 0 8 7 15 15 15 8 0 15 9 15 20 0 11 7 20 15 20 8 0 15 7 15 15 0 8 9 15
20 15 11 0 20 7 20 15 0 8 7 15 15 15 8 0 15 9 15 20 0 11 7 20 15 20 10 0 15
10 15 30 0 23 4 30 20 30 13 0 20 7 20 20 0 11 7 20 15 20 8 0 15 7 15 15 0 8
9 15 20 15 11 0 20 7 20 15 0 8 7 15 15 15 8 0 15 9 15 20 0 11 7 20 15 20 10
0 15 10 15 30 0 23 4 30 20 30 13 0 20 7 20 20 0 11 7 20 15 20 8 0 15 7 15
15 0 8 7 15 15 15 10 0 15 11 15 35 0 28 4 35 20 35 11 0 20 7 20 15 0 8 7 15
15 15 8 0 15 9 15 20 0 11 7 20 15 20 10 0 15 10 15 30 0 23 4 30 20 30 13 0
20 7 20 20 0 11 7 20 15 20 10 0 15 10 15 30 0 20 5 30 15 30 10 0 15 11 15
35 0 28 4 35 20 35 11 0 20 7 20 15 0 8 7 15 15 15 10 0 15 11 15 35 0 24 5
35 15 35 10 0 15 11 15 35 0 28 4 35 20 35 16 0 20 7 20 30 0 20 5 30 15 30
10 0 15 11 15 35 0 24 5 35 15 35 10 0 15 11 15 35 0 28 4 35 20 35 16 0 20 7
20 35 0 24 5 35 15 35 11 0 15 12 15 50 0 43 3 50 20 50 16 0 20 7 20 30 0 20
5 30 15 30 11 0 15 12 15 50 0 38 4 50 15 50 12 0 15 14 15 70 0 63 2 70 20
70 18 0 20 7 20 65 0 51 3 65 15 65 12 0 15 16 15 85 0 69 3 85 15 85 13 0 15
40 15 300 0 260 -2 300 -15 300 -12 0 -15 14 -15 70 0 56 -3 70 -15 70 -12 0
-15 14 -15 65 0 58 -2 65 -20 65 -17 0 -20 7 -20 50 0 38 -4 50 -15 50 -10 0
-15 11 -15 35 0 24 -5 35 -15 35 -10 0 -15 11 -15 35 0 28 -4 35 -20 35 -16 0
-20 7 -20 30 0 20 -5 30 -15 30 -10 0 -15 11 -15 35 0 28 -4 35 -20 35 -16 0
-20 7 -20 35 0 24 -5 35 -15 35 -10 0 -15 10 -15 30 0 20 -5 30 -15 30 -8 0
-15 9 -15 20 0 13 -7 20 -20 20 -16 0 -20 7 -20 30 0 20 -5 30 -15 30 -8 0
-15 9 -15 20 0 11 -7 20 -15 20 -8 0 -15 7 -15 15 0 8 -9 15 -20 15 -16 0 -20
7 -20 35 0 24 -5 35 -15 35 -8 0 -15 7 -15 15 0 8 -7 15 -15 15 -8 0 -15 7
-15 15 0 8 -9 15 -20 15 -16 0 -20 7 -20 35 0 24 -5 35 -15 35 -8 0 -15 9 -15
20 0 11 -7 20 -15 20 -8 0 -15 7 -15 15 0 8 -9 15 -20 15 -11 0 -20 7 -20 15
0 8 -7 15 -15 15 -8 0 -15 9 -15 20 0 11 -7 20 -15 20 -10 0 -15 10 -15 30 0
23 -4 30 -20 30 -17 0 -20 -7 -20 -50z"/>
<path d="M11820 15405 c0 -10 -11 -15 -35 -15 -24 0 -35 -5 -35 -15 0 -8 -7
-15 -15 -15 -8 0 -15 -9 -15 -20 0 -11 -7 -20 -15 -20 -8 0 -15 -7 -15 -15 0
-10 -11 -15 -35 -15 -24 0 -35 -5 -35 -15 0 -8 -7 -15 -15 -15 -8 0 -15 -9
-15 -20 0 -16 -7 -20 -35 -20 -24 0 -35 -5 -35 -15 0 -8 -7 -15 -15 -15 -8 0
-15 -7 -15 -15 0 -8 -9 -15 -20 -15 -13 0 -20 -7 -20 -20 0 -16 -7 -20 -30
-20 -20 0 -30 -5 -30 -15 0 -8 -9 -15 -20 -15 -11 0 -20 -7 -20 -15 0 -8 -7
-15 -15 -15 -8 0 -15 -9 -15 -20 0 -11 -7 -20 -15 -20 -8 0 -15 -7 -15 -15 0
-10 -11 -15 -35 -15 -24 0 -35 -5 -35 -15 0 -8 -9 -15 -20 -15 -13 0 -20 -7
-20 -20 0 -11 -7 -20 -15 -20 -8 0 -15 -7 -15 -15 0 -8 -7 -15 -15 -15 -8 0
-15 -9 -15 -20 0 -13 -7 -20 -20 -20 -11 0 -20 -7 -20 -15 0 -8 -7 -15 -15
-15 -8 0 -15 -7 -15 -15 0 -10 -11 -15 -35 -15 -28 0 -35 -4 -35 -20 0 -11 -7
-20 -15 -20 -8 0 -15 -7 -15 -15 0 -8 -7 -15 -15 -15 -8 0 -15 -7 -15 -15 0
-8 -9 -15 -20 -15 -13 0 -20 -7 -20 -20 0 -11 -7 -20 -15 -20 -8 0 -15 -7 -15
-15 0 -8 -7 -15 -15 -15 -8 0 -15 -7 -15 -15 0 -8 -9 -15 -20 -15 -13 0 -20
-7 -20 -20 0 -11 -7 -20 -15 -20 -8 0 -15 -7 -15 -15 0 -8 -7 -15 -15 -15 -8
0 -15 -7 -15 -15 0 -8 -9 -15 -20 -15 -13 0 -20 -7 -20 -20 0 -11 -7 -20 -15
-20 -8 0 -15 -7 -15 -15 0 -8 -7 -15 -15 -15 -8 0 -15 -7 -15 -15 0 -8 -9 -15
-20 -15 -13 0 -20 -7 -20 -20 0 -11 -7 -20 -15 -20 -8 0 -15 -7 -15 -15 0 -8
-9 -15 -20 -15 -11 0 -20 -7 -20 -15 0 -8 -7 -15 -15 -15 -10 0 -15 -11 -15
-35 0 -24 -5 -35 -15 -35 -8 0 -15 -9 -15 -20 0 -13 -7 -20 -20 -20 -11 0 -20
-7 -20 -15 0 -8 -7 -15 -15 -15 -8 0 -15 -7 -15 -15 0 -8 -7 -15 -15 -15 -8 0
-15 -9 -15 -20 0 -13 -7 -20 -20 -20 -11 0 -20 -7 -20 -15 0 -8 -7 -15 -15
-15 -10 0 -15 -11 -15 -35 0 -24 -5 -35 -15 -35 -8 0 -15 -7 -15 -15 0 -8 -9
-15 -20 -15 -11 0 -20 -7 -20 -15 0 -8 -7 -15 -15 -15 -10 0 -15 -11 -15 -35
0 -24 -5 -35 -15 -35 -8 0 -15 -7 -15 -15 0 -8 -9 -15 -20 -15 -13 0 -20 -7
-20 -20 0 -11 -7 -20 -15 -20 -10 0 -15 -10 -15 -30 0 -20 -5 -30 -15 -30 -8
0 -15 -9 -15 -20 0 -13 -7 -20 -20 -20 -11 0 -20 -7 -20 -15 0 -8 -7 -15 -15
-15 -10 0 -15 -11 -15 -35 0 -24 -5 -35 -15 -35 -8 0 -15 -7 -15 -15 0 -8 -9
-15 -20 -15 -16 0 -20 -7 -20 -35 0 -24 -5 -35 -15 -35 -8 0 -15 -7 -15 -15 0
-8 -9 -15 -20 -15 -16 0 -20 -7 -20 -35 0 -24 -5 -35 -15 -35 -8 0 -15 -7 -15
-15 0 -8 -7 -15 -15 -15 -10 0 -15 -11 -15 -35 0 -28 -4 -35 -20 -35 -11 0
-20 -7 -20 -15 0 -8 -7 -15 -15 -15 -10 0 -15 -11 -15 -35 0 -24 -5 -35 -15
-35 -8 0 -15 -7 -15 -15 0 -8 -9 -15 -20 -15 -16 0 -20 -7 -20 -35 0 -24 -5
-35 -15 -35 -10 0 -15 -11 -15 -35 0 -24 -5 -35 -15 -35 -10 0 -15 -11 -15
-35 0 -28 -4 -35 -20 -35 -16 0 -20 -7 -20 -30 0 -20 -5 -30 -15 -30 -10 0
-15 -11 -15 -35 0 -24 -5 -35 -15 -35 -11 0 -15 -12 -15 -50 0 -43 -3 -50 -20
-50 -16 0 -20 -7 -20 -35 0 -24 -5 -35 -15 -35 -12 0 -15 -14 -15 -65 0 -51
-3 -65 -15 -65 -12 0 -15 -14 -15 -65 0 -58 -2 -65 -20 -65 -18 0 -20 -7 -20
-70 0 -56 -3 -70 -15 -70 -8 0 -15 7 -15 15 0 8 -9 15 -20 15 -16 0 -20 7 -20
35 0 24 -5 35 -15 35 -8 0 -15 9 -15 20 0 11 -7 20 -15 20 -8 0 -15 7 -15 15
0 8 -9 15 -20 15 -11 0 -20 7 -20 15 0 8 -7 15 -15 15 -10 0 -15 11 -15 35 0
24 -5 35 -15 35 -8 0 -15 7 -15 15 0 8 -9 15 -20 15 -13 0 -20 7 -20 20 0 11
-7 20 -15 20 -8 0 -15 7 -15 15 0 8 -7 15 -15 15 -10 0 -15 11 -15 35 0 28 -4
35 -20 35 -11 0 -20 7 -20 15 0 8 -7 15 -15 15 -8 0 -15 7 -15 15 0 8 -7 15
-15 15 -8 0 -15 9 -15 20 0 13 -7 20 -20 20 -11 0 -20 7 -20 15 0 8 -7 15 -15
15 -8 0 -15 7 -15 15 0 8 -7 15 -15 15 -8 0 -15 9 -15 20 0 13 -7 20 -20 20
-11 0 -20 7 -20 15 0 8 -7 15 -15 15 -8 0 -15 7 -15 15 0 8 -7 15 -15 15 -8 0
-15 9 -15 20 0 16 -7 20 -35 20 -24 0 -35 5 -35 15 0 8 -9 15 -20 15 -13 0
-20 7 -20 20 0 11 -7 20 -15 20 -8 0 -15 7 -15 15 0 8 -7 15 -15 15 -8 0 -15
7 -15 15 0 8 -9 15 -20 15 -13 0 -20 7 -20 20 0 11 -7 20 -15 20 -8 0 -15 7
-15 15 0 10 -11 15 -35 15 -24 0 -35 5 -35 15 0 8 -7 15 -15 15 -8 0 -15 9
-15 20 0 11 -7 20 -15 20 -8 0 -15 7 -15 15 0 10 -11 15 -35 15 -24 0 -35 5
-35 15 0 8 -7 15 -15 15 -8 0 -15 9 -15 20 0 16 -7 20 -35 20 -24 0 -35 5 -35
15 0 8 -7 15 -15 15 -8 0 -15 7 -15 15 0 10 -11 15 -35 15 -28 0 -35 4 -35 20
0 16 -7 20 -35 20 -24 0 -35 5 -35 15 0 10 -11 15 -35 15 -24 0 -35 5 -35 15
0 10 -10 15 -30 15 -23 0 -30 4 -30 20 0 16 -7 20 -35 20 -24 0 -35 5 -35 15
0 11 -12 15 -50 15 -43 0 -50 3 -50 20 0 17 -7 20 -50 20 -38 0 -50 4 -50 15
0 12 -18 15 -100 15 -82 0 -100 3 -100 15 0 13 -31 15 -220 15 -189 0 -220 -2
-220 -15 0 -12 -16 -15 -80 -15 -64 0 -80 -3 -80 -15 0 -12 -14 -15 -70 -15
-63 0 -70 -2 -70 -20 0 -16 -7 -20 -35 -20 -24 0 -35 -5 -35 -15 0 -10 -10
-15 -30 -15 -23 0 -30 -4 -30 -20 0 -16 -7 -20 -35 -20 -24 0 -35 -5 -35 -15
0 -10 -11 -15 -35 -15 -24 0 -35 -5 -35 -15 0 -8 -7 -15 -15 -15 -8 0 -15 -9
-15 -20 0 -16 -7 -20 -35 -20 -24 0 -35 -5 -35 -15 0 -8 -7 -15 -15 -15 -8 0
-15 -7 -15 -15 0 -8 -7 -15 -15 -15 -8 0 -15 -9 -15 -20 0 -13 -7 -20 -20 -20
-11 0 -20 -7 -20 -15 0 -8 -7 -15 -15 -15 -8 0 -15 -7 -15 -15 0 -10 -11 -15
-35 -15 -28 0 -35 -4 -35 -20 0 -11 -7 -20 -15 -20 -8 0 -15 -7 -15 -15 0 -8
-9 -15 -20 -15 -11 0 -20 -7 -20 -15 0 -8 -7 -15 -15 -15 -8 0 -15 -9 -15 -20
0 -11 -7 -20 -15 -20 -8 0 -15 -7 -15 -15 0 -8 -9 -15 -20 -15 -11 0 -20 -7
-20 -15 0 -8 -7 -15 -15 -15 -8 0 -15 -9 -15 -20 0 -11 -7 -20 -15 -20 -8 0
-15 -7 -15 -15 0 -8 -9 -15 -20 -15 -13 0 -20 -7 -20 -20 0 -11 -7 -20 -15
-20 -8 0 -15 -7 -15 -15 0 -8 -7 -15 -15 -15 -8 0 -15 -7 -15 -15 0 -10 10
-15 30 -15 20 0 30 5 30 15 0 13 24 15 155 15 131 0 155 -2 155 -15 0 -12 14
-15 65 -15 58 0 65 -2 65 -20 0 -17 7 -20 50 -20 38 0 50 -4 50 -15 0 -11 12
-15 50 -15 38 0 50 -4 50 -15 0 -10 11 -15 35 -15 28 0 35 -4 35 -20 0 -16 7
-20 30 -20 20 0 30 -5 30 -15 0 -10 11 -15 35 -15 24 0 35 -5 35 -15 0 -8 7
-15 15 -15 8 0 15 -9 15 -20 0 -16 7 -20 35 -20 24 0 35 -5 35 -15 0 -10 11
-15 35 -15 24 0 35 -5 35 -15 0 -8 7 -15 15 -15 8 0 15 -9 15 -20 0 -16 7 -20
35 -20 24 0 35 -5 35 -15 0 -8 7 -15 15 -15 8 0 15 -7 15 -15 0 -8 9 -15 20
-15 13 0 20 -7 20 -20 0 -16 7 -20 30 -20 20 0 30 -5 30 -15 0 -8 9 -15 20
-15 11 0 20 -7 20 -15 0 -8 7 -15 15 -15 8 0 15 -9 15 -20 0 -11 7 -20 15 -20
8 0 15 -7 15 -15 0 -8 9 -15 20 -15 13 0 20 -7 20 -20 0 -16 7 -20 30 -20 20
0 30 -5 30 -15 0 -8 9 -15 20 -15 11 0 20 -7 20 -15 0 -8 7 -15 15 -15 8 0 15
-9 15 -20 0 -11 7 -20 15 -20 8 0 15 -7 15 -15 0 -8 9 -15 20 -15 11 0 20 -7
20 -15 0 -8 7 -15 15 -15 8 0 15 -9 15 -20 0 -13 7 -20 20 -20 11 0 20 -7 20
-15 0 -8 7 -15 15 -15 8 0 15 -7 15 -15 0 -8 7 -15 15 -15 8 0 15 -9 15 -20 0
-13 7 -20 20 -20 11 0 20 -7 20 -15 0 -8 7 -15 15 -15 8 0 15 -7 15 -15 0 -8
7 -15 15 -15 8 0 15 -9 15 -20 0 -13 7 -20 20 -20 11 0 20 -7 20 -15 0 -8 7
-15 15 -15 8 0 15 -7 15 -15 0 -8 7 -15 15 -15 8 0 15 -9 15 -20 0 -13 7 -20
20 -20 11 0 20 -7 20 -15 0 -8 7 -15 15 -15 8 0 15 -7 15 -15 0 -8 7 -15 15
-15 10 0 15 -11 15 -35 0 -28 4 -35 20 -35 13 0 20 -7 20 -20 0 -11 7 -20 15
-20 8 0 15 -7 15 -15 0 -8 7 -15 15 -15 8 0 15 -7 15 -15 0 -8 9 -15 20 -15
13 0 20 -7 20 -20 0 -11 7 -20 15 -20 8 0 15 -7 15 -15 0 -8 9 -15 20 -15 16
0 20 -7 20 -35 0 -24 5 -35 15 -35 8 0 15 -7 15 -15 0 -8 7 -15 15 -15 8 0 15
-7 15 -15 0 -8 9 -15 20 -15 13 0 20 -7 20 -20 0 -11 7 -20 15 -20 10 0 15
-10 15 -30 0 -20 5 -30 15 -30 8 0 15 -9 15 -20 0 -13 7 -20 20 -20 11 0 20
-7 20 -15 0 -8 7 -15 15 -15 8 0 15 -7 15 -15 0 -8 7 -15 15 -15 10 0 15 -11
15 -35 0 -28 4 -35 20 -35 13 0 20 -7 20 -20 0 -11 7 -20 15 -20 8 0 15 -7 15
-15 0 -8 7 -15 15 -15 10 0 15 -11 15 -35 0 -28 4 -35 20 -35 11 0 20 -7 20
-15 0 -8 7 -15 15 -15 8 0 15 -7 15 -15 0 -8 7 -15 15 -15 10 0 15 -11 15 -35
0 -28 4 -35 20 -35 11 0 20 -7 20 -15 0 -8 7 -15 15 -15 8 0 15 -9 15 -20 0
-11 7 -20 15 -20 10 0 15 -10 15 -30 0 -23 4 -30 20 -30 13 0 20 -7 20 -20 0
-11 7 -20 15 -20 10 0 15 -10 15 -30 0 -23 4 -30 20 -30 13 0 20 -7 20 -20 0
-11 7 -20 15 -20 8 0 15 -7 15 -15 0 -8 7 -15 15 -15 10 0 15 -11 15 -35 0
-28 4 -35 20 -35 11 0 20 -7 20 -15 0 -8 7 -15 15 -15 10 0 15 -11 15 -35 0
-24 5 -35 15 -35 8 0 15 -7 15 -15 0 -8 9 -15 20 -15 16 0 20 -7 20 -35 0 -24
5 -35 15 -35 8 0 15 -7 15 -15 0 -8 7 -15 15 -15 10 0 15 -11 15 -35 0 -28 4
-35 20 -35 11 0 20 -7 20 -15 0 -8 7 -15 15 -15 10 0 15 -11 15 -35 0 -24 5
-35 15 -35 8 0 15 -7 15 -15 0 -8 9 -15 20 -15 16 0 20 -7 20 -35 0 -24 5 -35
15 -35 8 0 15 -7 15 -15 0 -8 7 -15 15 -15 10 0 15 -11 15 -35 0 -28 4 -35 20
-35 16 0 20 -7 20 -35 0 -24 5 -35 15 -35 8 0 15 -7 15 -15 0 -8 7 -15 15 -15
10 0 15 -11 15 -35 0 -28 4 -35 20 -35 11 0 20 -7 20 -15 0 -8 7 -15 15 -15
10 0 15 -11 15 -35 0 -28 4 -35 20 -35 16 0 20 -7 20 -35 0 -24 5 -35 15 -35
8 0 15 -7 15 -15 0 -8 7 -15 15 -15 10 0 15 -11 15 -35 0 -28 4 -35 20 -35 11
0 20 -7 20 -15 0 -8 7 -15 15 -15 10 0 15 -11 15 -35 0 -24 5 -35 15 -35 10 0
15 -10 15 -30 0 -23 4 -30 20 -30 13 0 20 -7 20 -20 0 -11 7 -20 15 -20 10 0
15 -11 15 -35 0 -24 5 -35 15 -35 10 0 15 -10 15 -30 0 -23 4 -30 20 -30 13 0
20 -7 20 -20 0 -11 7 -20 15 -20 10 0 15 -10 15 -30 0 -20 5 -30 15 -30 10 0
15 -11 15 -35 0 -28 4 -35 20 -35 16 0 20 -7 20 -35 0 -24 5 -35 15 -35 11 0
15 12 15 50 0 38 -4 50 -15 50 -12 0 -15 18 -15 100 0 93 -1 100 -20 100 -19
0 -20 7 -20 135 0 113 -2 135 -15 135 -13 0 -15 44 -15 335 0 291 2 335 15
335 13 0 15 20 15 120 0 113 1 120 20 120 18 0 20 7 20 85 0 69 3 85 15 85 12
0 15 14 15 65 0 51 3 65 15 65 12 0 15 14 15 65 0 58 2 65 20 65 17 0 20 7 20
50 0 38 4 50 15 50 11 0 15 12 15 50 0 43 3 50 20 50 17 0 20 7 20 50 0 38 4
50 15 50 10 0 15 11 15 35 0 24 5 35 15 35 11 0 15 12 15 50 0 43 3 50 20 50
16 0 20 7 20 35 0 24 5 35 15 35 10 0 15 11 15 35 0 24 5 35 15 35 10 0 15 10
15 30 0 23 4 30 20 30 16 0 20 7 20 35 0 24 5 35 15 35 10 0 15 11 15 35 0 24
5 35 15 35 10 0 15 10 15 30 0 23 4 30 20 30 16 0 20 7 20 35 0 24 5 35 15 35
10 0 15 11 15 35 0 24 5 35 15 35 10 0 15 11 15 35 0 28 4 35 20 35 11 0 20 7
20 15 0 8 7 15 15 15 10 0 15 11 15 35 0 24 5 35 15 35 10 0 15 10 15 30 0 23
4 30 20 30 13 0 20 7 20 20 0 11 7 20 15 20 10 0 15 10 15 30 0 20 5 30 15 30
8 0 15 9 15 20 0 13 7 20 20 20 11 0 20 7 20 15 0 8 7 15 15 15 10 0 15 11 15
35 0 28 4 35 20 35 11 0 20 7 20 15 0 8 7 15 15 15 10 0 15 11 15 35 0 24 5
35 15 35 8 0 15 7 15 15 0 8 9 15 20 15 13 0 20 7 20 20 0 11 7 20 15 20 8 0
15 7 15 15 0 8 7 15 15 15 10 0 15 11 15 35 0 28 4 35 20 35 11 0 20 7 20 15
0 8 7 15 15 15 8 0 15 7 15 15 0 8 7 15 15 15 8 0 15 9 15 20 0 13 7 20 20 20
16 0 20 7 20 30 0 20 5 30 15 30 8 0 15 9 15 20 0 11 7 20 15 20 8 0 15 7 15
15 0 8 9 15 20 15 11 0 20 7 20 15 0 8 7 15 15 15 8 0 15 9 15 20 0 11 7 20
15 20 8 0 15 7 15 15 0 8 9 15 20 15 11 0 20 7 20 15 0 8 7 15 15 15 8 0 15 9
15 20 0 11 7 20 15 20 8 0 15 7 15 15 0 8 9 15 20 15 11 0 20 7 20 15 0 8 7
15 15 15 8 0 15 9 15 20 0 13 7 20 20 20 16 0 20 7 20 35 0 24 5 35 15 35 8 0
15 7 15 15 0 8 7 15 15 15 8 0 15 7 15 15 0 8 9 15 20 15 13 0 20 7 20 20 0
11 7 20 15 20 8 0 15 7 15 15 0 8 7 15 15 15 8 0 15 7 15 15 0 8 9 15 20 15
13 0 20 7 20 20 0 11 7 20 15 20 8 0 15 7 15 15 0 10 11 15 35 15 24 0 35 5
35 15 0 8 7 15 15 15 8 0 15 9 15 20 0 11 7 20 15 20 8 0 15 7 15 15 0 8 9 15
20 15 11 0 20 7 20 15 0 8 7 15 15 15 8 0 15 9 15 20 0 11 7 20 15 20 8 0 15
7 15 15 0 8 9 15 20 15 11 0 20 7 20 15 0 8 7 15 15 15 8 0 15 9 15 20 0 13 7
20 20 20 11 0 20 7 20 15 0 8 7 15 15 15 13 0 15 109 15 920 l0 920 -35 0
c-24 0 -35 -5 -35 -15z"/>
<path d="M14170 6730 c0 -18 -7 -20 -70 -20 -56 0 -70 -3 -70 -15 0 -11 -12
-15 -50 -15 -38 0 -50 -4 -50 -15 0 -12 -16 -15 -80 -15 -73 0 -80 -2 -80 -20
0 -16 -7 -20 -35 -20 -24 0 -35 -5 -35 -15 0 -12 -14 -15 -70 -15 -63 0 -70
-2 -70 -20 0 -16 -7 -20 -30 -20 -20 0 -30 -5 -30 -15 0 -10 -11 -15 -35 -15
-24 0 -35 -5 -35 -15 0 -12 -14 -15 -65 -15 -58 0 -65 -2 -65 -20 0 -13 -7
-20 -20 -20 -11 0 -20 -7 -20 -15 0 -12 -14 -15 -65 -15 -51 0 -65 -3 -65 -15
0 -8 -9 -15 -20 -15 -13 0 -20 -7 -20 -20 0 -16 -7 -20 -30 -20 -20 0 -30 -5
-30 -15 0 -8 -9 -15 -20 -15 -16 0 -20 -7 -20 -35 0 -32 -2 -35 -30 -35 -27 0
-30 -3 -30 -30 0 -23 -4 -30 -20 -30 -16 0 -20 -7 -20 -35 0 -24 -5 -35 -15
-35 -10 0 -15 -11 -15 -35 0 -24 -5 -35 -15 -35 -12 0 -15 -19 -15 -115 0 -96
3 -115 15 -115 8 0 15 -9 15 -20 0 -11 7 -20 15 -20 8 0 15 -7 15 -15 0 -8 9
-15 20 -15 16 0 20 -7 20 -35 0 -24 5 -35 15 -35 8 0 15 -7 15 -15 0 -8 7 -15
15 -15 10 0 15 -11 15 -35 0 -28 4 -35 20 -35 11 0 20 -7 20 -15 0 -8 7 -15
15 -15 10 0 15 -11 15 -35 0 -24 5 -35 15 -35 8 0 15 -7 15 -15 0 -8 9 -15 20
-15 11 0 20 -7 20 -15 0 -8 7 -15 15 -15 8 0 15 -9 15 -20 0 -13 7 -20 20 -20
11 0 20 -7 20 -15 0 -8 7 -15 15 -15 8 0 15 -9 15 -20 0 -11 7 -20 15 -20 10
0 15 -10 15 -30 0 -28 3 -30 35 -30 28 0 35 -4 35 -20 0 -11 7 -20 15 -20 8 0
15 -7 15 -15 0 -8 9 -15 20 -15 11 0 20 -7 20 -15 0 -8 7 -15 15 -15 8 0 15
-9 15 -20 0 -11 7 -20 15 -20 8 0 15 -7 15 -15 0 -8 9 -15 20 -15 11 0 20 -7
20 -15 0 -8 7 -15 15 -15 8 0 15 -9 15 -20 0 -16 7 -20 35 -20 24 0 35 -5 35
-15 0 -8 7 -15 15 -15 8 0 15 -7 15 -15 0 -8 7 -15 15 -15 8 0 15 -9 15 -20 0
-13 7 -20 20 -20 11 0 20 -7 20 -15 0 -10 11 -15 35 -15 24 0 35 -5 35 -15 0
-8 7 -15 15 -15 8 0 15 -9 15 -20 0 -11 7 -20 15 -20 8 0 15 -7 15 -15 0 -8 9
-15 20 -15 11 0 20 -7 20 -15 0 -8 7 -15 15 -15 8 0 15 -9 15 -20 0 -11 7 -20
15 -20 8 0 15 -7 15 -15 0 -8 9 -15 20 -15 13 0 20 -7 20 -20 0 -11 7 -20 15
-20 8 0 15 -7 15 -15 0 -8 7 -15 15 -15 10 0 15 -11 15 -35 0 -28 4 -35 20
-35 18 0 20 -7 20 -80 0 -73 -2 -80 -20 -80 -13 0 -20 -7 -20 -20 0 -16 -7
-20 -30 -20 -20 0 -30 -5 -30 -15 0 -11 -12 -15 -50 -15 -38 0 -50 -4 -50 -15
0 -8 -9 -15 -20 -15 -13 0 -20 -7 -20 -20 0 -18 -7 -20 -85 -20 -69 0 -85 -3
-85 -15 0 -11 -12 -15 -50 -15 -38 0 -50 -4 -50 -15 0 -12 -18 -15 -100 -15
-93 0 -100 -1 -100 -20 0 -11 -7 -20 -15 -20 -8 0 -15 -7 -15 -15 0 -11 -12
-15 -50 -15 -38 0 -50 -4 -50 -15 0 -11 -12 -15 -50 -15 -43 0 -50 -3 -50 -20
0 -13 -7 -20 -20 -20 -11 0 -20 -7 -20 -15 0 -11 -12 -15 -50 -15 -43 0 -50
-3 -50 -20 0 -11 -7 -20 -15 -20 -8 0 -15 -7 -15 -15 0 -10 -11 -15 -35 -15
-24 0 -35 -5 -35 -15 0 -8 -7 -15 -15 -15 -8 0 -15 -9 -15 -20 0 -11 -7 -20
-15 -20 -8 0 -15 -7 -15 -15 0 -10 -11 -15 -35 -15 -24 0 -35 -5 -35 -15 0 -8
-7 -15 -15 -15 -8 0 -15 -9 -15 -20 0 -13 -7 -20 -20 -20 -11 0 -20 -7 -20
-15 0 -10 -10 -15 -30 -15 -20 0 -30 -5 -30 -15 0 -8 -9 -15 -20 -15 -13 0
-20 -7 -20 -20 0 -11 -7 -20 -15 -20 -8 0 -15 -7 -15 -15 0 -8 -7 -15 -15 -15
-8 0 -15 -7 -15 -15 0 -10 -11 -15 -35 -15 -28 0 -35 -4 -35 -20 0 -13 -7 -20
-20 -20 -11 0 -20 -7 -20 -15 0 -8 -7 -15 -15 -15 -8 0 -15 -7 -15 -15 0 -10
-11 -15 -35 -15 -28 0 -35 -4 -35 -20 0 -16 -7 -20 -30 -20 -20 0 -30 -5 -30
-15 0 -10 -11 -15 -35 -15 -28 0 -35 -4 -35 -20 0 -19 -7 -20 -135 -20 l-135
0 0 35 c0 24 -5 35 -15 35 -8 0 -15 9 -15 20 0 11 -7 20 -15 20 -10 0 -15 10
-15 30 l0 30 130 0 c123 0 130 1 130 20 0 17 7 20 50 20 38 0 50 4 50 15 0 8
9 15 20 15 11 0 20 7 20 15 0 8 7 15 15 15 8 0 15 9 15 20 0 11 7 20 15 20 8
0 15 7 15 15 0 8 9 15 20 15 16 0 20 7 20 35 0 32 2 35 30 35 23 0 30 -4 30
-20 0 -16 7 -20 35 -20 28 0 35 4 35 20 0 13 7 20 20 20 11 0 20 7 20 15 0 8
7 15 15 15 11 0 15 12 15 50 l0 50 -70 0 -70 0 0 320 c0 278 -2 320 -15 320
-12 0 -15 18 -15 100 0 82 -3 100 -15 100 -13 0 -15 23 -15 150 0 143 -1 150
-20 150 -18 0 -20 7 -20 85 0 69 -3 85 -15 85 -13 0 -15 23 -15 150 0 127 -2
150 -15 150 -12 0 -15 16 -15 85 0 78 -2 85 -20 85 -19 0 -20 7 -20 135 0 113
-2 135 -15 135 -8 0 -15 7 -15 15 0 8 7 15 15 15 8 0 15 -7 15 -15 0 -8 9 -15
20 -15 13 0 20 -7 20 -20 0 -16 7 -20 30 -20 l30 0 0 70 c0 56 -3 70 -15 70
-11 0 -15 12 -15 50 0 38 -4 50 -15 50 -8 0 -15 7 -15 15 0 8 -9 15 -20 15
-16 0 -20 7 -20 35 0 24 -5 35 -15 35 -10 0 -15 10 -15 30 0 20 -5 30 -15 30
-10 0 -15 11 -15 35 0 28 -4 35 -20 35 -16 0 -20 7 -20 35 0 24 -5 35 -15 35
-10 0 -15 10 -15 30 0 20 -5 30 -15 30 -8 0 -15 9 -15 20 0 13 -7 20 -20 20
-13 0 -20 -7 -20 -20 0 -11 -7 -20 -15 -20 -11 0 -15 -12 -15 -50 0 -38 -4
-50 -15 -50 -11 0 -15 -12 -15 -50 0 -38 4 -50 15 -50 13 0 15 -21 15 -130 0
-109 2 -130 15 -130 12 0 15 -16 15 -85 0 -78 2 -85 20 -85 19 0 20 -7 20
-150 0 -127 2 -150 15 -150 12 0 15 -16 15 -85 0 -69 3 -85 15 -85 13 0 15
-26 15 -170 0 -163 1 -170 20 -170 18 0 20 -7 20 -65 0 -51 3 -65 15 -65 12 0
15 -18 15 -100 0 -82 3 -100 15 -100 13 0 15 -23 15 -150 0 -143 1 -150 20
-150 19 0 20 -7 20 -100 0 -82 3 -100 15 -100 13 0 15 -26 15 -170 l0 -170
-35 0 c-24 0 -35 -5 -35 -15 0 -8 -7 -15 -15 -15 -8 0 -15 -9 -15 -20 0 -16
-7 -20 -35 -20 -24 0 -35 -5 -35 -15 0 -12 -16 -15 -80 -15 l-80 0 0 35 c0 24
5 35 15 35 11 0 15 12 15 50 0 38 4 50 15 50 10 0 15 11 15 35 l0 35 -50 0
-50 0 0 -35 c0 -24 -5 -35 -15 -35 -10 0 -15 -11 -15 -35 0 -24 -5 -35 -15
-35 -8 0 -15 7 -15 15 0 8 -9 15 -20 15 -18 0 -20 7 -20 55 l0 55 -65 0 -65 0
0 -35 c0 -28 -4 -35 -20 -35 -16 0 -20 -7 -20 -35 0 -24 -5 -35 -15 -35 -10 0
-15 -11 -15 -35 0 -24 -5 -35 -15 -35 -8 0 -15 -7 -15 -15 0 -10 -11 -15 -35
-15 -24 0 -35 -5 -35 -15 0 -12 -14 -15 -65 -15 -51 0 -65 3 -65 15 0 8 -9 15
-20 15 -11 0 -20 7 -20 15 0 8 -7 15 -15 15 -12 0 -15 16 -15 85 0 69 3 85 15
85 8 0 15 9 15 20 0 18 -7 20 -65 20 l-65 0 0 -55 c0 -48 -2 -55 -20 -55 -11
0 -20 -7 -20 -15 0 -8 -7 -15 -15 -15 -8 0 -15 -7 -15 -15 0 -8 -7 -15 -15
-15 -8 0 -15 -9 -15 -20 0 -13 -7 -20 -20 -20 -11 0 -20 -7 -20 -15 0 -8 -7
-15 -15 -15 -8 0 -15 -7 -15 -15 0 -8 -7 -15 -15 -15 -8 0 -15 -9 -15 -20 0
-19 -7 -20 -135 -20 -128 0 -135 1 -135 20 0 11 -7 20 -15 20 -12 0 -15 18
-15 100 l0 100 -35 0 c-28 0 -35 -4 -35 -20 0 -11 -7 -20 -15 -20 -8 0 -15 -7
-15 -15 0 -8 -9 -15 -20 -15 -16 0 -20 -7 -20 -35 0 -33 -2 -35 -35 -35 -24 0
-35 -5 -35 -15 0 -8 -7 -15 -15 -15 -8 0 -15 -7 -15 -15 0 -8 -7 -15 -15 -15
-8 0 -15 -9 -15 -20 0 -16 -7 -20 -35 -20 -24 0 -35 -5 -35 -15 0 -13 -22 -15
-135 -15 -113 0 -135 2 -135 15 0 11 -12 15 -50 15 -43 0 -50 3 -50 20 0 13 7
20 20 20 11 0 20 7 20 15 0 10 -11 15 -35 15 -33 0 -35 2 -35 35 0 24 -5 35
-15 35 -11 0 -15 12 -15 50 0 43 -3 50 -20 50 -19 0 -20 7 -20 100 0 82 -3
100 -15 100 -13 0 -15 27 -15 185 0 178 -1 185 -20 185 -19 0 -20 7 -20 100 0
82 -3 100 -15 100 -13 0 -15 33 -15 235 0 202 -2 235 -15 235 -12 0 -15 14
-15 65 0 58 -2 65 -20 65 -19 0 -20 7 -20 135 0 113 -2 135 -15 135 -13 0 -15
22 -15 135 0 113 -2 135 -15 135 -12 0 -15 14 -15 65 0 58 -2 65 -20 65 -19 0
-20 7 -20 170 0 144 -2 170 -15 170 -11 0 -15 12 -15 50 0 38 -4 50 -15 50
-11 0 -15 12 -15 50 l0 50 -50 0 -50 0 0 -50 c0 -43 -3 -50 -20 -50 -19 0 -20
-7 -20 -120 0 -113 1 -120 20 -120 19 0 20 -7 20 -100 0 -82 3 -100 15 -100
13 0 15 -23 15 -150 0 -127 2 -150 15 -150 12 0 15 -18 15 -100 0 -93 1 -100
20 -100 19 0 20 -7 20 -150 0 -127 2 -150 15 -150 12 0 15 -18 15 -100 0 -82
3 -100 15 -100 13 0 15 -26 15 -170 0 -163 1 -170 20 -170 19 0 20 -7 20 -115
0 -96 3 -115 15 -115 13 0 15 -33 15 -235 0 -202 2 -235 15 -235 13 0 15 -22
15 -135 0 -113 -2 -135 -15 -135 -8 0 -15 -7 -15 -15 0 -11 -12 -15 -50 -15
-43 0 -50 -3 -50 -20 0 -11 -7 -20 -15 -20 -8 0 -15 -7 -15 -15 0 -12 -16 -15
-85 -15 -69 0 -85 3 -85 15 0 8 7 15 15 15 8 0 15 9 15 20 0 13 7 20 20 20 16
0 20 7 20 30 0 20 5 30 15 30 8 0 15 9 15 20 0 11 7 20 15 20 10 0 15 10 15
30 0 23 4 30 20 30 19 0 20 7 20 120 0 113 -1 120 -20 120 -11 0 -20 7 -20 15
0 8 -7 15 -15 15 -8 0 -15 9 -15 20 0 11 -7 20 -15 20 -10 0 -15 10 -15 30 0
28 -3 30 -35 30 -28 0 -35 4 -35 20 0 11 -7 20 -15 20 -8 0 -15 7 -15 15 0 10
-11 15 -35 15 -24 0 -35 5 -35 15 0 10 -11 15 -35 15 -28 0 -35 4 -35 20 0 11
-7 20 -15 20 -8 0 -15 7 -15 15 0 13 -26 15 -170 15 -144 0 -170 -2 -170 -15
0 -8 -7 -15 -15 -15 -8 0 -15 -9 -15 -20 0 -17 -7 -20 -50 -20 -38 0 -50 -4
-50 -15 0 -10 -11 -15 -35 -15 -24 0 -35 -5 -35 -15 0 -8 -7 -15 -15 -15 -8 0
-15 -9 -15 -20 0 -16 -7 -20 -35 -20 -24 0 -35 -5 -35 -15 0 -8 -7 -15 -15
-15 -8 0 -15 -7 -15 -15 0 -10 -11 -15 -35 -15 -33 0 -35 -2 -35 -35 0 -33 -2
-35 -35 -35 l-35 0 0 335 c0 291 -2 335 -15 335 -12 0 -15 16 -15 85 0 69 -3
85 -15 85 -13 0 -15 25 -15 165 0 158 -1 165 -20 165 -19 0 -20 7 -20 100 0
82 -3 100 -15 100 -12 0 -15 18 -15 100 0 82 -3 100 -15 100 -13 0 -15 22 -15
135 0 128 -1 135 -20 135 -18 0 -20 7 -20 70 0 56 -3 70 -15 70 -11 0 -15 12
-15 50 l0 50 35 0 c28 0 35 -4 35 -20 0 -11 7 -20 15 -20 8 0 15 -7 15 -15 0
-8 7 -15 15 -15 8 0 15 7 15 15 0 8 9 15 20 15 16 0 20 7 20 35 0 28 -4 35
-20 35 -11 0 -20 7 -20 15 0 8 -7 15 -15 15 -11 0 -15 12 -15 50 0 38 -4 50
-15 50 -10 0 -15 11 -15 35 0 28 -4 35 -20 35 -16 0 -20 7 -20 35 0 24 -5 35
-15 35 -11 0 -15 12 -15 50 0 38 -4 50 -15 50 -10 0 -15 11 -15 35 0 28 -4 35
-20 35 -11 0 -20 7 -20 15 0 10 -10 15 -30 15 -20 0 -30 -5 -30 -15 0 -8 -9
-15 -20 -15 -16 0 -20 -7 -20 -35 0 -24 -5 -35 -15 -35 -12 0 -15 -16 -15 -85
0 -69 3 -85 15 -85 12 0 15 -19 15 -115 0 -108 1 -115 20 -115 19 0 20 -7 20
-135 0 -113 2 -135 15 -135 13 0 15 -20 15 -120 0 -100 3 -120 15 -120 13 0
15 -25 15 -165 0 -158 1 -165 20 -165 18 0 20 -7 20 -85 0 -69 3 -85 15 -85
13 0 15 -27 15 -185 0 -158 2 -185 15 -185 11 0 15 -12 15 -50 0 -43 3 -50 20
-50 19 0 20 -7 20 -215 0 -184 2 -215 15 -215 12 0 15 -18 15 -100 0 -82 -3
-100 -15 -100 -10 0 -15 -11 -15 -35 0 -24 5 -35 15 -35 8 0 15 -9 15 -20 0
-11 -7 -20 -15 -20 -10 0 -15 -10 -15 -30 0 -23 -4 -30 -20 -30 -13 0 -20 -7
-20 -20 0 -11 -7 -20 -15 -20 -8 0 -15 -7 -15 -15 0 -8 -7 -15 -15 -15 -10 0
-15 -11 -15 -35 0 -28 -4 -35 -20 -35 -11 0 -20 -7 -20 -15 0 -8 -7 -15 -15
-15 -8 0 -15 -7 -15 -15 0 -8 -7 -15 -15 -15 -8 0 -15 -9 -15 -20 0 -13 -7
-20 -20 -20 -11 0 -20 -7 -20 -15 0 -8 -7 -15 -15 -15 -8 0 -15 -7 -15 -15 0
-8 -9 -15 -20 -15 -16 0 -20 -7 -20 -35 0 -32 -2 -35 -30 -35 -20 0 -30 -5
-30 -15 0 -13 -23 -15 -150 -15 -127 0 -150 2 -150 15 0 13 -22 15 -135 15
-113 0 -135 2 -135 15 0 10 -11 15 -35 15 -28 0 -35 4 -35 20 0 18 -7 20 -65
20 -51 0 -65 3 -65 15 0 11 -12 15 -50 15 -38 0 -50 4 -50 15 0 8 -9 15 -20
15 -13 0 -20 7 -20 20 0 16 -7 20 -30 20 -20 0 -30 5 -30 15 0 8 -9 15 -20 15
-11 0 -20 7 -20 15 0 8 9 15 20 15 13 0 20 7 20 20 0 11 7 20 15 20 8 0 15 7
15 15 0 8 7 15 15 15 8 0 15 7 15 15 0 8 9 15 20 15 16 0 20 7 20 35 0 32 2
35 30 35 28 0 30 3 30 35 0 28 4 35 20 35 11 0 20 7 20 15 0 8 7 15 15 15 10
0 15 -11 15 -35 0 -24 5 -35 15 -35 10 0 15 -10 15 -30 0 -23 4 -30 20 -30 16
0 20 -7 20 -35 0 -24 5 -35 15 -35 8 0 15 -7 15 -15 0 -8 7 -15 15 -15 8 0 15
-9 15 -20 0 -17 7 -20 50 -20 38 0 50 -4 50 -15 0 -12 13 -15 55 -15 42 0 55
-3 55 -15 0 -8 7 -15 15 -15 8 0 15 7 15 15 0 11 12 15 50 15 38 0 50 4 50 15
0 11 12 15 50 15 43 0 50 3 50 20 0 16 7 20 35 20 24 0 35 5 35 15 0 8 7 15
15 15 8 0 15 7 15 15 0 8 7 15 15 15 10 0 15 11 15 35 0 28 4 35 20 35 19 0
20 7 20 220 0 213 -1 220 -20 220 -11 0 -20 7 -20 15 0 8 -7 15 -15 15 -10 0
-15 11 -15 35 0 24 -5 35 -15 35 -10 0 -15 10 -15 30 0 29 -1 30 -50 30 l-50
0 0 -115 c0 -96 3 -115 15 -115 10 0 15 -11 15 -35 0 -24 5 -35 15 -35 10 0
15 -10 15 -30 0 -23 4 -30 20 -30 17 0 20 -7 20 -50 l0 -50 -35 0 c-28 0 -35
-4 -35 -20 0 -11 -7 -20 -15 -20 -8 0 -15 -7 -15 -15 0 -13 -24 -15 -155 -15
-131 0 -155 2 -155 15 0 8 -7 15 -15 15 -8 0 -15 9 -15 20 0 11 -7 20 -15 20
-8 0 -15 7 -15 15 0 8 -9 15 -20 15 -16 0 -20 7 -20 35 0 24 -5 35 -15 35 -12
0 -15 16 -15 80 l0 80 -35 0 c-24 0 -35 -5 -35 -15 0 -8 -7 -15 -15 -15 -8 0
-15 -7 -15 -15 0 -8 -7 -15 -15 -15 -10 0 -15 -11 -15 -35 0 -28 -4 -35 -20
-35 -11 0 -20 -7 -20 -15 0 -8 -7 -15 -15 -15 -8 0 -15 -9 -15 -20 0 -11 -7
-20 -15 -20 -8 0 -15 -7 -15 -15 0 -8 -9 -15 -20 -15 -11 0 -20 -7 -20 -15 0
-10 -10 -15 -30 -15 -28 0 -30 -3 -30 -35 l0 -35 -50 0 c-43 0 -50 -3 -50 -20
0 -18 -7 -20 -55 -20 -48 0 -55 2 -55 20 0 11 -7 20 -15 20 -11 0 -15 12 -15
50 0 38 -4 50 -15 50 -12 0 -15 16 -15 85 0 78 -2 85 -20 85 -18 0 -20 7 -20
65 0 51 -3 65 -15 65 -13 0 -15 22 -15 135 0 113 -2 135 -15 135 -13 0 -15 29
-15 200 0 193 -1 200 -20 200 -19 0 -20 7 -20 115 l0 115 50 0 c43 0 50 3 50
20 0 16 7 20 35 20 24 0 35 5 35 15 0 11 12 15 50 15 43 0 50 3 50 20 0 17 7
20 50 20 38 0 50 4 50 15 0 11 12 15 50 15 38 0 50 4 50 15 0 11 12 15 50 15
43 0 50 3 50 20 0 17 7 20 50 20 38 0 50 4 50 15 0 11 12 15 50 15 38 0 50 4
50 15 0 8 9 15 20 15 13 0 20 7 20 20 0 11 7 20 15 20 11 0 15 12 15 50 l0 50
-85 0 c-78 0 -85 -2 -85 -20 0 -16 -7 -20 -30 -20 -20 0 -30 -5 -30 -15 0 -12
-14 -15 -70 -15 -56 0 -70 -3 -70 -15 0 -10 -10 -15 -30 -15 -23 0 -30 -4 -30
-20 0 -16 -7 -20 -35 -20 -24 0 -35 -5 -35 -15 0 -12 -14 -15 -70 -15 -56 0
-70 -3 -70 -15 0 -10 -10 -15 -30 -15 -23 0 -30 -4 -30 -20 0 -18 -7 -20 -85
-20 l-85 0 0 150 c0 127 -2 150 -15 150 -12 0 -15 18 -15 105 0 98 -1 105 -20
105 -19 0 -20 7 -20 130 0 109 -2 130 -15 130 -12 0 -15 14 -15 70 0 56 -3 70
-15 70 -12 0 -15 14 -15 65 0 58 -2 65 -20 65 -18 0 -20 7 -20 70 0 56 -3 70
-15 70 -8 0 -15 7 -15 15 0 8 -7 15 -15 15 -8 0 -15 7 -15 15 0 8 -9 15 -20
15 -11 0 -20 -7 -20 -15 0 -8 -7 -15 -15 -15 -12 0 -15 -14 -15 -70 0 -56 -3
-70 -15 -70 -12 0 -15 -14 -15 -65 0 -51 3 -65 15 -65 12 0 15 -16 15 -85 0
-69 3 -85 15 -85 12 0 15 -14 15 -65 0 -58 2 -65 20 -65 19 0 20 -7 20 -120 0
-100 3 -120 15 -120 12 0 15 -14 15 -65 0 -51 3 -65 15 -65 13 0 15 -22 15
-135 0 -128 1 -135 20 -135 11 0 20 -7 20 -15 0 -8 -9 -15 -20 -15 -16 0 -20
-7 -20 -35 0 -24 -5 -35 -15 -35 -8 0 -15 -7 -15 -15 0 -10 -11 -15 -35 -15
-28 0 -35 -4 -35 -20 0 -16 -7 -20 -30 -20 -20 0 -30 -5 -30 -15 0 -8 -9 -15
-20 -15 -11 0 -20 -7 -20 -15 0 -8 -7 -15 -15 -15 -10 0 -15 -11 -15 -35 l0
-35 85 0 c69 0 85 3 85 15 0 11 12 15 50 15 l50 0 0 -65 c0 -51 3 -65 15 -65
12 0 15 -19 15 -115 0 -96 3 -115 15 -115 13 0 15 -29 15 -205 0 -198 1 -205
20 -205 19 0 20 -7 20 -100 0 -82 3 -100 15 -100 12 0 15 -19 15 -115 l0 -115
-50 0 c-38 0 -50 4 -50 15 0 8 -7 15 -15 15 -8 0 -15 9 -15 20 0 13 -7 20 -20
20 -11 0 -20 7 -20 15 0 8 -7 15 -15 15 -8 0 -15 7 -15 15 0 8 -7 15 -15 15
-10 0 -15 11 -15 35 0 28 -4 35 -20 35 -11 0 -20 7 -20 15 0 8 -7 15 -15 15
-10 0 -15 11 -15 35 l0 35 -120 0 c-100 0 -120 -2 -120 -15 0 -8 -7 -15 -15
-15 -8 0 -15 -9 -15 -20 0 -16 -7 -20 -35 -20 -24 0 -35 -5 -35 -15 0 -8 -7
-15 -15 -15 -8 0 -15 -7 -15 -15 0 -10 -11 -15 -35 -15 -33 0 -35 -2 -35 -35
0 -24 -5 -35 -15 -35 -8 0 -15 -7 -15 -15 0 -8 -7 -15 -15 -15 -10 0 -15 -11
-15 -35 0 -28 -4 -35 -20 -35 -13 0 -20 -7 -20 -20 0 -11 -7 -20 -15 -20 -8 0
-15 -7 -15 -15 0 -8 -7 -15 -15 -15 -10 0 -15 -11 -15 -35 0 -28 -4 -35 -20
-35 -18 0 -20 -7 -20 -65 0 -51 -3 -65 -15 -65 -8 0 -15 -7 -15 -15 0 -8 -9
-15 -20 -15 -17 0 -20 -7 -20 -50 0 -38 -4 -50 -15 -50 -10 0 -15 -11 -15 -35
0 -24 -5 -35 -15 -35 -8 0 -15 -7 -15 -15 0 -8 -9 -15 -20 -15 -13 0 -20 -7
-20 -20 0 -11 -7 -20 -15 -20 -8 0 -15 -7 -15 -15 0 -8 -7 -15 -15 -15 -8 0
-15 -9 -15 -20 0 -17 -7 -20 -50 -20 -43 0 -50 3 -50 20 0 13 -7 20 -20 20
-11 0 -20 7 -20 15 0 10 -10 15 -30 15 -23 0 -30 4 -30 20 0 13 -7 20 -20 20
-11 0 -20 7 -20 15 0 8 -7 15 -15 15 -10 0 -15 11 -15 35 0 24 -5 35 -15 35
-12 0 -15 16 -15 80 0 73 -2 80 -20 80 -16 0 -20 7 -20 35 0 28 4 35 20 35 16
0 20 7 20 35 0 32 2 35 30 35 20 0 30 5 30 15 0 10 11 15 35 15 33 0 35 2 35
35 0 24 5 35 15 35 12 0 15 14 15 65 0 58 2 65 20 65 17 0 20 7 20 50 l0 50
-35 0 c-24 0 -35 -5 -35 -15 0 -8 -7 -15 -15 -15 -8 0 -15 -7 -15 -15 0 -8 -9
-15 -20 -15 -13 0 -20 -7 -20 -20 0 -11 -7 -20 -15 -20 -8 0 -15 9 -15 20 0
11 -7 20 -15 20 -8 0 -15 7 -15 15 0 8 -9 15 -20 15 -11 0 -20 7 -20 15 0 8
-7 15 -15 15 -13 0 -15 23 -15 150 0 127 2 150 15 150 11 0 15 12 15 50 0 43
3 50 20 50 18 0 20 7 20 85 0 69 3 85 15 85 10 0 15 11 15 35 0 24 5 35 15 35
8 0 15 7 15 15 0 8 -7 15 -15 15 -8 0 -15 9 -15 20 0 16 -7 20 -35 20 -28 0
-35 -4 -35 -20 0 -11 -7 -20 -15 -20 -12 0 -15 -14 -15 -65 0 -51 -3 -65 -15
-65 -10 0 -15 -11 -15 -35 0 -28 -4 -35 -20 -35 -18 0 -20 -7 -20 -65 0 -51
-3 -65 -15 -65 -12 0 -15 -14 -15 -70 0 -63 -2 -70 -20 -70 -19 0 -20 -7 -20
-180 0 -173 1 -180 20 -180 16 0 20 -7 20 -35 0 -24 5 -35 15 -35 13 0 15 -26
15 -170 0 -163 1 -170 20 -170 17 0 20 -7 20 -50 0 -38 4 -50 15 -50 12 0 15
-14 15 -65 0 -51 3 -65 15 -65 10 0 15 -11 15 -35 0 -28 4 -35 20 -35 11 0 20
-7 20 -15 0 -8 7 -15 15 -15 8 0 15 -9 15 -20 0 -11 7 -20 15 -20 8 0 15 -7
15 -15 0 -8 9 -15 20 -15 11 0 20 -7 20 -15 0 -8 7 -15 15 -15 8 0 15 -9 15
-20 0 -19 7 -20 115 -20 108 0 115 1 115 20 0 13 7 20 20 20 11 0 20 7 20 15
0 8 7 15 15 15 8 0 15 7 15 15 0 8 7 15 15 15 10 0 15 11 15 35 0 28 4 35 20
35 16 0 20 7 20 35 0 24 5 35 15 35 11 0 15 12 15 50 0 43 3 50 20 50 11 0 20
7 20 15 0 8 7 15 15 15 11 0 15 12 15 50 0 38 4 50 15 50 10 0 15 11 15 35 0
28 4 35 20 35 11 0 20 7 20 15 0 8 7 15 15 15 10 0 15 11 15 35 0 24 5 35 15
35 10 0 15 11 15 35 0 33 2 35 35 35 24 0 35 5 35 15 0 8 7 15 15 15 8 0 15 7
15 15 0 8 9 15 20 15 13 0 20 7 20 20 0 16 7 20 30 20 20 0 30 5 30 15 0 12
14 15 70 15 56 0 70 -3 70 -15 0 -8 7 -15 15 -15 10 0 15 -11 15 -35 0 -28 4
-35 20 -35 11 0 20 -7 20 -15 0 -8 7 -15 15 -15 10 0 15 -11 15 -35 0 -33 2
-35 35 -35 24 0 35 -5 35 -15 0 -8 7 -15 15 -15 8 0 15 -9 15 -20 0 -16 7 -20
35 -20 32 0 35 -2 35 -30 l0 -30 65 0 c58 0 65 -2 65 -20 0 -18 7 -20 65 -20
51 0 65 -3 65 -15 0 -8 9 -15 20 -15 18 0 20 -7 20 -65 0 -58 -2 -65 -20 -65
-18 0 -20 -7 -20 -55 0 -42 -3 -55 -15 -55 -12 0 -15 -16 -15 -80 0 -64 3 -80
15 -80 11 0 15 -12 15 -50 0 -43 3 -50 20 -50 13 0 20 -7 20 -20 0 -18 7 -20
65 -20 58 0 65 2 65 20 0 13 7 20 20 20 11 0 20 7 20 15 0 8 7 15 15 15 11 0
15 12 15 50 l0 50 -70 0 -70 0 0 135 c0 128 1 135 20 135 11 0 20 -7 20 -15 0
-8 7 -15 15 -15 8 0 15 -9 15 -20 0 -16 7 -20 35 -20 24 0 35 -5 35 -15 0 -10
11 -15 35 -15 28 0 35 -4 35 -20 0 -11 7 -20 15 -20 8 0 15 -7 15 -15 0 -11
12 -15 50 -15 38 0 50 -4 50 -15 0 -11 12 -15 50 -15 43 0 50 -3 50 -20 0 -19
7 -20 135 -20 113 0 135 -2 135 -15 0 -13 27 -15 185 -15 158 0 185 -2 185
-15 0 -13 22 -15 135 -15 113 0 135 2 135 15 0 13 29 15 200 15 171 0 200 2
200 15 0 13 34 15 250 15 243 0 250 1 250 20 0 19 7 20 115 20 96 0 115 3 115
15 0 13 22 15 135 15 113 0 135 2 135 15 0 10 11 15 35 15 28 0 35 4 35 20 0
17 7 20 50 20 38 0 50 4 50 15 0 10 11 15 35 15 28 0 35 4 35 20 0 11 7 20 15
20 8 0 15 7 15 15 0 8 7 15 15 15 8 0 15 7 15 15 0 8 9 15 20 15 13 0 20 7 20
20 0 11 7 20 15 20 10 0 15 10 15 30 0 20 5 30 15 30 8 0 15 9 15 20 0 13 7
20 20 20 17 0 20 -7 20 -50 0 -38 4 -50 15 -50 8 0 15 -9 15 -20 0 -13 7 -20
20 -20 11 0 20 -7 20 -15 0 -10 10 -15 30 -15 28 0 30 -3 30 -35 l0 -35 70 0
c56 0 70 -3 70 -15 0 -11 12 -15 50 -15 38 0 50 4 50 15 0 12 14 15 65 15 58
0 65 2 65 20 0 11 7 20 15 20 8 0 15 7 15 15 0 10 11 15 35 15 24 0 35 5 35
15 0 8 7 15 15 15 8 0 15 9 15 20 0 18 7 20 55 20 48 0 55 -2 55 -20 0 -11 7
-20 15 -20 8 0 15 -7 15 -15 0 -10 11 -15 35 -15 l35 0 0 -70 c0 -63 -2 -70
-20 -70 -16 0 -20 -7 -20 -30 0 -20 -5 -30 -15 -30 -13 0 -15 -26 -15 -170 0
-144 2 -170 15 -170 8 0 15 -7 15 -15 0 -8 9 -15 20 -15 11 0 20 -7 20 -15 0
-8 7 -15 15 -15 10 0 15 -11 15 -35 l0 -35 50 0 c38 0 50 4 50 15 0 8 7 15 15
15 10 0 15 11 15 35 0 28 4 35 20 35 11 0 20 7 20 15 0 8 7 15 15 15 10 0 15
11 15 35 0 24 5 35 15 35 8 0 15 7 15 15 0 8 -7 15 -15 15 -8 0 -15 9 -15 20
0 11 -7 20 -15 20 -8 0 -15 -9 -15 -20 0 -16 -7 -20 -35 -20 -24 0 -35 -5 -35
-15 0 -8 -7 -15 -15 -15 -8 0 -15 7 -15 15 0 8 -9 15 -20 15 -18 0 -20 7 -20
70 0 56 -3 70 -15 70 -10 0 -15 10 -15 30 0 20 5 30 15 30 11 0 15 12 15 50 0
43 3 50 20 50 16 0 20 7 20 35 l0 35 50 0 c43 0 50 3 50 20 0 11 7 20 15 20 8
0 15 7 15 15 0 11 12 15 50 15 38 0 50 4 50 15 0 8 7 15 15 15 8 0 15 9 15 20
0 13 7 20 20 20 16 0 20 7 20 30 0 20 5 30 15 30 8 0 15 9 15 20 0 11 7 20 15
20 8 0 15 -9 15 -20 0 -13 7 -20 20 -20 16 0 20 -7 20 -30 0 -20 5 -30 15 -30
8 0 15 -9 15 -20 0 -13 7 -20 20 -20 11 0 20 -7 20 -15 0 -12 19 -15 115 -15
96 0 115 3 115 15 0 10 11 15 35 15 28 0 35 4 35 20 0 11 7 20 15 20 10 0 15
10 15 30 0 20 5 30 15 30 8 0 15 9 15 20 0 13 7 20 20 20 11 0 20 7 20 15 0 8
7 15 15 15 8 0 15 -7 15 -15 0 -8 7 -15 15 -15 10 0 15 -11 15 -35 0 -28 4
-35 20 -35 19 0 20 -7 20 -150 0 -127 2 -150 15 -150 10 0 15 -11 15 -35 0
-28 4 -35 20 -35 11 0 20 -7 20 -15 0 -8 7 -15 15 -15 8 0 15 -9 15 -20 0 -17
7 -20 50 -20 38 0 50 -4 50 -15 0 -10 11 -15 35 -15 24 0 35 -5 35 -15 0 -10
10 -15 30 -15 20 0 30 5 30 15 0 10 11 15 35 15 24 0 35 5 35 15 0 11 12 15
50 15 43 0 50 3 50 20 0 16 7 20 35 20 24 0 35 5 35 15 0 8 7 15 15 15 8 0 15
7 15 15 0 10 11 15 35 15 28 0 35 4 35 20 0 11 7 20 15 20 8 0 15 7 15 15 0
10 11 15 35 15 33 0 35 2 35 35 0 33 2 35 35 35 24 0 35 5 35 15 0 8 7 15 15
15 8 0 15 9 15 20 0 11 7 20 15 20 8 0 15 7 15 15 0 8 9 15 20 15 11 0 20 7
20 15 0 8 7 15 15 15 8 0 15 9 15 20 0 16 7 20 35 20 24 0 35 5 35 15 0 8 7
15 15 15 8 0 15 7 15 15 0 10 11 15 35 15 28 0 35 4 35 20 0 16 7 20 30 20 20
0 30 5 30 15 0 8 9 15 20 15 11 0 20 7 20 15 0 10 10 15 30 15 23 0 30 4 30
20 0 18 7 20 55 20 42 0 55 3 55 15 0 12 14 15 65 15 51 0 65 3 65 15 0 11 12
15 50 15 l50 0 0 -65 c0 -51 -3 -65 -15 -65 -12 0 -15 -16 -15 -85 0 -69 3
-85 15 -85 8 0 15 -7 15 -15 0 -12 18 -15 100 -15 l100 0 0 85 0 85 -35 0
c-33 0 -35 -2 -35 -35 0 -32 -2 -35 -30 -35 l-30 0 0 115 c0 96 3 115 15 115
10 0 15 11 15 35 l0 35 65 0 c51 0 65 3 65 15 0 10 11 15 35 15 28 0 35 4 35
20 0 17 7 20 50 20 38 0 50 4 50 15 0 11 12 15 50 15 43 0 50 3 50 20 0 17 7
20 50 20 49 0 50 1 50 30 0 23 4 30 20 30 13 0 20 7 20 20 0 16 7 20 30 20 29
0 30 1 30 50 0 43 3 50 20 50 11 0 20 7 20 15 0 8 7 15 15 15 13 0 15 27 15
185 0 158 -2 185 -15 185 -10 0 -15 11 -15 35 0 28 -4 35 -20 35 -16 0 -20 7
-20 30 0 20 -5 30 -15 30 -8 0 -15 9 -15 20 0 11 -7 20 -15 20 -8 0 -15 7 -15
15 0 8 -9 15 -20 15 -16 0 -20 7 -20 35 0 32 -2 35 -30 35 -20 0 -30 5 -30 15
0 8 -9 15 -20 15 -11 0 -20 7 -20 15 0 8 -7 15 -15 15 -8 0 -15 9 -15 20 0 11
-7 20 -15 20 -8 0 -15 7 -15 15 0 8 -9 15 -20 15 -11 0 -20 7 -20 15 0 10 -10
15 -30 15 -28 0 -30 3 -30 35 0 33 -2 35 -35 35 -24 0 -35 5 -35 15 0 8 -9 15
-20 15 -13 0 -20 7 -20 20 0 16 -7 20 -30 20 -20 0 -30 5 -30 15 0 8 -9 15
-20 15 -11 0 -20 7 -20 15 0 8 -7 15 -15 15 -8 0 -15 9 -15 20 0 11 -7 20 -15
20 -8 0 -15 7 -15 15 0 8 -9 15 -20 15 -13 0 -20 7 -20 20 0 16 -7 20 -30 20
-27 0 -30 3 -30 30 0 23 -4 30 -20 30 -13 0 -20 7 -20 20 0 16 -7 20 -30 20
-27 0 -30 3 -30 30 0 23 -4 30 -20 30 -13 0 -20 7 -20 20 0 11 -7 20 -15 20
-8 0 -15 7 -15 15 0 8 -7 15 -15 15 -8 0 -15 7 -15 15 0 8 -9 15 -20 15 -13 0
-20 7 -20 20 0 11 -7 20 -15 20 -8 0 -15 7 -15 15 0 12 16 15 85 15 69 0 85
-3 85 -15 0 -13 25 -15 165 -15 140 0 165 2 165 15 0 8 7 15 15 15 8 0 15 7
15 15 0 8 9 15 20 15 17 0 20 7 20 50 0 43 -3 50 -20 50 -13 0 -20 7 -20 20 0
11 -7 20 -15 20 -8 0 -15 7 -15 15 0 12 -16 15 -85 15 -78 0 -85 2 -85 20 0
13 7 20 20 20 11 0 20 7 20 15 0 11 12 15 50 15 l50 0 0 50 0 50 -70 0 c-56 0
-70 -3 -70 -15 0 -8 -7 -15 -15 -15 -8 0 -15 -9 -15 -20 0 -11 -7 -20 -15 -20
-8 0 -15 -7 -15 -15 0 -8 -9 -15 -20 -15 -18 0 -20 -7 -20 -70 l0 -70 35 0
c24 0 35 -5 35 -15 0 -12 16 -15 85 -15 l85 0 0 -35 0 -35 -100 0 c-93 0 -100
1 -100 20 0 17 -7 20 -50 20 -38 0 -50 4 -50 15 0 11 -12 15 -50 15 -38 0 -50
4 -50 15 0 12 -13 15 -55 15 -48 0 -55 2 -55 20 0 11 -7 20 -15 20 -8 0 -15 7
-15 15 0 10 -11 15 -35 15 -28 0 -35 4 -35 20 0 11 -7 20 -15 20 -10 0 -15 10
-15 30 0 20 5 30 15 30 8 0 15 9 15 20 0 13 7 20 20 20 11 0 20 7 20 15 0 10
10 15 30 15 20 0 30 5 30 15 0 10 11 15 35 15 28 0 35 4 35 20 0 16 7 20 35
20 24 0 35 5 35 15 0 10 11 15 35 15 24 0 35 5 35 15 0 11 12 15 50 15 43 0
50 3 50 20 0 11 7 20 15 20 8 0 15 7 15 15 0 11 12 15 50 15 38 0 50 4 50 15
0 10 11 15 35 15 28 0 35 4 35 20 0 18 7 20 65 20 51 0 65 3 65 15 0 11 12 15
50 15 38 0 50 4 50 15 0 11 12 15 50 15 43 0 50 3 50 20 0 18 7 20 85 20 69 0
85 3 85 15 0 12 14 15 65 15 51 0 65 -3 65 -15 0 -12 14 -15 70 -15 l70 0 0
-70 c0 -63 -2 -70 -20 -70 -11 0 -20 -7 -20 -15 0 -8 -7 -15 -15 -15 -8 0 -15
-7 -15 -15 0 -8 -7 -15 -15 -15 -8 0 -15 -9 -15 -20 0 -13 -7 -20 -20 -20 -16
0 -20 -7 -20 -30 0 -27 -3 -30 -30 -30 -28 0 -30 -3 -30 -35 0 -28 -4 -35 -20
-35 -11 0 -20 -7 -20 -15 0 -8 -7 -15 -15 -15 -8 0 -15 -9 -15 -20 0 -11 -7
-20 -15 -20 -10 0 -15 -10 -15 -30 0 -23 -4 -30 -20 -30 -13 0 -20 -7 -20 -20
0 -11 -7 -20 -15 -20 -11 0 -15 -12 -15 -50 0 -38 -4 -50 -15 -50 -11 0 -15
-12 -15 -50 0 -49 1 -50 30 -50 20 0 30 5 30 15 0 8 9 15 20 15 16 0 20 7 20
35 0 24 5 35 15 35 8 0 15 7 15 15 0 8 7 15 15 15 10 0 15 11 15 35 0 28 4 35
20 35 13 0 20 7 20 20 0 11 7 20 15 20 8 0 15 7 15 15 0 8 7 15 15 15 10 0 15
11 15 35 0 28 4 35 20 35 11 0 20 7 20 15 0 8 7 15 15 15 8 0 15 7 15 15 0 8
7 15 15 15 8 0 15 9 15 20 0 13 7 20 20 20 16 0 20 7 20 30 0 20 5 30 15 30 8
0 15 9 15 20 0 13 7 20 20 20 11 0 20 7 20 15 0 8 7 15 15 15 10 0 15 11 15
35 0 24 5 35 15 35 10 0 15 10 15 30 0 23 4 30 20 30 19 0 20 7 20 105 0 98
-1 105 -20 105 -11 0 -20 7 -20 15 0 8 -7 15 -15 15 -8 0 -15 7 -15 15 0 8 -7
15 -15 15 -8 0 -15 9 -15 20 0 19 -7 20 -135 20 -128 0 -135 -1 -135 -20z
m-5100 -2615 c0 -10 11 -15 35 -15 24 0 35 -5 35 -15 0 -10 11 -15 35 -15 28
0 35 -4 35 -20 0 -16 7 -20 30 -20 20 0 30 -5 30 -15 0 -8 9 -15 20 -15 13 0
20 -7 20 -20 0 -11 7 -20 15 -20 10 0 15 -10 15 -30 0 -23 4 -30 20 -30 16 0
20 -7 20 -35 0 -33 -2 -35 -35 -35 -24 0 -35 -5 -35 -15 0 -8 -9 -15 -20 -15
-13 0 -20 -7 -20 -20 0 -18 -7 -20 -65 -20 -51 0 -65 -3 -65 -15 0 -11 -12
-15 -50 -15 -38 0 -50 -4 -50 -15 0 -12 -16 -15 -85 -15 -78 0 -85 -2 -85 -20
0 -11 -7 -20 -15 -20 -8 0 -15 -7 -15 -15 0 -12 -14 -15 -65 -15 -51 0 -65 -3
-65 -15 0 -12 -18 -15 -105 -15 -98 0 -105 -1 -105 -20 0 -17 -7 -20 -50 -20
-38 0 -50 -4 -50 -15 0 -13 -25 -15 -165 -15 -140 0 -165 2 -165 15 0 8 7 15
15 15 8 0 15 9 15 20 0 16 7 20 35 20 32 0 35 2 35 30 0 20 5 30 15 30 8 0 15
9 15 20 0 13 7 20 20 20 11 0 20 7 20 15 0 8 7 15 15 15 8 0 15 7 15 15 0 8 7
15 15 15 8 0 15 9 15 20 0 13 7 20 20 20 11 0 20 7 20 15 0 10 10 15 30 15 28
0 30 3 30 35 0 28 4 35 20 35 11 0 20 7 20 15 0 10 10 15 30 15 20 0 30 5 30
15 0 8 9 15 20 15 13 0 20 7 20 20 0 16 7 20 30 20 20 0 30 5 30 15 0 10 11
15 35 15 28 0 35 4 35 20 0 17 7 20 50 20 38 0 50 4 50 15 0 8 9 15 20 15 11
0 20 7 20 15 0 13 21 15 130 15 109 0 130 -2 130 -15z"/>
<path d="M15570 6695 c0 -8 -7 -15 -15 -15 -8 0 -15 -7 -15 -15 0 -8 -7 -15
-15 -15 -8 0 -15 -9 -15 -20 0 -13 -7 -20 -20 -20 -17 0 -20 -7 -20 -50 0 -38
-4 -50 -15 -50 -12 0 -15 -14 -15 -65 0 -51 -3 -65 -15 -65 -8 0 -15 -9 -15
-20 0 -13 -7 -20 -20 -20 -16 0 -20 7 -20 35 0 24 -5 35 -15 35 -8 0 -15 7
-15 15 0 8 -7 15 -15 15 -8 0 -15 9 -15 20 0 13 -7 20 -20 20 -11 0 -20 7 -20
15 0 8 -7 15 -15 15 -8 0 -15 7 -15 15 0 8 -7 15 -15 15 -8 0 -15 9 -15 20 0
16 -7 20 -35 20 -24 0 -35 5 -35 15 0 10 -11 15 -35 15 -33 0 -35 -2 -35 -35
0 -24 -5 -35 -15 -35 -11 0 -15 -12 -15 -50 0 -38 4 -50 15 -50 10 0 15 -10
15 -30 0 -28 3 -30 35 -30 28 0 35 -4 35 -20 0 -16 7 -20 35 -20 24 0 35 -5
35 -15 0 -8 7 -15 15 -15 8 0 15 -7 15 -15 0 -8 7 -15 15 -15 8 0 15 -9 15
-20 0 -13 7 -20 20 -20 16 0 20 -7 20 -30 0 -20 5 -30 15 -30 10 0 15 -11 15
-35 0 -24 5 -35 15 -35 10 0 15 -11 15 -35 0 -28 4 -35 20 -35 11 0 20 -7 20
-15 0 -10 10 -15 30 -15 29 0 30 1 30 50 0 43 3 50 20 50 19 0 20 7 20 100 0
82 3 100 15 100 12 0 15 18 15 100 0 82 3 100 15 100 8 0 15 -7 15 -15 0 -10
11 -15 35 -15 28 0 35 -4 35 -20 0 -16 7 -20 35 -20 28 0 35 4 35 20 0 11 7
20 15 20 12 0 15 16 15 85 l0 85 -30 0 c-20 0 -30 5 -30 15 0 8 -9 15 -20 15
-11 0 -20 7 -20 15 0 10 -11 15 -35 15 -24 0 -35 -5 -35 -15z"/>
<path d="M12360 6610 c0 -63 -2 -70 -20 -70 -18 0 -20 -7 -20 -65 0 -58 2 -65
20 -65 19 0 20 -7 20 -115 0 -96 3 -115 15 -115 10 0 15 -11 15 -35 0 -24 5
-35 15 -35 12 0 15 -14 15 -65 0 -58 2 -65 20 -65 18 0 20 -7 20 -85 0 -69 3
-85 15 -85 11 0 15 -12 15 -50 0 -43 3 -50 20 -50 19 0 20 -7 20 -100 0 -82 3
-100 15 -100 11 0 15 -12 15 -50 0 -38 4 -50 15 -50 13 0 15 -20 15 -120 0
-113 1 -120 20 -120 17 0 20 -7 20 -50 0 -38 4 -50 15 -50 12 0 15 -14 15 -65
0 -51 3 -65 15 -65 10 0 15 -11 15 -35 0 -24 -5 -35 -15 -35 -8 0 -15 -7 -15
-15 0 -8 -7 -15 -15 -15 -8 0 -15 -9 -15 -20 0 -16 -7 -20 -35 -20 -24 0 -35
-5 -35 -15 0 -10 -11 -15 -35 -15 -24 0 -35 -5 -35 -15 0 -10 -11 -15 -35 -15
-33 0 -35 -2 -35 -35 l0 -35 55 0 c42 0 55 3 55 15 0 10 10 15 30 15 23 0 30
4 30 20 0 17 7 20 50 20 43 0 50 -3 50 -20 0 -13 7 -20 20 -20 19 0 20 -7 20
-100 0 -82 3 -100 15 -100 13 0 15 -25 15 -165 l0 -165 35 0 c32 0 35 2 35 30
0 20 5 30 15 30 10 0 15 11 15 35 0 24 5 35 15 35 13 0 15 29 15 200 0 171 -2
200 -15 200 -12 0 -15 16 -15 85 0 69 3 85 15 85 10 0 15 11 15 35 0 33 2 35
35 35 32 0 35 2 35 30 0 20 5 30 15 30 8 0 15 9 15 20 0 18 7 20 70 20 l70 0
0 65 0 65 -35 0 -35 0 0 100 0 100 -65 0 c-51 0 -65 -3 -65 -15 0 -8 -9 -15
-20 -15 -13 0 -20 -7 -20 -20 0 -11 -7 -20 -15 -20 -8 0 -15 -7 -15 -15 0 -8
-7 -15 -15 -15 -10 0 -15 -11 -15 -35 0 -24 5 -35 15 -35 8 0 15 -7 15 -15 0
-8 7 -15 15 -15 8 0 15 -7 15 -15 0 -8 9 -15 20 -15 17 0 20 -7 20 -50 0 -43
-3 -50 -20 -50 -13 0 -20 -7 -20 -20 0 -11 -7 -20 -15 -20 -8 0 -15 -7 -15
-15 0 -8 -7 -15 -15 -15 -11 0 -15 12 -15 50 0 43 -3 50 -20 50 -17 0 -20 7
-20 50 0 38 -4 50 -15 50 -12 0 -15 20 -15 120 0 100 -2 120 -15 120 -11 0
-15 12 -15 50 0 43 -3 50 -20 50 -19 0 -20 7 -20 100 0 82 -3 100 -15 100 -12
0 -15 14 -15 65 0 51 -3 65 -15 65 -11 0 -15 12 -15 50 0 43 -3 50 -20 50 -18
0 -20 7 -20 85 0 69 -3 85 -15 85 -11 0 -15 12 -15 50 0 38 -4 50 -15 50 -13
0 -15 25 -15 165 0 158 -1 165 -20 165 -13 0 -20 7 -20 20 0 11 -7 20 -15 20
-11 0 -15 12 -15 50 l0 50 -50 0 -50 0 0 -70z"/>
<path d="M7060 6560 c0 -11 -7 -20 -15 -20 -8 0 -15 -7 -15 -15 0 -8 -7 -15
-15 -15 -11 0 -15 -12 -15 -50 0 -43 -3 -50 -20 -50 -18 0 -20 -7 -20 -85 l0
-85 -30 0 c-23 0 -30 4 -30 20 0 13 -7 20 -20 20 -16 0 -20 7 -20 30 0 20 -5
30 -15 30 -8 0 -15 9 -15 20 0 11 -7 20 -15 20 -8 0 -15 7 -15 15 0 8 -9 15
-20 15 -11 0 -20 7 -20 15 0 8 -7 15 -15 15 -8 0 -15 9 -15 20 0 16 -7 20 -35
20 -24 0 -35 5 -35 15 0 8 -7 15 -15 15 -8 0 -15 -7 -15 -15 0 -8 -9 -15 -20
-15 -13 0 -20 -7 -20 -20 0 -11 -7 -20 -15 -20 -11 0 -15 -12 -15 -50 0 -38 4
-50 15 -50 10 0 15 -10 15 -30 0 -23 4 -30 20 -30 13 0 20 -7 20 -20 0 -16 7
-20 30 -20 20 0 30 -5 30 -15 0 -10 11 -15 35 -15 24 0 35 -5 35 -15 0 -8 9
-15 20 -15 13 0 20 -7 20 -20 0 -11 7 -20 15 -20 8 0 15 -7 15 -15 0 -8 7 -15
15 -15 11 0 15 -12 15 -50 0 -43 3 -50 20 -50 11 0 20 -7 20 -15 0 -8 7 -15
15 -15 10 0 15 -11 15 -35 0 -33 2 -35 35 -35 l35 0 0 50 c0 38 4 50 15 50 13
0 15 23 15 150 0 127 2 150 15 150 10 0 15 11 15 35 l0 35 50 0 c43 0 50 -3
50 -20 0 -17 7 -20 50 -20 l50 0 0 35 c0 28 4 35 20 35 16 0 20 7 20 35 0 28
-4 35 -20 35 -11 0 -20 7 -20 15 0 8 -7 15 -15 15 -10 0 -15 11 -15 35 l0 35
-85 0 c-78 0 -85 -2 -85 -20z"/>
<path d="M7570 6495 c0 -69 3 -85 15 -85 8 0 15 -7 15 -15 0 -8 7 -15 15 -15
13 0 15 -27 15 -185 0 -158 -2 -185 -15 -185 -10 0 -15 -11 -15 -35 0 -24 -5
-35 -15 -35 -10 0 -15 -11 -15 -35 0 -28 -4 -35 -20 -35 -19 0 -20 -7 -20
-165 0 -158 1 -165 20 -165 16 0 20 -7 20 -35 0 -24 5 -35 15 -35 8 0 15 -7
15 -15 0 -12 14 -15 65 -15 51 0 65 3 65 15 0 8 9 15 20 15 13 0 20 7 20 20 0
11 7 20 15 20 10 0 15 10 15 30 0 20 5 30 15 30 10 0 15 11 15 35 l0 35 -80 0
c-64 0 -80 3 -80 15 0 8 -9 15 -20 15 -19 0 -20 7 -20 120 0 113 1 120 20 120
16 0 20 7 20 35 0 24 5 35 15 35 11 0 15 12 15 50 0 38 4 50 15 50 11 0 15 12
15 50 0 43 3 50 20 50 18 0 20 7 20 80 0 73 -2 80 -20 80 -17 0 -20 7 -20 50
0 38 -4 50 -15 50 -11 0 -15 12 -15 50 0 38 -4 50 -15 50 -8 0 -15 9 -15 20 0
17 -7 20 -50 20 l-50 0 0 -85z"/>
<path d="M9040 6525 c0 -8 -7 -15 -15 -15 -8 0 -15 -7 -15 -15 0 -10 -11 -15
-35 -15 -33 0 -35 -2 -35 -35 0 -24 -5 -35 -15 -35 -11 0 -15 -12 -15 -50 0
-43 -3 -50 -20 -50 -18 0 -20 -7 -20 -85 0 -69 -3 -85 -15 -85 -10 0 -15 11
-15 35 0 24 -5 35 -15 35 -8 0 -15 7 -15 15 0 8 -9 15 -20 15 -16 0 -20 7 -20
35 0 24 -5 35 -15 35 -8 0 -15 7 -15 15 0 8 -7 15 -15 15 -8 0 -15 9 -15 20 0
13 -7 20 -20 20 -11 0 -20 7 -20 15 0 10 -11 15 -35 15 -24 0 -35 5 -35 15 0
10 -10 15 -30 15 -20 0 -30 -5 -30 -15 0 -8 -9 -15 -20 -15 -18 0 -20 -7 -20
-85 0 -78 2 -85 20 -85 11 0 20 -7 20 -15 0 -8 7 -15 15 -15 8 0 15 -7 15 -15
0 -10 11 -15 35 -15 28 0 35 -4 35 -20 0 -16 7 -20 35 -20 24 0 35 -5 35 -15
0 -8 7 -15 15 -15 8 0 15 -7 15 -15 0 -8 7 -15 15 -15 10 0 15 -11 15 -35 0
-28 4 -35 20 -35 17 0 20 -7 20 -50 0 -38 4 -50 15 -50 8 0 15 -9 15 -20 0
-17 7 -20 50 -20 l50 0 0 70 c0 56 3 70 15 70 13 0 15 22 15 135 0 128 1 135
20 135 16 0 20 7 20 30 0 27 3 30 30 30 20 0 30 -5 30 -15 0 -8 9 -15 20 -15
11 0 20 -7 20 -15 0 -10 10 -15 30 -15 27 0 30 3 30 30 0 23 4 30 20 30 17 0
20 7 20 50 0 43 -3 50 -20 50 -13 0 -20 7 -20 20 0 11 -7 20 -15 20 -8 0 -15
7 -15 15 0 8 -7 15 -15 15 -8 0 -15 7 -15 15 0 10 -11 15 -35 15 -24 0 -35 -5
-35 -15z"/>
<path d="M10880 6510 c0 -20 -5 -30 -15 -30 -8 0 -15 -9 -15 -20 0 -11 -7 -20
-15 -20 -11 0 -15 -12 -15 -50 0 -43 -3 -50 -20 -50 -17 0 -20 -7 -20 -50 0
-38 -4 -50 -15 -50 -13 0 -15 -25 -15 -165 0 -140 2 -165 15 -165 10 0 15 -11
15 -35 0 -28 4 -35 20 -35 11 0 20 -7 20 -15 0 -8 7 -15 15 -15 8 0 15 -9 15
-20 0 -17 7 -20 50 -20 43 0 50 3 50 20 0 11 7 20 15 20 10 0 15 10 15 30 0
28 3 30 35 30 l35 0 0 70 c0 56 3 70 15 70 10 0 15 11 15 35 0 32 -2 35 -30
35 -23 0 -30 -4 -30 -20 0 -13 -7 -20 -20 -20 -11 0 -20 -7 -20 -15 0 -11 -12
-15 -50 -15 l-50 0 0 185 c0 178 1 185 20 185 11 0 20 7 20 15 0 8 7 15 15 15
12 0 15 14 15 65 l0 65 -35 0 c-32 0 -35 -2 -35 -30z"/>
<path d="M5420 6495 c0 -10 -11 -15 -35 -15 -28 0 -35 -4 -35 -20 0 -11 -7
-20 -15 -20 -10 0 -15 -10 -15 -30 0 -20 -5 -30 -15 -30 -12 0 -15 -18 -15
-100 l0 -100 -35 0 c-32 0 -35 2 -35 30 0 28 -3 30 -35 30 -33 0 -35 2 -35 35
0 24 -5 35 -15 35 -8 0 -15 7 -15 15 0 8 -7 15 -15 15 -8 0 -15 9 -15 20 0 13
-7 20 -20 20 -11 0 -20 7 -20 15 0 12 -14 15 -65 15 l-65 0 0 -100 c0 -82 3
-100 15 -100 8 0 15 -7 15 -15 0 -11 12 -15 50 -15 43 0 50 -3 50 -20 0 -13 7
-20 20 -20 11 0 20 -7 20 -15 0 -8 7 -15 15 -15 8 0 15 -7 15 -15 0 -8 7 -15
15 -15 10 0 15 -11 15 -35 0 -28 4 -35 20 -35 11 0 20 -7 20 -15 0 -8 7 -15
15 -15 12 0 15 -18 15 -105 0 -87 -3 -105 -15 -105 -8 0 -15 -7 -15 -15 0 -8
7 -15 15 -15 10 0 15 -11 15 -35 0 -24 -5 -35 -15 -35 -8 0 -15 -7 -15 -15 0
-8 -9 -15 -20 -15 -16 0 -20 -7 -20 -35 0 -24 -5 -35 -15 -35 -13 0 -15 -25
-15 -165 0 -140 2 -165 15 -165 13 0 15 -22 15 -135 0 -128 1 -135 20 -135 18
0 20 -7 20 -85 0 -69 3 -85 15 -85 8 0 15 -7 15 -15 0 -8 7 -15 15 -15 8 0 15
7 15 15 0 8 9 15 20 15 19 0 20 7 20 135 0 128 -1 135 -20 135 -18 0 -20 7
-20 85 0 69 -3 85 -15 85 -13 0 -15 23 -15 150 l0 150 65 0 c51 0 65 3 65 15
0 11 12 15 50 15 43 0 50 3 50 20 0 13 7 20 20 20 11 0 20 7 20 15 0 8 7 15
15 15 11 0 15 12 15 50 0 38 -4 50 -15 50 -8 0 -15 7 -15 15 0 8 -9 15 -20 15
-13 0 -20 7 -20 20 0 11 -7 20 -15 20 -8 0 -15 7 -15 15 0 8 -7 15 -15 15 -8
0 -15 7 -15 15 0 8 -9 15 -20 15 -19 0 -20 7 -20 105 0 98 1 105 20 105 19 0
20 7 20 115 l0 115 50 0 c38 0 50 -4 50 -15 0 -10 11 -15 35 -15 24 0 35 5 35
15 0 8 7 15 15 15 10 0 15 11 15 35 0 24 5 35 15 35 8 0 15 7 15 15 0 8 -7 15
-15 15 -8 0 -15 7 -15 15 0 8 -7 15 -15 15 -8 0 -15 9 -15 20 0 13 -7 20 -20
20 -11 0 -20 7 -20 15 0 11 -12 15 -50 15 -38 0 -50 -4 -50 -15z"/>
<path d="M10110 6460 c0 -16 -7 -20 -30 -20 -20 0 -30 -5 -30 -15 0 -10 -11
-15 -35 -15 -33 0 -35 -2 -35 -35 0 -24 -5 -35 -15 -35 -8 0 -15 -7 -15 -15 0
-8 -9 -15 -20 -15 -17 0 -20 -7 -20 -50 l0 -50 185 0 c158 0 185 -2 185 -15 0
-10 -11 -15 -35 -15 -28 0 -35 -4 -35 -20 0 -11 -7 -20 -15 -20 -8 0 -15 -7
-15 -15 0 -12 -14 -15 -65 -15 -51 0 -65 -3 -65 -15 0 -8 -9 -15 -20 -15 -17
0 -20 -7 -20 -50 l0 -50 85 0 c69 0 85 3 85 15 0 11 12 15 50 15 38 0 50 4 50
15 0 8 7 15 15 15 8 0 15 9 15 20 0 16 7 20 35 20 24 0 35 5 35 15 0 8 7 15
15 15 8 0 15 7 15 15 0 8 9 15 20 15 13 0 20 7 20 20 0 11 7 20 15 20 10 0 15
10 15 30 0 20 5 30 15 30 8 0 15 9 15 20 0 13 7 20 20 20 18 0 20 7 20 65 0
58 -2 65 -20 65 -11 0 -20 7 -20 15 0 10 -10 15 -30 15 -23 0 -30 4 -30 20 0
19 -7 20 -170 20 -163 0 -170 -1 -170 -20z"/>
<path d="M11490 6395 c0 -8 -9 -15 -20 -15 -13 0 -20 -7 -20 -20 0 -11 -7 -20
-15 -20 -10 0 -15 -10 -15 -30 0 -20 -5 -30 -15 -30 -10 0 -15 -11 -15 -35 0
-28 -4 -35 -20 -35 -19 0 -20 -7 -20 -135 l0 -135 35 0 c24 0 35 -5 35 -15 0
-8 7 -15 15 -15 8 0 15 -9 15 -20 0 -16 7 -20 35 -20 24 0 35 -5 35 -15 0 -10
11 -15 35 -15 24 0 35 -5 35 -15 0 -8 -9 -15 -20 -15 -13 0 -20 -7 -20 -20 0
-11 -7 -20 -15 -20 -8 0 -15 -7 -15 -15 0 -8 -7 -15 -15 -15 -8 0 -15 -7 -15
-15 0 -8 -9 -15 -20 -15 -13 0 -20 -7 -20 -20 0 -11 -7 -20 -15 -20 -8 0 -15
-7 -15 -15 0 -8 -7 -15 -15 -15 -8 0 -15 -7 -15 -15 0 -8 -9 -15 -20 -15 -13
0 -20 -7 -20 -20 0 -11 -7 -20 -15 -20 -8 0 -15 -7 -15 -15 0 -10 -11 -15 -35
-15 -24 0 -35 -5 -35 -15 0 -8 -7 -15 -15 -15 -8 0 -15 -9 -15 -20 0 -13 -7
-20 -20 -20 -11 0 -20 -7 -20 -15 0 -8 -7 -15 -15 -15 -8 0 -15 -7 -15 -15 0
-10 -11 -15 -35 -15 -28 0 -35 -4 -35 -20 0 -11 -7 -20 -15 -20 -8 0 -15 -7
-15 -15 0 -8 -7 -15 -15 -15 -8 0 -15 -9 -15 -20 0 -16 -7 -20 -35 -20 -24 0
-35 -5 -35 -15 0 -8 -7 -15 -15 -15 -8 0 -15 -7 -15 -15 0 -10 -11 -15 -35
-15 -28 0 -35 -4 -35 -20 0 -11 -7 -20 -15 -20 -8 0 -15 -7 -15 -15 0 -10 -11
-15 -35 -15 -24 0 -35 -5 -35 -15 0 -8 -7 -15 -15 -15 -8 0 -15 -9 -15 -20 0
-16 -7 -20 -35 -20 -24 0 -35 -5 -35 -15 0 -8 -7 -15 -15 -15 -10 0 -15 -11
-15 -35 l0 -35 65 0 c58 0 65 2 65 20 0 11 7 20 15 20 8 0 15 7 15 15 0 11 12
15 50 15 38 0 50 4 50 15 0 8 9 15 20 15 13 0 20 7 20 20 0 16 7 20 30 20 20
0 30 5 30 15 0 10 11 15 35 15 24 0 35 5 35 15 0 10 11 15 35 15 28 0 35 4 35
20 0 16 7 20 30 20 20 0 30 5 30 15 0 8 9 15 20 15 11 0 20 7 20 15 0 10 11
15 35 15 28 0 35 4 35 20 0 11 7 20 15 20 8 0 15 7 15 15 0 8 7 15 15 15 8 0
15 9 15 20 0 16 7 20 35 20 24 0 35 5 35 15 0 8 7 15 15 15 8 0 15 7 15 15 0
8 9 15 20 15 13 0 20 7 20 20 0 11 7 20 15 20 8 0 15 7 15 15 0 8 7 15 15 15
8 0 15 7 15 15 0 8 9 15 20 15 16 0 20 7 20 35 0 24 5 35 15 35 8 0 15 7 15
15 0 8 7 15 15 15 10 0 15 11 15 35 0 33 2 35 35 35 33 0 35 -2 35 -35 0 -24
-5 -35 -15 -35 -10 0 -15 -10 -15 -30 0 -23 -4 -30 -20 -30 -18 0 -20 -7 -20
-70 0 -56 -3 -70 -15 -70 -10 0 -15 -10 -15 -30 0 -20 -5 -30 -15 -30 -13 0
-15 -26 -15 -170 0 -144 2 -170 15 -170 10 0 15 -11 15 -35 0 -24 5 -35 15
-35 8 0 15 -7 15 -15 0 -8 9 -15 20 -15 11 0 20 -7 20 -15 0 -11 12 -15 50
-15 38 0 50 4 50 15 0 8 7 15 15 15 8 0 15 7 15 15 0 10 11 15 35 15 l35 0 0
50 c0 38 4 50 15 50 12 0 15 14 15 70 0 56 -3 70 -15 70 -8 0 -15 -9 -15 -20
0 -11 -7 -20 -15 -20 -8 0 -15 -7 -15 -15 0 -8 -9 -15 -20 -15 -11 0 -20 -7
-20 -15 0 -8 -7 -15 -15 -15 -8 0 -15 7 -15 15 0 8 -9 15 -20 15 -16 0 -20 7
-20 35 0 24 -5 35 -15 35 -8 0 -15 7 -15 15 0 8 -7 15 -15 15 -11 0 -15 12
-15 50 0 38 4 50 15 50 11 0 15 12 15 50 0 38 4 50 15 50 12 0 15 14 15 70 0
63 2 70 20 70 16 0 20 7 20 30 0 20 5 30 15 30 13 0 15 22 15 135 0 113 -2
135 -15 135 -10 0 -15 11 -15 35 0 28 -4 35 -20 35 -17 0 -20 7 -20 50 0 43 3
50 20 50 16 0 20 7 20 35 0 28 -4 35 -20 35 -18 0 -20 7 -20 80 0 64 -3 80
-15 80 -8 0 -15 9 -15 20 0 11 -7 20 -15 20 -8 0 -15 7 -15 15 0 12 -18 15
-100 15 -82 0 -100 -3 -100 -15z m130 -200 c0 -8 7 -15 15 -15 12 0 15 -14 15
-70 l0 -70 -30 0 c-23 0 -30 4 -30 20 0 16 -7 20 -35 20 -24 0 -35 5 -35 15 0
8 -7 15 -15 15 -11 0 -15 12 -15 50 l0 50 65 0 c51 0 65 -3 65 -15z"/>
<path d="M14800 6095 c0 -8 -7 -15 -15 -15 -10 0 -15 -11 -15 -35 0 -24 -5
-35 -15 -35 -12 0 -15 -16 -15 -85 0 -69 3 -85 15 -85 12 0 15 -16 15 -85 0
-69 -3 -85 -15 -85 -8 0 -15 9 -15 20 0 13 -7 20 -20 20 -11 0 -20 7 -20 15 0
8 -7 15 -15 15 -10 0 -15 11 -15 35 0 24 -5 35 -15 35 -8 0 -15 7 -15 15 0 8
-9 15 -20 15 -11 0 -20 7 -20 15 0 10 -10 15 -30 15 -23 0 -30 4 -30 20 0 13
-7 20 -20 20 -11 0 -20 7 -20 15 0 10 -10 15 -30 15 -20 0 -30 -5 -30 -15 0
-8 -9 -15 -20 -15 -18 0 -20 -7 -20 -85 0 -78 2 -85 20 -85 11 0 20 -7 20 -15
0 -12 16 -15 80 -15 73 0 80 -2 80 -20 0 -13 7 -20 20 -20 11 0 20 -7 20 -15
0 -8 7 -15 15 -15 8 0 15 -7 15 -15 0 -8 7 -15 15 -15 10 0 15 -11 15 -35 l0
-35 70 0 70 0 0 200 0 200 50 0 c43 0 50 3 50 20 0 11 7 20 15 20 10 0 15 10
15 30 0 20 -5 30 -15 30 -10 0 -15 11 -15 35 l0 35 -70 0 c-56 0 -70 -3 -70
-15z"/>
<path d="M15940 6025 c0 -11 -12 -15 -50 -15 -38 0 -50 -4 -50 -15 0 -8 -7
-15 -15 -15 -8 0 -15 -9 -15 -20 0 -17 -7 -20 -50 -20 -38 0 -50 -4 -50 -15 0
-8 -7 -15 -15 -15 -8 0 -15 -9 -15 -20 0 -18 -7 -20 -55 -20 -42 0 -55 -3 -55
-15 0 -8 -7 -15 -15 -15 -8 0 -15 -7 -15 -15 0 -10 -11 -15 -35 -15 -28 0 -35
-4 -35 -20 0 -16 -7 -20 -30 -20 -20 0 -30 -5 -30 -15 0 -8 -9 -15 -20 -15
-11 0 -20 -7 -20 -15 0 -11 -12 -15 -50 -15 -43 0 -50 -3 -50 -20 0 -11 -7
-20 -15 -20 -8 0 -15 -7 -15 -15 0 -11 -12 -15 -50 -15 -38 0 -50 -4 -50 -15
0 -8 -7 -15 -15 -15 -8 0 -15 -9 -15 -20 0 -13 -7 -20 -20 -20 -11 0 -20 -7
-20 -15 0 -11 -12 -15 -50 -15 -38 0 -50 -4 -50 -15 0 -8 -7 -15 -15 -15 -8 0
-15 -9 -15 -20 0 -17 -7 -20 -50 -20 -38 0 -50 -4 -50 -15 0 -8 -9 -15 -20
-15 -11 0 -20 -7 -20 -15 0 -11 -12 -15 -50 -15 -43 0 -50 -3 -50 -20 0 -11
-7 -20 -15 -20 -8 0 -15 -7 -15 -15 0 -8 -7 -15 -15 -15 -8 0 -15 -9 -15 -20
0 -17 -7 -20 -50 -20 -38 0 -50 -4 -50 -15 0 -8 -9 -15 -20 -15 -11 0 -20 -7
-20 -15 0 -11 -12 -15 -50 -15 -43 0 -50 -3 -50 -20 0 -11 -7 -20 -15 -20 -8
0 -15 -7 -15 -15 0 -10 -11 -15 -35 -15 -24 0 -35 -5 -35 -15 0 -10 -11 -15
-35 -15 -28 0 -35 -4 -35 -20 0 -11 -7 -20 -15 -20 -8 0 -15 -7 -15 -15 0 -10
-11 -15 -35 -15 -24 0 -35 -5 -35 -15 0 -8 -7 -15 -15 -15 -8 0 -15 -9 -15
-20 0 -11 7 -20 15 -20 8 0 15 -7 15 -15 0 -11 12 -15 50 -15 38 0 50 4 50 15
0 10 11 15 35 15 28 0 35 4 35 20 0 16 7 20 35 20 24 0 35 5 35 15 0 10 11 15
35 15 24 0 35 5 35 15 0 8 7 15 15 15 8 0 15 9 15 20 0 16 7 20 35 20 24 0 35
5 35 15 0 10 10 15 30 15 20 0 30 5 30 15 0 10 11 15 35 15 28 0 35 4 35 20 0
16 7 20 35 20 24 0 35 5 35 15 0 10 10 15 30 15 20 0 30 5 30 15 0 10 11 15
35 15 28 0 35 4 35 20 0 11 7 20 15 20 8 0 15 7 15 15 0 10 11 15 35 15 28 0
35 4 35 20 0 16 7 20 35 20 24 0 35 5 35 15 0 10 11 15 35 15 24 0 35 5 35 15
0 10 10 15 30 15 23 0 30 4 30 20 0 16 7 20 35 20 24 0 35 5 35 15 0 10 11 15
35 15 24 0 35 5 35 15 0 8 7 15 15 15 8 0 15 9 15 20 0 16 7 20 35 20 24 0 35
5 35 15 0 10 10 15 30 15 20 0 30 5 30 15 0 10 11 15 35 15 28 0 35 4 35 20 0
16 7 20 35 20 24 0 35 5 35 15 0 8 7 15 15 15 8 0 15 7 15 15 0 11 12 15 50
15 43 0 50 3 50 20 0 13 7 20 20 20 11 0 20 7 20 15 0 10 10 15 30 15 20 0 30
5 30 15 0 10 11 15 35 15 28 0 35 4 35 20 0 11 7 20 15 20 8 0 15 7 15 15 0
10 11 15 35 15 33 0 35 2 35 35 0 24 5 35 15 35 8 0 15 7 15 15 0 11 -12 15
-50 15 -38 0 -50 -4 -50 -15z"/>
<path d="M5820 5975 c0 -24 -5 -35 -15 -35 -11 0 -15 -12 -15 -50 0 -38 -4
-50 -15 -50 -12 0 -15 -16 -15 -85 0 -78 -2 -85 -20 -85 -19 0 -20 -7 -20
-100 0 -93 1 -100 20 -100 16 0 20 -7 20 -30 0 -20 5 -30 15 -30 8 0 15 -9 15
-20 0 -11 7 -20 15 -20 8 0 15 -7 15 -15 0 -11 12 -15 50 -15 38 0 50 4 50 15
0 8 9 15 20 15 13 0 20 7 20 20 0 11 7 20 15 20 10 0 15 10 15 30 0 20 5 30
15 30 10 0 15 11 15 35 l0 35 -80 0 -80 0 0 165 c0 140 2 165 15 165 10 0 15
11 15 35 0 24 5 35 15 35 10 0 15 11 15 35 l0 35 -50 0 -50 0 0 -35z"/>
<path d="M9270 5690 c0 -16 -7 -20 -30 -20 -20 0 -30 -5 -30 -15 0 -11 -12
-15 -50 -15 -38 0 -50 -4 -50 -15 0 -11 -12 -15 -50 -15 -43 0 -50 -3 -50 -20
0 -16 -7 -20 -35 -20 -24 0 -35 -5 -35 -15 0 -11 -12 -15 -50 -15 -38 0 -50
-4 -50 -15 0 -10 -11 -15 -35 -15 -28 0 -35 -4 -35 -20 0 -18 -7 -20 -65 -20
-51 0 -65 -3 -65 -15 0 -10 -11 -15 -35 -15 -24 0 -35 -5 -35 -15 0 -11 -12
-15 -50 -15 l-50 0 0 -35 c0 -24 -5 -35 -15 -35 -8 0 -15 -9 -15 -20 0 -13 -7
-20 -20 -20 -16 0 -20 -7 -20 -30 l0 -30 85 0 c69 0 85 3 85 15 0 10 11 15 35
15 24 0 35 5 35 15 0 11 12 15 50 15 43 0 50 3 50 20 0 16 7 20 35 20 24 0 35
5 35 15 0 10 10 15 30 15 23 0 30 4 30 20 0 17 7 20 50 20 38 0 50 4 50 15 0
11 12 15 50 15 38 0 50 4 50 15 0 12 14 15 70 15 63 0 70 2 70 20 0 16 7 20
30 20 20 0 30 5 30 15 0 12 13 15 55 15 42 0 55 3 55 15 0 8 7 15 15 15 8 0
15 9 15 20 0 11 7 20 15 20 11 0 15 12 15 50 l0 50 -85 0 c-78 0 -85 -2 -85
-20z"/>
<path d="M10410 5655 c0 -10 -10 -15 -30 -15 l-30 0 0 -65 c0 -58 -2 -65 -20
-65 -13 0 -20 -7 -20 -20 0 -11 -7 -20 -15 -20 -12 0 -15 -18 -15 -100 0 -82
-3 -100 -15 -100 -10 0 -15 11 -15 35 0 28 -4 35 -20 35 -16 0 -20 7 -20 35 0
24 -5 35 -15 35 -8 0 -15 7 -15 15 0 8 -7 15 -15 15 -8 0 -15 7 -15 15 0 8 -9
15 -20 15 -13 0 -20 7 -20 20 0 11 -7 20 -15 20 -8 0 -15 7 -15 15 0 8 -7 15
-15 15 -8 0 -15 7 -15 15 0 10 -11 15 -35 15 -28 0 -35 4 -35 20 0 11 -7 20
-15 20 -8 0 -15 -9 -15 -20 0 -13 -7 -20 -20 -20 -16 0 -20 -7 -20 -30 0 -20
-5 -30 -15 -30 -8 0 -15 -9 -15 -20 0 -11 7 -20 15 -20 10 0 15 -10 15 -30 0
-23 4 -30 20 -30 16 0 20 -7 20 -35 0 -24 5 -35 15 -35 8 0 15 -9 15 -20 0
-17 7 -20 50 -20 38 0 50 -4 50 -15 0 -8 7 -15 15 -15 8 0 15 -7 15 -15 0 -8
9 -15 20 -15 13 0 20 -7 20 -20 0 -11 7 -20 15 -20 11 0 15 -12 15 -50 0 -38
4 -50 15 -50 8 0 15 -7 15 -15 0 -8 9 -15 20 -15 16 0 20 -7 20 -35 l0 -35 50
0 50 0 0 85 c0 69 3 85 15 85 13 0 15 22 15 135 0 113 2 135 15 135 8 0 15 7
15 15 0 10 11 15 35 15 24 0 35 -5 35 -15 0 -11 12 -15 50 -15 38 0 50 4 50
15 0 8 9 15 20 15 17 0 20 7 20 50 0 43 -3 50 -20 50 -16 0 -20 7 -20 35 0 33
-2 35 -35 35 -24 0 -35 5 -35 15 0 11 -12 15 -50 15 -38 0 -50 -4 -50 -15z"/>
<path d="M13800 5655 c0 -10 -11 -15 -35 -15 l-35 0 0 -115 0 -115 100 0 c82
0 100 3 100 15 0 8 9 15 20 15 11 0 20 7 20 15 0 8 7 15 15 15 12 0 15 14 15
70 0 56 -3 70 -15 70 -8 0 -15 7 -15 15 0 10 -11 15 -35 15 -24 0 -35 5 -35
15 0 11 -12 15 -50 15 -38 0 -50 -4 -50 -15z"/>
<path d="M15570 5590 c0 -43 3 -50 20 -50 16 0 20 -7 20 -35 0 -24 5 -35 15
-35 13 0 15 -22 15 -135 0 -113 -2 -135 -15 -135 -8 0 -15 -7 -15 -15 0 -11
-12 -15 -50 -15 -38 0 -50 4 -50 15 0 10 -11 15 -35 15 -32 0 -35 -2 -35 -30
0 -20 5 -30 15 -30 11 0 15 -12 15 -50 0 -43 3 -50 20 -50 13 0 20 -7 20 -20
0 -11 7 -20 15 -20 8 0 15 -7 15 -15 0 -10 11 -15 35 -15 24 0 35 -5 35 -15 0
-8 7 -15 15 -15 8 0 15 7 15 15 0 8 9 15 20 15 11 0 20 7 20 15 0 8 7 15 15
15 8 0 15 9 15 20 0 11 7 20 15 20 10 0 15 10 15 30 0 23 4 30 20 30 18 0 20
7 20 85 0 78 -2 85 -20 85 -18 0 -20 7 -20 70 0 56 -3 70 -15 70 -12 0 -15 14
-15 65 0 51 -3 65 -15 65 -10 0 -15 11 -15 35 0 28 -4 35 -20 35 -11 0 -20 7
-20 15 0 10 -11 15 -35 15 l-35 0 0 -50z"/>
<path d="M14940 5120 c0 -43 -3 -50 -20 -50 -19 0 -20 -7 -20 -135 0 -128 1
-135 20 -135 16 0 20 -7 20 -30 0 -20 5 -30 15 -30 8 0 15 -9 15 -20 0 -16 7
-20 35 -20 24 0 35 -5 35 -15 0 -10 11 -15 35 -15 24 0 35 5 35 15 0 10 10 15
30 15 28 0 30 3 30 35 0 28 4 35 20 35 17 0 20 7 20 50 l0 50 -50 0 c-38 0
-50 -4 -50 -15 0 -10 -11 -15 -35 -15 -24 0 -35 5 -35 15 0 8 -9 15 -20 15
-19 0 -20 7 -20 150 l0 150 -30 0 c-29 0 -30 -1 -30 -50z"/>
<path d="M8970 5105 c0 -24 -5 -35 -15 -35 -11 0 -15 -12 -15 -50 0 -38 -4
-50 -15 -50 -10 0 -15 -11 -15 -35 0 -28 -4 -35 -20 -35 -19 0 -20 -7 -20
-185 l0 -185 35 0 c24 0 35 -5 35 -15 0 -8 7 -15 15 -15 8 0 15 -7 15 -15 0
-12 14 -15 70 -15 56 0 70 3 70 15 0 8 7 15 15 15 8 0 15 7 15 15 0 8 7 15 15
15 12 0 15 16 15 85 l0 85 -30 0 c-20 0 -30 -5 -30 -15 0 -8 -9 -15 -20 -15
-13 0 -20 -7 -20 -20 0 -11 -7 -20 -15 -20 -8 0 -15 9 -15 20 0 11 -7 20 -15
20 -11 0 -15 12 -15 50 0 43 -3 50 -20 50 -16 0 -20 7 -20 35 0 28 4 35 20 35
18 0 20 7 20 65 0 51 3 65 15 65 12 0 15 16 15 85 l0 85 -35 0 c-33 0 -35 -2
-35 -35z"/>
<path d="M7530 5055 c0 -8 -7 -15 -15 -15 -8 0 -15 -9 -15 -20 0 -11 -7 -20
-15 -20 -10 0 -15 -10 -15 -30 0 -23 -4 -30 -20 -30 -16 0 -20 -7 -20 -35 0
-28 4 -35 20 -35 11 0 20 -7 20 -15 0 -8 7 -15 15 -15 8 0 15 -9 15 -20 0 -11
7 -20 15 -20 8 0 15 -7 15 -15 0 -8 9 -15 20 -15 11 0 20 -7 20 -15 0 -10 10
-15 30 -15 23 0 30 -4 30 -20 0 -13 7 -20 20 -20 13 0 20 7 20 20 0 11 7 20
15 20 8 0 15 7 15 15 0 8 7 15 15 15 8 0 15 7 15 15 0 8 9 15 20 15 13 0 20 7
20 20 0 11 7 20 15 20 11 0 15 12 15 50 0 38 -4 50 -15 50 -8 0 -15 7 -15 15
0 8 -9 15 -20 15 -11 0 -20 7 -20 15 0 10 -10 15 -30 15 -23 0 -30 4 -30 20 0
13 -7 20 -20 20 -11 0 -20 7 -20 15 0 11 -12 15 -50 15 -38 0 -50 -4 -50 -15z"/>
<path d="M6930 5020 c0 -11 -7 -20 -15 -20 -11 0 -15 -12 -15 -50 0 -38 4 -50
15 -50 12 0 15 -16 15 -80 0 -64 -3 -80 -15 -80 -8 0 -15 -9 -15 -20 0 -18 -7
-20 -85 -20 l-85 0 0 35 c0 28 -4 35 -20 35 -11 0 -20 7 -20 15 0 8 9 15 20
15 18 0 20 7 20 70 l0 70 -50 0 -50 0 0 -155 c0 -131 2 -155 15 -155 8 0 15
-7 15 -15 0 -8 7 -15 15 -15 8 0 15 -7 15 -15 0 -8 9 -15 20 -15 13 0 20 -7
20 -20 0 -18 7 -20 65 -20 58 0 65 2 65 20 0 13 7 20 20 20 11 0 20 7 20 15 0
8 7 15 15 15 8 0 15 7 15 15 0 8 7 15 15 15 8 0 15 9 15 20 0 13 7 20 20 20
13 0 20 -7 20 -20 0 -16 7 -20 30 -20 20 0 30 -5 30 -15 0 -12 16 -15 85 -15
l85 0 0 35 c0 24 5 35 15 35 8 0 15 7 15 15 0 8 9 15 20 15 18 0 20 7 20 85 0
78 -2 85 -20 85 -16 0 -20 7 -20 35 0 24 -5 35 -15 35 -11 0 -15 12 -15 50 l0
50 -50 0 -50 0 0 -50 c0 -38 4 -50 15 -50 12 0 15 -14 15 -70 0 -63 2 -70 20
-70 16 0 20 -7 20 -30 0 -29 -1 -30 -50 -30 -38 0 -50 4 -50 15 0 8 -9 15 -20
15 -11 0 -20 7 -20 15 0 8 -7 15 -15 15 -10 0 -15 11 -15 35 0 24 -5 35 -15
35 -12 0 -15 14 -15 65 0 58 -2 65 -20 65 -13 0 -20 7 -20 20 0 11 -7 20 -15
20 -8 0 -15 -9 -15 -20z"/>
<path d="M5620 4955 c0 -10 -10 -15 -30 -15 -23 0 -30 -4 -30 -20 0 -13 -7
-20 -20 -20 -16 0 -20 -7 -20 -30 0 -20 -5 -30 -15 -30 -10 0 -15 -11 -15 -35
0 -24 5 -35 15 -35 8 0 15 -7 15 -15 0 -8 9 -15 20 -15 13 0 20 -7 20 -20 0
-11 7 -20 15 -20 8 0 15 -7 15 -15 0 -8 7 -15 15 -15 8 0 15 -9 15 -20 0 -13
7 -20 20 -20 11 0 20 -7 20 -15 0 -10 10 -15 30 -15 20 0 30 5 30 15 0 8 9 15
20 15 13 0 20 7 20 20 0 11 7 20 15 20 8 0 15 7 15 15 0 12 14 15 65 15 51 0
65 -3 65 -15 0 -8 9 -15 20 -15 13 0 20 -7 20 -20 0 -11 7 -20 15 -20 8 0 15
-7 15 -15 0 -10 11 -15 35 -15 24 0 35 5 35 15 0 8 7 15 15 15 10 0 15 11 15
35 0 33 2 35 35 35 l35 0 0 70 c0 56 -3 70 -15 70 -8 0 -15 7 -15 15 0 8 -9
15 -20 15 -11 0 -20 7 -20 15 0 8 -7 15 -15 15 -8 0 -15 9 -15 20 0 16 -7 20
-35 20 -24 0 -35 5 -35 15 0 10 -11 15 -35 15 -24 0 -35 -5 -35 -15 0 -10 -10
-15 -30 -15 -23 0 -30 -4 -30 -20 0 -13 -7 -20 -20 -20 -11 0 -20 -7 -20 -15
0 -10 -10 -15 -30 -15 -20 0 -30 5 -30 15 0 8 -9 15 -20 15 -13 0 -20 7 -20
20 0 16 -7 20 -30 20 -20 0 -30 5 -30 15 0 8 -9 15 -20 15 -11 0 -20 -7 -20
-15z"/>
<path d="M11180 4735 c0 -24 -5 -35 -15 -35 -8 0 -15 -7 -15 -15 0 -8 7 -15
15 -15 12 0 15 -18 15 -100 0 -82 -3 -100 -15 -100 -10 0 -15 -11 -15 -35 l0
-35 -65 0 -65 0 0 35 c0 28 -4 35 -20 35 -19 0 -20 7 -20 115 l0 115 -30 0
c-20 0 -30 -5 -30 -15 0 -8 -9 -15 -20 -15 -19 0 -20 -7 -20 -150 0 -143 1
-150 20 -150 16 0 20 -7 20 -35 0 -32 2 -35 30 -35 20 0 30 -5 30 -15 0 -12
16 -15 85 -15 69 0 85 3 85 15 0 8 7 15 15 15 8 0 15 7 15 15 0 8 9 15 20 15
13 0 20 7 20 20 0 17 7 20 50 20 l50 0 0 -35 0 -35 85 0 85 0 0 35 c0 24 5 35
15 35 10 0 15 10 15 30 0 20 5 30 15 30 12 0 15 16 15 85 0 69 -3 85 -15 85
-12 0 -15 14 -15 70 l0 70 -50 0 -50 0 0 -70 c0 -56 3 -70 15 -70 12 0 15 -14
15 -65 l0 -65 -65 0 -65 0 0 30 c0 20 -5 30 -15 30 -12 0 -15 18 -15 105 0 98
-1 105 -20 105 -11 0 -20 7 -20 15 0 10 -11 15 -35 15 -33 0 -35 -2 -35 -35z"/>
<path d="M13230 4700 c0 -56 -3 -70 -15 -70 -11 0 -15 -12 -15 -50 0 -38 4
-50 15 -50 8 0 15 -7 15 -15 0 -10 11 -15 35 -15 24 0 35 -5 35 -15 0 -12 16
-15 80 -15 l80 0 0 50 c0 43 3 50 20 50 18 0 20 7 20 65 0 58 -2 65 -20 65
-13 0 -20 7 -20 20 0 16 -7 20 -30 20 -20 0 -30 5 -30 15 0 12 -16 15 -85 15
l-85 0 0 -70z"/>
<path d="M10280 4665 c0 -24 -5 -35 -15 -35 -10 0 -15 -10 -15 -30 0 -23 -4
-30 -20 -30 -16 0 -20 -7 -20 -35 0 -24 -5 -35 -15 -35 -13 0 -15 -27 -15
-185 0 -158 2 -185 15 -185 10 0 15 -10 15 -30 0 -23 4 -30 20 -30 13 0 20 -7
20 -20 0 -18 7 -20 65 -20 58 0 65 2 65 20 0 11 7 20 15 20 10 0 15 10 15 30
0 23 4 30 20 30 17 0 20 7 20 50 l0 50 -70 0 -70 0 0 50 c0 38 -4 50 -15 50
-12 0 -15 14 -15 70 0 56 3 70 15 70 11 0 15 12 15 50 0 43 3 50 20 50 18 0
20 7 20 65 l0 65 -35 0 c-33 0 -35 -2 -35 -35z"/>
<path d="M15340 4615 c0 -8 -7 -15 -15 -15 -8 0 -15 -7 -15 -15 0 -10 -11 -15
-35 -15 -28 0 -35 -4 -35 -20 0 -16 -7 -20 -35 -20 -24 0 -35 -5 -35 -15 0 -8
-7 -15 -15 -15 -8 0 -15 -7 -15 -15 0 -10 -11 -15 -35 -15 -28 0 -35 -4 -35
-20 0 -11 -7 -20 -15 -20 -8 0 -15 -7 -15 -15 0 -12 -14 -15 -70 -15 -56 0
-70 -3 -70 -15 0 -11 -12 -15 -50 -15 -43 0 -50 -3 -50 -20 0 -17 -7 -20 -50
-20 -43 0 -50 3 -50 20 0 16 -7 20 -30 20 -20 0 -30 5 -30 15 0 11 -12 15 -50
15 -38 0 -50 4 -50 15 0 10 -11 15 -35 15 -28 0 -35 4 -35 20 0 11 -7 20 -15
20 -8 0 -15 7 -15 15 0 8 -9 15 -20 15 -11 0 -20 7 -20 15 0 8 -7 15 -15 15
-8 0 -15 9 -15 20 0 16 -7 20 -35 20 l-35 0 0 -150 c0 -127 2 -150 15 -150 8
0 15 -9 15 -20 0 -13 7 -20 20 -20 16 0 20 -7 20 -30 0 -20 5 -30 15 -30 11 0
15 -12 15 -50 0 -43 3 -50 20 -50 16 0 20 -7 20 -35 0 -24 5 -35 15 -35 12 0
15 -16 15 -85 l0 -85 -35 0 c-33 0 -35 -2 -35 -35 0 -33 -2 -35 -35 -35 -24 0
-35 -5 -35 -15 0 -10 -10 -15 -30 -15 -20 0 -30 -5 -30 -15 0 -10 -11 -15 -35
-15 -28 0 -35 -4 -35 -20 0 -11 -7 -20 -15 -20 -8 0 -15 -7 -15 -15 0 -10 -11
-15 -35 -15 -24 0 -35 -5 -35 -15 0 -10 -11 -15 -35 -15 -28 0 -35 -4 -35 -20
0 -16 -7 -20 -30 -20 -20 0 -30 -5 -30 -15 0 -10 -11 -15 -35 -15 -24 0 -35
-5 -35 -15 0 -11 -12 -15 -50 -15 -43 0 -50 -3 -50 -20 0 -17 -7 -20 -50 -20
-38 0 -50 -4 -50 -15 0 -8 -9 -15 -20 -15 -13 0 -20 -7 -20 -20 0 -17 -7 -20
-50 -20 -38 0 -50 -4 -50 -15 0 -11 -12 -15 -50 -15 -38 0 -50 -4 -50 -15 0
-11 -12 -15 -50 -15 -43 0 -50 -3 -50 -20 0 -17 -7 -20 -50 -20 -38 0 -50 -4
-50 -15 0 -12 -14 -15 -65 -15 -51 0 -65 -3 -65 -15 0 -12 -14 -15 -70 -15
-63 0 -70 -2 -70 -20 0 -17 -7 -20 -50 -20 -38 0 -50 -4 -50 -15 0 -12 -16
-15 -80 -15 -64 0 -80 -3 -80 -15 0 -12 -14 -15 -70 -15 l-70 0 0 -35 0 -35
355 0 c309 0 355 2 355 15 0 12 16 15 80 15 73 0 80 2 80 20 0 18 7 20 85 20
69 0 85 3 85 15 0 10 11 15 35 15 24 0 35 5 35 15 0 11 12 15 50 15 43 0 50 3
50 20 0 16 7 20 35 20 24 0 35 5 35 15 0 10 10 15 30 15 20 0 30 5 30 15 0 10
11 15 35 15 28 0 35 4 35 20 0 16 7 20 35 20 24 0 35 5 35 15 0 11 12 15 50
15 l50 0 0 35 c0 32 2 35 30 35 20 0 30 5 30 15 0 10 11 15 35 15 33 0 35 2
35 35 0 33 2 35 35 35 24 0 35 5 35 15 0 10 11 15 35 15 28 0 35 4 35 20 0 11
7 20 15 20 10 0 15 10 15 30 0 20 5 30 15 30 8 0 15 9 15 20 0 13 7 20 20 20
17 0 20 7 20 50 0 38 4 50 15 50 12 0 15 18 15 100 0 82 3 100 15 100 10 0 15
11 15 35 l0 35 150 0 c127 0 150 2 150 15 0 8 9 15 20 15 11 0 20 7 20 15 0
10 10 15 30 15 23 0 30 4 30 20 0 16 7 20 35 20 24 0 35 5 35 15 0 8 9 15 20
15 11 0 20 7 20 15 0 10 10 15 30 15 23 0 30 4 30 20 0 18 7 20 70 20 l70 0 0
-50 c0 -38 4 -50 15 -50 8 0 15 -9 15 -20 0 -11 7 -20 15 -20 10 0 15 -10 15
-30 0 -23 4 -30 20 -30 13 0 20 -7 20 -20 0 -11 7 -20 15 -20 8 0 15 -7 15
-15 0 -10 11 -15 35 -15 28 0 35 -4 35 -20 0 -11 7 -20 15 -20 8 0 15 -7 15
-15 0 -12 14 -15 70 -15 56 0 70 3 70 15 0 8 7 15 15 15 8 0 15 9 15 20 0 16
7 20 35 20 24 0 35 5 35 15 0 8 7 15 15 15 8 0 15 9 15 20 0 11 7 20 15 20 12
0 15 14 15 65 0 58 2 65 20 65 19 0 20 7 20 115 0 108 -1 115 -20 115 -16 0
-20 7 -20 35 0 24 -5 35 -15 35 -8 0 -15 7 -15 15 0 8 -7 15 -15 15 -8 0 -15
9 -15 20 0 13 -7 20 -20 20 -11 0 -20 7 -20 15 0 8 -7 15 -15 15 -8 0 -15 7
-15 15 0 13 -27 15 -185 15 -158 0 -185 -2 -185 -15z m300 -265 c0 -16 7 -20
35 -20 24 0 35 -5 35 -15 0 -8 7 -15 15 -15 10 0 15 -11 15 -35 l0 -35 -100 0
c-93 0 -100 1 -100 20 0 11 -7 20 -15 20 -8 0 -15 7 -15 15 0 8 -9 15 -20 15
-16 0 -20 7 -20 35 l0 35 85 0 c78 0 85 -2 85 -20z"/>
<path d="M5390 4450 c0 -16 -7 -20 -35 -20 l-35 0 0 -50 c0 -38 -4 -50 -15
-50 -12 0 -15 -14 -15 -65 0 -58 -2 -65 -20 -65 -11 0 -20 -7 -20 -15 0 -8 9
-15 20 -15 19 0 20 -7 20 -105 0 -87 3 -105 15 -105 10 0 15 -10 15 -30 l0
-30 65 0 c51 0 65 3 65 15 0 8 9 15 20 15 16 0 20 7 20 35 0 24 5 35 15 35 10
0 15 11 15 35 l0 35 -65 0 -65 0 0 150 c0 127 2 150 15 150 11 0 15 12 15 50
0 38 -4 50 -15 50 -8 0 -15 -9 -15 -20z"/>
<path d="M15210 3980 c0 -13 -7 -20 -20 -20 -11 0 -20 -7 -20 -15 0 -10 -10
-15 -30 -15 -29 0 -30 -1 -30 -50 0 -38 4 -50 15 -50 8 0 15 -7 15 -15 0 -8
-7 -15 -15 -15 -8 0 -15 -9 -15 -20 0 -13 -7 -20 -20 -20 -11 0 -20 -7 -20
-15 0 -8 -7 -15 -15 -15 -12 0 -15 -16 -15 -85 0 -69 3 -85 15 -85 12 0 15
-14 15 -65 0 -58 2 -65 20 -65 18 0 20 -7 20 -70 0 -56 3 -70 15 -70 12 0 15
-14 15 -65 0 -51 3 -65 15 -65 8 0 15 -7 15 -15 0 -8 9 -15 20 -15 11 0 20 7
20 15 0 8 7 15 15 15 12 0 15 14 15 65 0 51 -3 65 -15 65 -10 0 -15 11 -15 35
0 28 -4 35 -20 35 -19 0 -20 7 -20 100 0 82 -3 100 -15 100 -12 0 -15 14 -15
70 l0 70 65 0 c51 0 65 3 65 15 0 11 12 15 50 15 38 0 50 4 50 15 0 8 9 15 20
15 17 0 20 7 20 50 0 43 -3 50 -20 50 -13 0 -20 7 -20 20 0 11 -7 20 -15 20
-8 0 -15 7 -15 15 0 8 -7 15 -15 15 -8 0 -15 7 -15 15 0 8 -9 15 -20 15 -13 0
-20 7 -20 20 0 16 -7 20 -30 20 -23 0 -30 -4 -30 -20z"/>
<path d="M15640 3745 c0 -78 2 -85 20 -85 19 0 20 -7 20 -135 0 -128 -1 -135
-20 -135 -11 0 -20 -7 -20 -15 0 -11 -12 -15 -50 -15 -38 0 -50 4 -50 15 0 10
-11 15 -35 15 -32 0 -35 -2 -35 -30 0 -23 4 -30 20 -30 16 0 20 -7 20 -35 0
-24 5 -35 15 -35 10 0 15 -11 15 -35 0 -33 2 -35 35 -35 24 0 35 -5 35 -15 0
-8 7 -15 15 -15 8 0 15 -7 15 -15 0 -8 9 -15 20 -15 11 0 20 7 20 15 0 8 7 15
15 15 8 0 15 7 15 15 0 8 7 15 15 15 8 0 15 9 15 20 0 13 7 20 20 20 17 0 20
7 20 50 0 38 4 50 15 50 12 0 15 16 15 85 0 69 -3 85 -15 85 -12 0 -15 16 -15
80 0 73 -2 80 -20 80 -17 0 -20 7 -20 50 0 38 -4 50 -15 50 -10 0 -15 11 -15
35 0 33 -2 35 -35 35 l-35 0 0 -85z"/>
<path d="M14640 3515 c0 -78 -2 -85 -20 -85 -19 0 -20 -7 -20 -100 0 -93 1
-100 20 -100 16 0 20 -7 20 -35 0 -24 5 -35 15 -35 8 0 15 -7 15 -15 0 -8 7
-15 15 -15 8 0 15 -9 15 -20 0 -16 7 -20 35 -20 24 0 35 -5 35 -15 0 -8 7 -15
15 -15 8 0 15 7 15 15 0 10 11 15 35 15 28 0 35 4 35 20 0 11 7 20 15 20 8 0
15 7 15 15 0 8 9 15 20 15 18 0 20 7 20 65 l0 65 -50 0 c-38 0 -50 -4 -50 -15
0 -11 -12 -15 -50 -15 l-50 0 0 170 0 170 -50 0 -50 0 0 -85z"/>
<path d="M6160 3410 c0 -11 -7 -20 -15 -20 -8 0 -15 -7 -15 -15 0 -8 -9 -15
-20 -15 -11 0 -20 -7 -20 -15 0 -8 -7 -15 -15 -15 -8 0 -15 -9 -15 -20 0 -16
-7 -20 -35 -20 -33 0 -35 2 -35 35 0 33 -2 35 -35 35 -24 0 -35 5 -35 15 0 12
-14 15 -65 15 -51 0 -65 -3 -65 -15 0 -8 -7 -15 -15 -15 -10 0 -15 -11 -15
-35 0 -28 -4 -35 -20 -35 -16 0 -20 -7 -20 -30 0 -23 4 -30 20 -30 16 0 20 -7
20 -35 0 -24 5 -35 15 -35 8 0 15 -7 15 -15 0 -8 7 -15 15 -15 8 0 15 -9 15
-20 0 -13 7 -20 20 -20 11 0 20 -7 20 -15 0 -12 14 -15 65 -15 l65 0 0 35 c0
33 2 35 35 35 32 0 35 2 35 30 0 20 5 30 15 30 8 0 15 -7 15 -15 0 -8 9 -15
20 -15 11 0 20 -7 20 -15 0 -8 7 -15 15 -15 8 0 15 -9 15 -20 0 -11 7 -20 15
-20 8 0 15 -7 15 -15 0 -11 12 -15 50 -15 38 0 50 4 50 15 0 10 11 15 35 15
33 0 35 2 35 35 0 24 5 35 15 35 11 0 15 12 15 50 0 38 -4 50 -15 50 -10 0
-15 11 -15 35 0 24 -5 35 -15 35 -8 0 -15 7 -15 15 0 8 -9 15 -20 15 -11 0
-20 7 -20 15 0 10 -10 15 -30 15 -23 0 -30 4 -30 20 0 16 -7 20 -35 20 -28 0
-35 -4 -35 -20z"/>
<path d="M9840 3245 c0 -8 -7 -15 -15 -15 -8 0 -15 -9 -15 -20 0 -11 -7 -20
-15 -20 -8 0 -15 -7 -15 -15 0 -10 -11 -15 -35 -15 -24 0 -35 5 -35 15 0 12
-14 15 -65 15 -51 0 -65 -3 -65 -15 0 -8 -9 -15 -20 -15 -11 0 -20 7 -20 15 0
8 -7 15 -15 15 -8 0 -15 -7 -15 -15 0 -8 -7 -15 -15 -15 -8 0 -15 -7 -15 -15
0 -8 7 -15 15 -15 8 0 15 -9 15 -20 0 -19 7 -20 100 -20 82 0 100 -3 100 -15
0 -12 20 -15 120 -15 100 0 120 3 120 15 0 10 10 15 30 15 23 0 30 4 30 20 0
17 7 20 50 20 49 0 50 1 50 30 0 23 4 30 20 30 13 0 20 7 20 20 0 13 -7 20
-20 20 -11 0 -20 7 -20 15 0 11 -12 15 -50 15 -38 0 -50 -4 -50 -15 0 -8 -7
-15 -15 -15 -10 0 -15 -11 -15 -35 0 -33 -2 -35 -35 -35 l-35 0 0 50 0 50 -35
0 c-24 0 -35 -5 -35 -15z"/>
</g>
</svg>
